<?xml version="1.0" encoding="utf-8"?>
<!DOCTYPE svg PUBLIC "-//W3C//DTD SVG 1.1//EN" "http://www.w3.org/Graphics/SVG/1.1/DTD/svg11.dtd">
<svg version="1.1" id="svg" x="0px" y="0px" width="1099" height="509" viewBox="0 0 1099 509" enable-background="new 0 0 1099 509" xml:space="preserve" regionID="9" building_id="4649" city_id="150" floor_id="5399" building_name="中华城" building_spelling="zhonghuacheng" floor_num="8" floor_nameEN="f5" floor_name="五楼" floor_type="美食、娱乐" floor_width="288" floor_height="72" xmlns="http://www.w3.org/2000/svg" xmlns:xlink="http://www.w3.org/1999/xlink">
<g id="XMLID_2_">
	<g>
		<g id="XMLID_1_">
			<g>
				<path fill="#FFFFFF" d="M1092.76,287.141c1.29,11.479-2.87,20.17-4.989,23.448c-1.659,2.57-36.109,47.4-70.149,91.591      c-1.062,1.381-2.13,2.762-3.189,4.141c-1.59,2.07-3.18,4.131-4.76,6.181c-1.061,1.37-2.109,2.74-3.16,4.101      c-1.05,1.359-2.09,2.722-3.13,4.069c-1.561,2.021-3.11,4.03-4.641,6.021c-1.029,1.318-2.04,2.64-3.05,3.948      c-1.012,1.312-2.012,2.602-3,3.892c-0.99,1.29-1.979,2.568-2.95,3.83c-1.102,1.42-2.182,2.83-3.25,4.22      c-1.069,1.391-2.13,2.761-3.17,4.11c-2.09,2.698-4.109,5.318-6.062,7.851c-0.489,0.63-0.971,1.26-1.45,1.88      c-3.358,4.359-6.488,8.409-9.318,12.09c-0.45,0.58-0.899,1.16-1.33,1.722c-0.88,1.13-1.72,2.22-2.521,3.271      c-0.408,0.521-0.8,1.039-1.188,1.539c-2.229,2.891-4.189,5.431-5.83,7.551c-3.609,4.67-5.659,7.33-5.659,7.33s0,0-0.011,0.01      c-0.01,0.012-0.021,0.021-0.04,0.04c-1.409,1.062-32.869,24.602-56.102,14.46c-23.778-10.358-192.148-78.938-198.789-76.79      c-6.648,2.142-190.79-16.108-302.359-8.229L43.45,419c0,0-6.761-0.739-14.79-4.63c-0.62-0.3-1.24-0.62-1.87-0.96      c-3.78-2.021-7.74-4.75-11.34-8.43c-0.601-0.61-1.19-1.25-1.771-1.922c-0.58-0.67-1.14-1.358-1.689-2.078      c-2.761-3.61-5.131-7.933-6.811-13.103c-0.17-0.521-0.33-1.04-0.49-1.569c-0.319-1.068-0.6-2.181-0.85-3.328      c-0.22-1-0.42-2.021-0.58-3.07c-0.81-5.09-1.02-10.84-0.45-17.32L60.45,213.48l9.68,3.95c0,0,13.55-34.42,17.7-75.061      l8.29-111.99c0,0,7.47-19.76,30.689-28.34c0,0,193,39.54,197.69,32.08c0,0,312.859,14.93,317.84,15.34      c2.909,0.25,56.521,6.801,124.529,29.65c1.811,0.61,3.631,1.229,5.46,1.87c2.75,0.939,5.521,1.92,8.32,2.92      c2.79,1,5.59,2.03,8.42,3.09c0.938,0.35,1.891,0.71,2.84,1.07c1.891,0.72,3.79,1.45,5.688,2.189c0.961,0.37,1.91,0.75,2.87,1.12      c1.91,0.76,3.83,1.53,5.75,2.311c8.649,3.51,17.42,7.279,26.229,11.34c2.931,1.35,5.88,2.729,8.819,4.149      c1.961,0.94,3.931,1.891,5.891,2.87c4.92,2.431,9.83,4.95,14.74,7.55c2.46,1.301,4.908,2.631,7.358,3.98      c17.149,9.46,34.149,20.06,50.539,31.93c4.83,3.5,9.511,6.86,14.051,10.08c3.632,2.58,7.171,5.08,10.62,7.5      c2.59,1.811,5.13,3.58,7.619,5.3c1.65,1.15,3.29,2.28,4.91,3.391c1.62,1.12,3.21,2.21,4.79,3.28      c1.57,1.069,3.13,2.13,4.66,3.159c1.529,1.04,3.04,2.061,4.54,3.061c2.229,1.5,4.43,2.96,6.568,4.38      c0.722,0.47,1.432,0.939,2.142,1.41c2.119,1.399,4.188,2.76,6.22,4.08c0.681,0.439,1.351,0.87,2.021,1.31      c12.67,8.23,23.631,15.01,33.141,20.73c3.5,2.109,6.811,4.069,9.938,5.909c0.439,0.261,0.892,0.521,1.33,0.78      c1.312,0.771,2.601,1.521,3.851,2.25c1.25,0.73,2.471,1.431,3.66,2.12c0.801,0.46,1.58,0.91,2.34,1.35      c0.381,0.221,0.761,0.44,1.141,0.66c0.729,0.42,1.439,0.83,2.15,1.24c1.409,0.811,2.77,1.6,4.09,2.35      c2.63,1.511,5.069,2.931,7.35,4.271c1.142,0.67,2.24,1.32,3.302,1.95c8.46,5.069,14.408,9.13,19.061,13.819      c0.29,0.29,0.58,0.591,0.859,0.892c0.351,0.369,0.688,0.75,1.029,1.131c1,1.148,1.949,2.34,2.852,3.608      c0.59,0.819,1.14,1.642,1.648,2.449c0.521,0.82,1.011,1.631,1.471,2.44c0.898,1.6,1.688,3.18,2.358,4.729v0.012      c0.36,0.84,0.689,1.681,1,2.51c0.301,0.83,0.57,1.649,0.812,2.471c0.239,0.811,0.449,1.609,0.641,2.398c0,0,0,0,0,0.012      c0.12,0.521,0.229,1.039,0.33,1.56c0.1,0.521,0.189,1.03,0.271,1.552C1092.63,286.141,1092.699,286.641,1092.76,287.141z       M975.021,370.02L1040.13,268l-29.729-18.96l-13.37-8.52l-13.341-8.51l-12.979-8.28l-78.229-49.88      c-10.109-6.681-19.079-12.46-27.021-17.45c-12.461-7.85-22.391-13.771-30.311-18.25c-27.17-15.36-30.592-13.65-30.592-13.65      c-17.76-12.479-63.318-24.819-98.539-33c-0.801-0.18-1.591-0.37-2.381-0.55c-7.891-1.81-15.21-3.41-21.5-4.74      c-0.63-0.13-1.238-0.26-1.85-0.39c-0.311-0.06-0.61-0.12-0.91-0.19c-0.891-0.189-1.761-0.369-2.609-0.54      c-1.971-0.409-3.801-0.779-5.471-1.119c-0.479-0.091-0.938-0.181-1.391-0.28c-0.67-0.14-1.319-0.271-1.93-0.39      c-0.312-0.061-0.61-0.12-0.9-0.171c-0.289-0.06-0.569-0.109-0.84-0.17c-0.55-0.109-1.069-0.21-1.54-0.3      c-0.72-0.14-1.359-0.26-1.909-0.37c-0.83-0.16-1.471-0.279-1.9-0.359c-0.148-0.03-0.271-0.051-0.369-0.07      c-0.189-0.04-0.289-0.06-0.289-0.06c-0.012-0.061-0.04-0.11-0.092-0.171c-0.108-0.119-0.318-0.239-0.63-0.359      c-0.08-0.04-0.159-0.07-0.25-0.09c-0.261-0.091-0.58-0.19-0.938-0.28c-0.13-0.03-0.25-0.061-0.392-0.09      c-0.398-0.09-0.851-0.181-1.34-0.28c-1.33-0.25-2.99-0.5-4.938-0.75c-0.49-0.07-1-0.13-1.521-0.19      c-0.53-0.06-1.07-0.119-1.63-0.189c-1.681-0.19-3.5-0.38-5.471-0.57c-15.83-1.54-40.439-3.09-64.42-4.399      C541.949,72.44,506.78,71,506.78,71l-1.17-0.04l-35.12-1.08l-11.33-0.35l-26.21-0.811l-55.221-3.61l-71.13-4.63l-16.729-1.1      v-3.73h-0.011h-39.39h-0.01l0.01,25.71c-1.08,0.26-2.18,0.58-3.3,0.93c-0.38,0.12-0.75,0.24-1.13,0.37      c-0.5,0.16-1,0.34-1.511,0.521v0.01h-0.01c-1.52,0.55-3.08,1.17-4.649,1.86c-0.271,0.109-0.53,0.229-0.79,0.35      c-0.261,0.11-0.521,0.229-0.79,0.35v0.011c0,0,0,0-0.011,0c-0.529,0.239-1.06,0.489-1.59,0.739c-0.8,0.38-1.609,0.78-2.41,1.181      c0,0,0,0.01-0.01,0.01c-0.81,0.41-1.62,0.83-2.43,1.27c-2.18,1.16-4.37,2.41-6.57,3.721c-1.1,0.649-2.189,1.319-3.29,2.01      c-25.26,15.79-49.899,38.93-49.899,38.93c-70.92-0.41-43.551,65.53-43.551,65.53l-62.21,34.84l-24.79,63.14l-14.609,37.23      l154.64,0.188l251.01,0.313l18.42,0.02l19.5,0.021l107.84,0.13l127.521,0.159l8.342,3.5l25.97,10.898l112.92,47.393      c5.4,4.147,29.03,8.709,29.03,8.709c11.271,0.619,21.351,0.051,30.34-1.34c0.551-0.09,1.091-0.17,1.62-0.262      c1.62-0.27,3.188-0.568,4.729-0.89C959.111,394.8,975.021,370.02,975.021,370.02z"></path>
				<path fill="#FFFFFF" d="M1040.13,268l-65.109,102.02c0,0-15.909,24.779-56.221,33.182l-0.021-0.01c0.01,0,0.01,0,0.021,0      l-3.71-1.541l-1.16-0.489v-0.011l4.87-11c22.221-2.319,45.682-27.352,45.682-27.352l9.608-21.979l-28.159-11.62v0.01      l-6.779,14.86l-54.092-23.94l-54.271-24.021l-55.938-24.76L807.8,197.12l14.971,8.15v-0.01l15.188-31.511l0.16-0.29l0.04-0.069      l0.011-0.011l0.609,0.36l19.91-5.8l6.77-11.54c7.94,4.99,16.91,10.77,27.021,17.45l78.229,49.88l-16.63,23.29l12.729,8.31      l16.881-23.31l13.34,8.5l-16.12,23.359l12.99,8.853l16.5-23.69L1040.13,268z M1001.901,307.29l10.8-16.31l-29.011-12.512      l-41.789-18.021l8.858-22.01l-55.45-24.83l3.189-8.35l-53.909-22.11l-32.351,77.14l55.271,22.479l0.062,0.021l0.061,0.03      l55.41,24.47l41.439,17l20.568,8.44L1001.901,307.29z"></path>
				<polygon fill="#CFDAAF" points="1012.699,290.98 1001.901,307.29 976.3,296.109 983.69,278.47     "></polygon>
				<polygon fill="#CFDAAF" points="1010.401,249.04 993.901,272.73 980.909,263.88 997.031,240.52     "></polygon>
				<polygon fill="#CFDAAF" points="1001.901,307.29 985.05,332.73 964.481,324.29 976.3,296.109     "></polygon>
				<polygon fill="#FFFFFF" points="997.031,240.52 983.69,232.02 983.69,232.01     "></polygon>
				<polygon fill="#D2DFB2" points="983.69,232.01 983.69,232.02 970.71,223.73     "></polygon>
				<polygon fill="#CFDAAF" points="983.69,232.02 966.81,255.33 954.079,247.02 970.71,223.73     "></polygon>
				<polygon fill="#B4D5EC" points="983.69,278.47 976.3,296.109 964.481,324.29 923.039,307.29 941.901,260.45     "></polygon>
				<path fill="#CFDAAF" d="M974.09,340.82l-9.608,21.979c0,0-23.461,25.03-45.682,27.352l20.352-46.08l6.778-14.859L974.09,340.82z      "></path>
				<polygon fill="#FFFFFF" points="974.09,340.82 945.93,329.21 945.93,329.2     "></polygon>
				<polygon fill="#B4D5EC" points="950.76,238.44 941.901,260.45 923.039,307.29 867.63,282.82 868.64,283.23 895.31,213.61           "></polygon>
				<polygon fill="#B4D5EC" points="939.151,344.07 918.8,390.15 913.93,401.15 866.71,381.391 865.05,366.74 865.46,365.63       885.06,320.13     "></polygon>
				<path fill="#FFFFFF" d="M918.8,403.189c-0.011,0-0.011,0-0.021,0l-3.689-1.539L918.8,403.189z"></path>
				<path fill="#B4D5EC" d="M915.09,401.65l3.689,1.539c-1.54,0.319-3.102,0.619-4.71,0.898c-0.53,0.092-1.069,0.171-1.62,0.262      c-8.989,1.391-19.069,1.959-30.34,1.34c0,0-23.631-4.562-29.03-8.709l-112.92-47.4l6-14.92l-24.83-13.102l7.149-17.119      l27.279,12.17l6.989,3.121l5.25,9.129l32.91,14.931l9.391-1.38l-5.25,12.99h0.01l49.21,20.459l10.78-9.119l1.659,14.648v0.012      l47.221,19.75v0.01L915.09,401.65z"></path>
				<polygon fill="#B4D9F3" points="913.93,401.15 866.71,381.4 866.71,381.391     "></polygon>
				<polygon fill="#B4D5EC" points="898.5,205.26 895.31,213.61 868.64,283.23 867.63,282.82 867.571,282.79 867.51,282.77       812.24,260.29 844.59,183.15     "></polygon>
				<polygon fill="#B4D5EC" points="885.06,320.13 865.46,365.63 865.05,366.74 854.271,375.859 805.06,355.4 810.31,342.41       830.789,296.109     "></polygon>
				<path fill="#CFDAAF" d="M865.46,156.4l-6.771,11.54l-19.91,5.8l-0.609-0.36l-15.688-9.31l12.618-25.82l0.052-0.1      C843.071,142.63,853,148.551,865.46,156.4z"></path>
				<polygon fill="#CFDAAF" points="838.17,173.38 838.159,173.39 838.119,173.46 837.949,173.74 822.771,205.26 807.8,197.12       822.481,164.07     "></polygon>
				<path fill="#CFDAAF" d="M835.151,138.15l-0.052,0.1l-12.63,25.82c-5.398-2.64-8.51-4.15-10.229-4.98l-0.359-0.18l-0.45-0.22      l-0.108-0.05l-0.091-0.04l-0.171-0.09l-0.271-0.131l-17.899-8.97l11.67-24.91C804.56,124.5,807.981,122.79,835.151,138.15z"></path>
				<polygon fill="#B4D5EC" points="830.789,296.109 810.31,342.41 810.3,342.41 800.909,343.79 768,328.859 762.75,319.73       755.76,316.609 755.89,316.311 771.05,279.92 774.85,271.35     "></polygon>
				<path fill="#FFFFFF" d="M444.59,174.92c-46.99-38.1-98.061-38.46-134.971-30.81h-0.01v-0.01c-1.021,0.21-2.03,0.43-3.03,0.66      c-3,0.67-5.89,1.39-8.68,2.14h-0.01c-17.27,4.66-30.24,10.57-36.42,13.67c-0.27,0.14-0.53,0.27-0.78,0.39      c0,0,0,0.011-0.01,0.011c-0.12,0.06-0.24,0.119-0.36,0.18c-0.229,0.12-0.449,0.229-0.649,0.34c-0.101,0.05-0.2,0.1-0.3,0.15      c0,0,0,0.01-0.011,0.01c-0.29,0.149-0.54,0.29-0.77,0.41c-0.33,0.18-0.601,0.319-0.79,0.43c-0.061,0.04-0.11,0.07-0.16,0.09      c-0.09,0.05-0.15,0.08-0.17,0.101c-0.01,0-0.01,0-0.01,0v0.01l-4.771,12.02v38.57h-71.13h-36.91L72.07,254.5v42.63H41.54      l24.779-63.14l62.21-34.84l87.591-23.19h0.01c0.01-0.02,0.03-0.04,0.05-0.069c0.06-0.07,0.16-0.2,0.3-0.37      c0.01-0.021,0.04-0.05,0.061-0.08c0.18-0.21,0.399-0.47,0.67-0.79c0.09-0.12,0.2-0.25,0.319-0.38      c0.311-0.36,0.671-0.78,1.08-1.23c0.41-0.46,0.87-0.97,1.381-1.52c0.34-0.36,0.699-0.74,1.079-1.141      c0.19-0.199,0.391-0.409,0.591-0.619c0.199-0.21,0.42-0.421,0.63-0.631c9.569-9.739,29.88-27.18,58.25-34.369V111.24h8.64h0.01      h88.541h8.159c0,0,52.54,10.24,69.399,21.86c0,0,2.49-3.87,3.87-7.74V69.54v-0.01l11.33,0.35v33.36v36.95h108.12h41.19      c0,0,1.659,0.26,4.689,0.77c0.58,0.101,1.21,0.21,1.88,0.32c0.17,0.03,0.341,0.06,0.521,0.09c0.7,0.12,1.439,0.25,2.229,0.391      c0.351,0.061,0.7,0.119,1.061,0.189c1.82,0.32,3.852,0.69,6.07,1.09c0.88,0.16,1.8,0.33,2.75,0.511      c2.699,0.51,5.649,1.069,8.8,1.689c1.892,0.37,3.859,0.76,5.892,1.17c1.35,0.271,2.738,0.561,4.148,0.851      c11,2.26,23.71,5.06,37.17,8.38c1.5,0.37,3,0.739,4.51,1.12c0.762,0.189,1.521,0.38,2.28,0.579      c1.51,0.391,3.04,0.78,4.569,1.181h0.011c1.529,0.399,3.069,0.81,4.609,1.22c0,0,0,0,0.011,0c2.31,0.62,4.63,1.25,6.96,1.9h0.01      c10.11,2.81,20.34,5.88,30.33,9.21c1.729,0.569,3.46,1.16,5.17,1.76c2.08,0.72,4.149,1.45,6.21,2.18      c3.75,1.36,7.439,2.761,11.062,4.19c2.171,0.859,4.311,1.729,6.421,2.609c0,0,0.01,0,0.01,0.011c1.891,0.79,3.76,1.6,5.6,2.41      c0.422,0.189,0.842,0.38,1.262,0.56c0.931,0.42,1.851,0.84,2.761,1.27c3.55,1.641,6.97,3.33,10.239,5.051h0.011l15.2-31.801      c1.72,0.83,4.829,2.341,10.229,4.98h0.012L807.8,197.12l-32.95,74.229l-3.8,8.568l-55.029-24.59l-11.609,6.891v19.079      l14.931,7.19l-4.63,9.8l-10.301-4.601l-8.569-3.819v-24.89c-42.721,20.567-83.5,24.379-117.511,21.299      c-54.26-4.909-91.25-27.379-91.25-27.379c-2.949-1.5-5.8-2.951-8.569-4.353c-10.46-5.279-19.58-9.75-27.521-13.52v57.26h-18.42      v-3.439v-9.13v-53.19L404,213.61l-123.46-0.271v-1.3l124.56-1.66h0.011l12.851-13.27l2.59,2.04l13.17,10.399l23.63-23.22h0.011      v-0.01c-0.53-0.521-1.051-1.03-1.58-1.53C452.079,181.25,448.34,177.96,444.59,174.92z M748.1,212.46l-5.398-13.31l3.46-12.12      l-22.12-10.24l-220.229-1.88l-33.32,37.021l34.149,23.75c0,0,71.341,29.859,165.479,3.319l14.2,8.96l1.568,0.99      C731.09,227.801,748.1,212.46,748.1,212.46z"></path>
				<polygon fill="#FFFFFF" points="812.24,159.09 797.039,190.89 797.031,190.89     "></polygon>
				<path fill="#B4D5EC" d="M810.789,158.38l0.271,0.131l0.172,0.09l0.09,0.04l0.108,0.05l0.45,0.22l0.359,0.18l-15.21,31.801      c-3.271-1.721-6.689-3.41-10.24-5.051c-0.909-0.43-1.83-0.85-2.76-1.27c-0.42-0.18-0.84-0.37-1.262-0.56      c-1.84-0.811-3.71-1.62-5.6-2.41c0-0.011-0.011-0.011-0.011-0.011c-2.109-0.88-4.25-1.76-6.42-2.609      c-3.62-1.43-7.312-2.83-11.062-4.19c-2.051-0.739-4.12-1.47-6.21-2.18c-1.71-0.6-3.438-1.19-5.17-1.76      c-9.99-3.33-20.221-6.4-30.33-9.21h-0.011c-2.33-0.65-4.649-1.28-6.96-1.9c-0.01,0-0.01,0-0.01,0      c-1.54-0.42-3.08-0.82-4.61-1.22h-0.01c-1.53-0.4-3.062-0.8-4.57-1.181c-0.76-0.199-1.52-0.39-2.279-0.579      c-1.51-0.381-3.01-0.761-4.51-1.12c-13.461-3.32-26.171-6.12-37.171-8.38l0.021-0.101l10.12-63.85      c0.607,0.12,1.26,0.25,1.93,0.38c0.45,0.1,0.91,0.189,1.391,0.28c1.67,0.34,3.5,0.71,5.47,1.119      c0.852,0.181,1.722,0.36,2.609,0.54c0.301,0.07,0.602,0.131,0.91,0.19c0.61,0.13,1.22,0.26,1.851,0.39      c6.289,1.33,13.609,2.931,21.5,4.74c0.789,0.18,1.58,0.37,2.38,0.55c35.222,8.181,80.779,20.521,98.54,33l-11.67,24.91      L810.789,158.38z"></path>
				<path fill="#B4D9F3" d="M770.74,178.98c2.17,0.85,4.311,1.729,6.42,2.609C775.05,180.71,772.909,179.84,770.74,178.98z"></path>
				<polygon fill="#B4D5EC" points="771.05,279.92 755.89,316.311 755.76,316.609 728.481,304.43 714.71,298.29 719.34,288.49       704.409,281.3 704.409,262.22 716.021,255.33     "></polygon>
				<path fill="#B4D9F3" d="M759.68,174.79c-2.061-0.729-4.13-1.46-6.21-2.18C755.56,173.32,757.63,174.051,759.68,174.79z"></path>
				<polygon fill="#B4D9F3" points="755.76,316.609 728.481,304.439 728.481,304.43     "></polygon>
				<path fill="#CFDAAF" d="M742.699,199.15l5.398,13.31c0,0-17.01,15.341-62.21,36.49l-1.568-0.99l23.13-44.21l-14.51-8.3h-0.012      L670.119,239c-94.141,26.54-165.479-3.319-165.479-3.319l-34.149-23.75l33.319-37.021l220.229,1.88l22.12,10.24L742.699,199.15z      "></path>
				<polygon fill="#CFDAAF" points="746.159,334.66 740.159,349.58 714.191,338.689 721.329,321.561     "></polygon>
				<polygon fill="#B4D9F3" points="728.481,304.43 728.481,304.439 714.71,298.29     "></polygon>
				<polygon fill="#CFDAAF" points="714.71,298.29 728.481,304.439 721.329,321.561 697.771,309.78 704.409,293.7 704.409,293.689           "></polygon>
				<path fill="#B4D5EC" d="M721.329,321.561l-7.14,17.131l-8.342-3.512l-127.521-0.148v-48.75      c34.011,3.08,74.79-0.729,117.511-21.301v24.891l8.569,3.82v0.01l-6.642,16.08L721.329,321.561z"></path>
				<path fill="#B4D9F3" d="M710.99,159.74c-1.54-0.41-3.08-0.82-4.609-1.22C707.909,158.92,709.449,159.32,710.99,159.74z"></path>
				<polygon fill="#CFDAAF" points="707.449,203.75 684.321,247.96 670.119,239 692.941,195.45     "></polygon>
				<path fill="#B4D9F3" d="M701.8,157.34c1.51,0.381,3.04,0.78,4.569,1.181C704.84,158.12,703.31,157.73,701.8,157.34z"></path>
				<path fill="#B4D9F3" d="M699.521,156.76c-1.511-0.381-3.011-0.75-4.511-1.12C696.51,156,698.01,156.38,699.521,156.76z"></path>
				<path fill="#B4D9F3" d="M676.771,85.09c0.851,0.171,1.721,0.351,2.609,0.54C678.49,85.45,677.619,85.27,676.771,85.09z"></path>
				<path fill="#B4D9F3" d="M667.981,83.301c0.608,0.119,1.26,0.25,1.93,0.39c-0.67-0.13-1.319-0.26-1.93-0.38V83.301z"></path>
				<path fill="#B4D9F3" d="M667.981,83.301v0.01c-0.312-0.061-0.61-0.12-0.9-0.181C667.369,83.18,667.67,83.24,667.981,83.301z"></path>
				<path fill="#B4D5EC" d="M667.981,83.31l-10.12,63.85l-0.021,0.101c-1.41-0.29-2.801-0.58-4.148-0.851      c-2.03-0.41-4-0.8-5.892-1.17c-3.148-0.62-6.101-1.18-8.8-1.689c-0.95-0.181-1.87-0.351-2.75-0.511      c-2.221-0.41-4.25-0.779-6.07-1.09c-0.358-0.07-0.71-0.13-1.061-0.189c-0.79-0.141-1.529-0.271-2.229-0.391      c-0.18-0.03-0.351-0.06-0.521-0.09c-0.67-0.12-1.3-0.22-1.88-0.32c-3.03-0.51-4.689-0.77-4.689-0.77h-41.188V74.44v-0.01      c23.979,1.31,48.59,2.859,64.42,4.399l-3.319,28.48l15.76,1.46l4.762-26.96c0,0,0.101,0.02,0.288,0.05      c0.102,0.02,0.222,0.04,0.37,0.07c0.432,0.09,1.07,0.21,1.9,0.359c0.55,0.11,1.189,0.23,1.909,0.37      c0.471,0.101,0.99,0.2,1.54,0.3c0.271,0.061,0.55,0.11,0.841,0.17C667.37,83.19,667.67,83.25,667.981,83.31z"></path>
				<path fill="#B4D9F3" d="M664.699,82.66c0.471,0.09,0.99,0.19,1.54,0.3C665.691,82.86,665.17,82.76,664.699,82.66z"></path>
				<path fill="#B4D9F3" d="M660.89,81.93c0.432,0.08,1.07,0.199,1.899,0.359C661.96,82.14,661.321,82.02,660.89,81.93z"></path>
				<path fill="#B4D9F3" d="M660.231,81.801c0,0,0.1,0.02,0.289,0.06c-0.189-0.03-0.289-0.05-0.289-0.05V81.801z"></path>
				<path fill="#CFDAAF" d="M660.231,81.801v0.01l-4.762,26.96l-15.76-1.46l3.319-28.48c1.97,0.19,3.79,0.38,5.47,0.57      c0.561,0.07,1.101,0.13,1.631,0.189c0.521,0.07,1.029,0.131,1.521,0.19c1.948,0.25,3.608,0.5,4.938,0.75      c0.489,0.1,0.939,0.19,1.34,0.28c0.142,0.029,0.262,0.06,0.392,0.09c0.358,0.09,0.681,0.189,0.938,0.28      c0.091,0.029,0.17,0.06,0.25,0.09c0.312,0.12,0.521,0.24,0.63,0.359C660.191,81.69,660.22,81.74,660.231,81.801z"></path>
				<path fill="#D2DFB2" d="M659.51,81.27c-0.08-0.03-0.16-0.061-0.25-0.09C659.35,81.2,659.43,81.23,659.51,81.27z"></path>
				<path fill="#D2DFB2" d="M650.13,79.59c0.521,0.061,1.029,0.12,1.521,0.19C651.159,79.72,650.651,79.66,650.13,79.59z"></path>
				<path fill="#B4D9F3" d="M630.18,141.95c1.82,0.311,3.852,0.68,6.07,1.09C634.031,142.64,632,142.27,630.18,141.95z"></path>
				<path fill="#B4D9F3" d="M624.49,140.96c0.58,0.101,1.21,0.2,1.88,0.32C625.699,141.17,625.071,141.06,624.49,140.96z"></path>
				<path fill="#B4D5EC" d="M578.611,74.44v65.75H470.49v-36.95h35.12V70.96l1.17,0.04c0,0,35.17,1.44,71.831,3.431V74.44z"></path>
				<path fill="#B4D5EC" d="M578.329,286.28v48.749L470.49,334.9l-19.5-0.021v-0.34v-36.25v-57.26      c7.939,3.771,17.061,8.24,27.521,13.521c2.771,1.399,5.62,2.851,8.569,4.351C487.079,258.9,524.07,281.37,578.329,286.28z"></path>
				<polygon fill="#CFDAAF" points="505.61,70.96 505.61,103.24 470.49,103.24 470.49,69.88     "></polygon>
				<path fill="#B4D5EC" d="M385.89,111.24h-8.16V65.12l55.221,3.61l26.21,0.8v0.01v55.82c-1.38,3.87-3.869,7.74-3.869,7.74      C438.43,121.48,385.89,111.24,385.89,111.24z"></path>
				<polygon fill="#B4D9F3" points="459.159,69.53 432.949,68.73 377.729,65.12 432.949,68.72     "></polygon>
				<path fill="#CFDAAF" d="M457.35,186.33l-23.63,23.221l-13.17-10.4l24.04-24.23c3.75,3.04,7.489,6.33,11.189,9.87      C456.3,185.301,456.829,185.81,457.35,186.33z"></path>
				<polygon fill="#CFDAAF" points="450.99,334.54 450.99,334.88 432.57,334.859 432.57,334.85 432.57,298.29 450.99,298.29     "></polygon>
				<path fill="#CFDAAF" d="M444.59,174.92l-24.04,24.23l-2.59-2.04l-12.86,13.27l-124.56,1.66l-23.08-49.35c0,0,0,0,0.01-0.01      c0.021-0.011,0.08-0.04,0.17-0.101c0.05-0.02,0.101-0.05,0.16-0.09c0.19-0.1,0.46-0.25,0.79-0.43      c0.229-0.12,0.479-0.26,0.77-0.41c0.011,0,0.011-0.01,0.011-0.01c0.1-0.051,0.199-0.101,0.3-0.15c0.21-0.1,0.42-0.22,0.649-0.34      c0.12-0.06,0.24-0.12,0.36-0.18c0.01,0,0.01-0.011,0.01-0.011c0.25-0.119,0.511-0.25,0.78-0.39c6.18-3.1,19.15-9.01,36.42-13.67      v0.01l11,48.54l12.439-4.149l-11.71-47.19C346.53,136.46,397.6,136.82,444.59,174.92z"></path>
				<polygon fill="#B4D9F3" points="432.949,68.72 377.729,65.12 377.729,65.11     "></polygon>
				<polygon fill="#B4D5EC" points="432.57,334.85 432.57,334.859 181.56,334.55 181.56,334.54 181.56,230.79 181.56,213.28       252.69,213.28 280.54,213.34 404,213.61 432.57,232.53 432.57,285.72 432.57,294.85 432.57,298.29     "></polygon>
				<polygon fill="#FACFAC" points="417.96,197.11 405.11,210.38 405.1,210.38     "></polygon>
				<polygon fill="#B4D5EC" points="377.729,65.12 377.729,111.24 289.19,111.24 289.19,90.11 306.6,90.11 306.6,60.48     "></polygon>
				<polygon fill="#B4D9F3" points="377.729,65.11 377.729,65.12 306.6,60.48     "></polygon>
				<path fill="#CFDAAF" d="M309.61,144.11l11.72,47.19l-12.439,4.149l-10.99-48.54v-0.01c2.791-0.75,5.68-1.47,8.68-2.14      C307.579,144.54,308.59,144.32,309.61,144.11z"></path>
				<path fill="#D2DFB2" d="M309.61,144.1v0.01c-1.021,0.21-2.03,0.43-3.03,0.65C307.579,144.53,308.59,144.31,309.61,144.1z"></path>
				<polygon fill="#D2DFB2" points="297.9,146.91 308.89,195.45 297.89,146.91 297.89,146.9 297.9,146.9     "></polygon>
				<polygon fill="#CFDAAF" points="306.6,60.48 306.6,90.11 289.19,90.11 250.63,90.11 250.47,81.81 250.47,81.801 250.47,81.37       250.47,81.36 250.47,55.65 289.86,55.65 289.86,59.38 289.87,59.38 289.87,59.39     "></polygon>
				<polygon fill="#D2DFB2" points="306.6,60.48 289.87,59.39 289.87,59.38     "></polygon>
				<polygon fill="#CFDAAF" points="289.19,90.11 289.19,111.24 289.18,111.24 280.54,111.24 251.03,111.24 250.63,90.11     "></polygon>
				<polygon fill="#FFFFFF" points="280.54,212.04 280.54,213.34 252.69,213.28 252.69,174.71 257.46,162.69     "></polygon>
				<path fill="#B4D5EC" d="M280.54,111.24v23.521c-28.37,7.189-48.681,24.63-58.25,34.369c-0.21,0.21-0.431,0.421-0.63,0.631      c-0.2,0.21-0.4,0.42-0.591,0.619c-0.38,0.4-0.739,0.78-1.079,1.141c-0.511,0.55-0.971,1.06-1.381,1.52      c-0.409,0.45-0.77,0.87-1.08,1.23c-0.119,0.13-0.229,0.26-0.319,0.38c-0.28,0.32-0.5,0.58-0.67,0.79      c-0.021,0.03-0.051,0.06-0.061,0.08c-0.149,0.17-0.24,0.3-0.3,0.37c-0.02,0.029-0.04,0.05-0.05,0.069h-0.01l-87.591,23.19      c0,0-27.369-65.94,43.551-65.53c0,0,24.64-23.14,49.899-38.93c1.09-0.68,2.19-1.351,3.29-2.01c2.2-1.311,4.391-2.561,6.57-3.721      c0.82-0.439,1.62-0.859,2.43-1.27c0.01,0,0.01-0.01,0.01-0.01c0.811-0.4,1.61-0.801,2.41-1.181c0.53-0.25,1.061-0.5,1.59-0.739      c0.011,0,0.011,0,0.011,0c0.27-0.12,0.529-0.24,0.79-0.36c0.26-0.12,0.52-0.24,0.79-0.35c1.569-0.69,3.13-1.311,4.649-1.86h0.01      c0.511-0.19,1.011-0.36,1.511-0.53c0.38-0.13,0.75-0.25,1.13-0.37c1.109-0.35,2.21-0.66,3.29-0.92l0.01,0.431v0.01l0.16,8.3      l0.399,21.13H280.54z"></path>
				<path fill="#FACFAC" d="M260.32,161.15c-0.229,0.12-0.439,0.24-0.649,0.34C259.87,161.38,260.09,161.27,260.32,161.15z"></path>
				<path fill="#FACFAC" d="M258.59,162.06c0.229-0.12,0.479-0.26,0.77-0.41C259.07,161.801,258.82,161.94,258.59,162.06z"></path>
				<path fill="#FACFAC" d="M257.8,162.49c0.189-0.11,0.46-0.25,0.79-0.43C258.26,162.24,257.99,162.39,257.8,162.49z"></path>
				<path fill="#FACFAC" d="M257.47,162.68c0.02-0.021,0.08-0.051,0.17-0.101C257.55,162.64,257.49,162.67,257.47,162.68z"></path>
				<path fill="#FACFAC" d="M257.47,162.68c-0.01,0.01-0.01,0.01-0.01,0.01v-0.01C257.46,162.68,257.46,162.68,257.47,162.68z"></path>
				<polygon fill="#B4D9F3" points="250.47,81.37 250.47,81.801 250.46,81.37     "></polygon>
				<path fill="#B4D9F3" d="M250.47,81.36v0.01h-0.01c-1.08,0.26-2.181,0.57-3.29,0.92C248.29,81.94,249.39,81.62,250.47,81.36z"></path>
				<polygon fill="#D2DFB2" points="250.47,55.65 250.47,81.36 250.46,55.65     "></polygon>
				<path fill="#B4D9F3" d="M244.53,83.18c0.511-0.181,1.011-0.36,1.511-0.521c-0.5,0.17-1,0.34-1.511,0.53V83.18z"></path>
				<path fill="#B4D9F3" d="M239.08,85.4c-0.261,0.12-0.521,0.24-0.79,0.36v-0.01C238.56,85.63,238.82,85.51,239.08,85.4z"></path>
				<path fill="#B4D9F3" d="M236.69,86.5c-0.8,0.38-1.6,0.78-2.41,1.181C235.08,87.28,235.89,86.88,236.69,86.5z"></path>
				<path fill="#B4D9F3" d="M234.27,87.69c-0.81,0.41-1.609,0.83-2.43,1.27C232.65,88.52,233.46,88.1,234.27,87.69z"></path>
				<path fill="#B4D9F3" d="M225.27,92.68c-1.1,0.659-2.2,1.33-3.29,2.01C223.08,94,224.17,93.33,225.27,92.68z"></path>
				<path fill="#B4D9F3" d="M216.54,175.44c0.17-0.21,0.39-0.47,0.67-0.79C216.94,174.97,216.72,175.23,216.54,175.44z"></path>
				<path fill="#B4D9F3" d="M216.18,175.89c0.06-0.07,0.15-0.2,0.3-0.37C216.34,175.69,216.24,175.82,216.18,175.89z"></path>
				<path fill="#B4D5EC" d="M181.56,230.79v103.75l-154.64-0.181l14.62-37.229H72.07V254.5l72.58-41.22h36.91V230.79z       M144.79,278.26v-25.99h-38.16v25.99H144.79z"></path>
				<rect x="106.63" y="252.27" fill="#CFDAAF" width="38.16" height="25.99"></rect>
				<polygon fill="#FFFFFF" points="66.32,233.99 41.54,297.13 41.53,297.13     "></polygon>
			</g>
			<g>
				<path fill="none" stroke="#231815" stroke-miterlimit="10" d="M1087.151,270.4c0.908,1.6,1.688,3.18,2.358,4.729"></path>
				<path fill="none" stroke="#231815" stroke-miterlimit="10" d="M1081.18,261.9c1.021,1.147,1.96,2.34,2.859,3.608      c0.58,0.819,1.131,1.642,1.641,2.449"></path>
				<path fill="none" stroke="#231815" stroke-miterlimit="10" d="M1056.93,244.11c1.142,0.67,2.24,1.32,3.302,1.95"></path>
				<path fill="none" stroke="#231815" stroke-miterlimit="10" d="M1045.49,237.49c1.41,0.811,2.771,1.6,4.09,2.35"></path>
				<path fill="none" stroke="#231815" stroke-miterlimit="10" d="M1039.861,234.24c0.8,0.46,1.579,0.91,2.34,1.35"></path>
				<path fill="none" stroke="#231815" stroke-miterlimit="10" d="M1032.35,229.87c1.312,0.771,2.602,1.521,3.852,2.25"></path>
				<path fill="none" stroke="#231815" stroke-miterlimit="10" d="M987.94,202.45c12.671,8.23,23.631,15.01,33.141,20.73      c3.5,2.109,6.811,4.069,9.939,5.909"></path>
				<path fill="none" stroke="#231815" stroke-miterlimit="10" d="M979.699,197.06c2.12,1.399,4.188,2.76,6.221,4.08"></path>
				<path fill="none" stroke="#231815" stroke-miterlimit="10" d="M957,181.77c1.619,1.12,3.21,2.21,4.789,3.28      c1.57,1.069,3.131,2.13,4.66,3.159c1.529,1.04,3.04,2.061,4.54,3.061c2.229,1.5,4.431,2.96,6.568,4.38"></path>
				<path fill="none" stroke="#231815" stroke-miterlimit="10" d="M944.47,173.08c2.59,1.811,5.13,3.58,7.62,5.3"></path>
				<path fill="none" stroke="#231815" stroke-miterlimit="10" d="M869.26,123.57c17.149,9.46,34.149,20.06,50.54,31.93      c4.83,3.5,9.51,6.86,14.05,10.08"></path>
				<path fill="none" stroke="#231815" stroke-miterlimit="10" d="M847.159,112.04c4.92,2.431,9.83,4.95,14.74,7.55"></path>
				<path fill="none" stroke="#231815" stroke-miterlimit="10" d="M800.47,91.37c1.91,0.76,3.83,1.53,5.75,2.311"></path>
				<path fill="none" stroke="#231815" stroke-miterlimit="10" d="M3.26,379.91c-0.81-5.09-1.02-10.84-0.45-17.32L60.45,213.48"></path>
				<path fill="none" stroke="#231815" stroke-miterlimit="10" d="M5.18,387.88c-0.17-0.521-0.33-1.04-0.49-1.569"></path>
				<path fill="none" stroke="#231815" stroke-miterlimit="10" d="M955.619,482.591c-3.602,4.67-5.649,7.33-5.649,7.33s0,0-0.011,0"></path>
				<path fill="none" stroke="#231815" stroke-miterlimit="10" d="M965.159,470.23c-0.87,1.13-1.71,2.22-2.521,3.27"></path>
				<path fill="none" stroke="#231815" stroke-miterlimit="10" d="M975.81,456.421c-3.35,4.359-6.479,8.409-9.318,12.09"></path>
				<path fill="none" stroke="#231815" stroke-miterlimit="10" d="M989.74,438.36c-1.102,1.42-2.182,2.83-3.25,4.22      c-1.069,1.391-2.12,2.761-3.17,4.11"></path>
				<path fill="none" stroke="#231815" stroke-miterlimit="10" d="M995.69,430.64c-1,1.312-2,2.602-3,3.892"></path>
				<path fill="none" stroke="#231815" stroke-miterlimit="10" d="M1092.56,285.641c0.08,0.5,0.142,1,0.2,1.5"></path>
				<path fill="none" stroke="#231815" stroke-miterlimit="10" d="M1091.321,280.12c0.25,0.812,0.46,1.61,0.641,2.399"></path>
				<path fill="none" stroke="#231815" stroke-miterlimit="10" d="M1089.51,275.141c0.37,0.851,0.699,1.681,1,2.51"></path>
				<path fill="none" stroke="#231815" stroke-width="3" stroke-miterlimit="10" d="M60.45,213.48l9.68,3.95      c0,0,13.55-34.42,17.7-75.061l8.29-111.99c0,0,7.47-19.76,30.689-28.34c0,0,193,39.54,197.69,32.08      c0,0,312.859,14.931,317.84,15.34c2.909,0.25,56.521,6.801,124.529,29.65c1.811,0.61,3.631,1.229,5.46,1.87      c2.75,0.939,5.521,1.92,8.32,2.92c2.79,1,5.59,2.03,8.42,3.09c0.938,0.35,1.891,0.71,2.84,1.07      c1.891,0.72,3.79,1.45,5.688,2.189c0.961,0.37,1.91,0.75,2.87,1.12c1.91,0.76,3.83,1.521,5.75,2.311      c8.649,3.51,17.42,7.279,26.229,11.34c2.931,1.35,5.88,2.729,8.819,4.149c1.961,0.94,3.931,1.891,5.891,2.87      c4.92,2.42,9.83,4.94,14.74,7.55c2.46,1.301,4.908,2.631,7.358,3.98c17.149,9.45,34.149,20.05,50.539,31.92      c4.83,3.5,9.511,6.86,14.051,10.09c3.632,2.58,7.171,5.08,10.62,7.5c2.59,1.811,5.13,3.58,7.619,5.3      c1.65,1.15,3.29,2.28,4.91,3.391c1.62,1.109,3.21,2.2,4.79,3.28c1.57,1.069,3.13,2.13,4.66,3.159      c1.529,1.04,3.04,2.061,4.54,3.061c2.229,1.5,4.43,2.96,6.568,4.38c0.722,0.47,1.432,0.94,2.142,1.41      c2.119,1.399,4.188,2.75,6.22,4.08c0.681,0.439,1.351,0.87,2.021,1.31c12.67,8.22,23.631,15.01,33.141,20.73      c3.5,2.1,6.811,4.069,9.938,5.91c0.439,0.26,0.892,0.52,1.33,0.779c1.312,0.771,2.601,1.521,3.851,2.25      c1.25,0.73,2.471,1.431,3.66,2.12c0.801,0.46,1.58,0.91,2.34,1.351c0.381,0.22,0.761,0.439,1.141,0.659      c0.729,0.42,1.439,0.83,2.15,1.24c1.409,0.811,2.77,1.59,4.09,2.351c2.63,1.51,5.069,2.93,7.35,4.27      c1.142,0.66,2.24,1.31,3.302,1.95c8.46,5.069,14.408,9.13,19.061,13.819c0.29,0.29,0.58,0.591,0.859,0.892      c0.351,0.369,0.688,0.75,1.029,1.131c1,1.148,1.949,2.34,2.852,3.608c0.59,0.819,1.14,1.642,1.648,2.449      c0.521,0.82,1.011,1.631,1.471,2.44c0.898,1.6,1.688,3.18,2.358,4.729v0.012c0.36,0.84,0.689,1.68,1,2.51      c0.301,0.83,0.57,1.649,0.812,2.471c0.239,0.811,0.449,1.609,0.641,2.398c0,0,0,0,0,0.012c0.12,0.521,0.229,1.039,0.33,1.561      c0.1,0.521,0.189,1.029,0.271,1.551c0.069,0.5,0.142,1,0.199,1.5c1.29,11.479-2.87,20.17-4.989,23.449      c-1.659,2.569-36.108,47.398-70.148,91.59c-1.062,1.381-2.13,2.762-3.189,4.141c-1.591,2.07-3.181,4.131-4.761,6.181      c-1.061,1.37-2.109,2.74-3.16,4.101c-1.05,1.359-2.09,2.722-3.13,4.069c-1.56,2.021-3.109,4.03-4.64,6.021      c-1.03,1.318-2.04,2.64-3.051,3.948c-1.012,1.312-2.012,2.602-3,3.892c-0.989,1.29-1.979,2.568-2.949,3.83      c-1.103,1.42-2.182,2.83-3.25,4.22c-1.07,1.391-2.131,2.761-3.17,4.11c-2.091,2.698-4.11,5.318-6.063,7.851      c-0.489,0.63-0.97,1.26-1.449,1.88c-3.358,4.359-6.488,8.409-9.318,12.09c-0.45,0.58-0.9,1.16-1.33,1.722      c-0.881,1.13-1.721,2.22-2.521,3.271c-0.409,0.521-0.801,1.04-1.188,1.54c-2.229,2.89-4.19,5.43-5.83,7.55      c-3.61,4.67-5.66,7.33-5.66,7.33s0,0-0.01,0.01c-0.011,0.012-0.021,0.021-0.04,0.04c-1.41,1.062-32.87,24.602-56.102,14.46      c-23.778-10.358-192.148-78.938-198.79-76.79c-6.648,2.142-190.79-16.108-302.358-8.229L43.45,419c0,0-6.761-0.739-14.79-4.63      c-0.62-0.3-1.24-0.62-1.87-0.96c-3.78-2.021-7.74-4.75-11.34-8.43c-0.601-0.61-1.19-1.25-1.771-1.922      c-0.58-0.67-1.14-1.358-1.689-2.078c-2.761-3.61-5.131-7.933-6.811-13.103c-0.18-0.51-0.34-1.04-0.49-1.569      c-0.319-1.068-0.6-2.181-0.85-3.328c-0.22-1-0.42-2.021-0.58-3.07c-0.82-5.09-1.03-10.84-0.46-17.32L60.45,213.48z"></path>
				<path fill="none" stroke="#231815" stroke-miterlimit="10" d="M385.89,111.24c0,0,52.54,10.24,69.399,21.86      c0,0,2.49-3.87,3.87-7.74V69.54"></path>
				<line fill="none" stroke="#231815" stroke-miterlimit="10" x1="377.729" y1="111.24" x2="377.729" y2="65.12"></line>
				<polyline fill="none" stroke="#231815" stroke-miterlimit="10" points="289.19,111.24 289.19,90.11 306.6,90.11 306.6,60.48           "></polyline>
				<path fill="none" stroke="#231815" stroke-miterlimit="10" d="M128.53,199.15l87.591-23.19h0.01c0.01-0.02,0.03-0.04,0.05-0.069      c0.06-0.07,0.15-0.2,0.3-0.37c0.01-0.021,0.04-0.05,0.061-0.08c0.17-0.21,0.39-0.47,0.67-0.79c0.09-0.12,0.2-0.25,0.319-0.38      c0.311-0.36,0.671-0.78,1.08-1.23c0.41-0.46,0.87-0.97,1.381-1.52c0.34-0.36,0.699-0.74,1.079-1.141      c0.19-0.199,0.391-0.409,0.591-0.619c0.199-0.21,0.42-0.421,0.63-0.631c9.569-9.739,29.88-27.18,58.25-34.369V111.24"></path>
				<path fill="none" stroke="#231815" stroke-miterlimit="10" d="M660.231,81.801c-0.012-0.061-0.04-0.11-0.092-0.171      c-0.108-0.119-0.318-0.239-0.63-0.359c-0.08-0.03-0.16-0.061-0.25-0.09c-0.261-0.091-0.58-0.19-0.938-0.28      c-0.13-0.03-0.25-0.061-0.392-0.09c-0.398-0.09-0.851-0.181-1.34-0.28c-1.33-0.25-2.99-0.5-4.938-0.75      c-0.49-0.06-1-0.12-1.521-0.19c-0.53-0.06-1.07-0.119-1.63-0.189c-1.681-0.19-3.5-0.38-5.471-0.57      c-15.83-1.54-40.439-3.09-64.42-4.399C541.949,72.44,506.78,71,506.78,71l-1.17-0.04l-35.12-1.08l-11.33-0.35l-26.21-0.8      l-55.221-3.61l-71.13-4.64l-16.729-1.09v-0.01v-3.73h-0.011h-39.39v25.71v0.01v0.431"></path>
				<path fill="none" stroke="#231815" stroke-miterlimit="10" d="M250.47,81.801l-0.01-0.431c-1.08,0.26-2.181,0.57-3.29,0.92      c-0.38,0.12-0.75,0.24-1.13,0.37c-0.5,0.16-1,0.34-1.511,0.521v0.01h-0.01c-1.52,0.55-3.08,1.17-4.649,1.86      c-0.271,0.109-0.53,0.229-0.79,0.35c-0.261,0.11-0.521,0.229-0.79,0.35v0.011c0,0,0,0-0.01,0      c-0.53,0.239-1.061,0.489-1.591,0.739c-0.8,0.38-1.6,0.78-2.409,1.181c0,0,0,0.01-0.011,0.01c-0.81,0.41-1.609,0.83-2.43,1.27      c-2.18,1.16-4.37,2.41-6.57,3.721c-1.1,0.659-2.2,1.33-3.29,2.01c-25.26,15.79-49.899,38.93-49.899,38.93      c-70.92-0.41-43.55,65.53-43.55,65.53l-62.211,34.84l-24.789,63.14l-14.61,37.23l154.64,0.188l251.01,0.313l18.42,0.02      l19.5,0.021l107.841,0.13l127.521,0.159l8.341,3.5l25.97,10.898l112.921,47.393c5.399,4.147,29.029,8.709,29.029,8.709      c11.271,0.619,21.351,0.051,30.34-1.34c0.551-0.09,1.091-0.17,1.62-0.262c1.62-0.27,3.188-0.568,4.729-0.89      c40.312-8.4,56.221-33.181,56.221-33.181L1040.13,268l-29.729-18.96l-13.37-8.52l-13.341-8.5l-12.979-8.29l-78.229-49.88      c-10.109-6.681-19.079-12.46-27.021-17.45c-12.461-7.85-22.391-13.771-30.311-18.25c-27.17-15.36-30.592-13.65-30.592-13.65      c-17.76-12.479-63.318-24.819-98.539-33c-0.801-0.18-1.591-0.37-2.381-0.55c-7.891-1.81-15.21-3.41-21.5-4.74      c-0.63-0.13-1.238-0.26-1.85-0.39c-0.311-0.06-0.61-0.12-0.91-0.19c-0.891-0.18-1.761-0.359-2.609-0.54      c-1.971-0.409-3.801-0.779-5.471-1.119c-0.479-0.091-0.938-0.181-1.391-0.28c-0.67-0.13-1.319-0.26-1.93-0.38      c-0.312-0.061-0.61-0.12-0.9-0.181c-0.289-0.06-0.569-0.109-0.84-0.17c-0.55-0.1-1.069-0.199-1.54-0.3      c-0.72-0.14-1.359-0.26-1.909-0.37c-0.83-0.149-1.471-0.27-1.9-0.359c-0.148-0.03-0.271-0.051-0.369-0.07      c-0.189-0.03-0.289-0.05-0.289-0.05"></path>
				<line fill="none" stroke="#231815" stroke-miterlimit="10" x1="250.47" y1="81.801" x2="250.47" y2="81.81"></line>
				<polyline fill="none" stroke="#231815" stroke-miterlimit="10" points="386.65,111.24 385.89,111.24 377.729,111.24       289.19,111.24 289.18,111.24 280.54,111.24 251.03,111.24 250.63,90.11 250.47,81.81     "></polyline>
				<rect x="106.63" y="252.27" fill="none" stroke="#231815" stroke-miterlimit="10" width="38.16" height="25.99"></rect>
				<path fill="none" stroke="#231815" stroke-miterlimit="10" d="M457.36,186.33h-0.011c-0.521-0.52-1.05-1.029-1.569-1.54      c-3.7-3.54-7.439-6.83-11.189-9.87c-46.99-38.1-98.061-38.46-134.971-30.81h-0.01c-1.021,0.21-2.03,0.43-3.03,0.65      c-3,0.67-5.89,1.39-8.68,2.14h-0.01c-17.27,4.66-30.24,10.57-36.42,13.67c-0.27,0.14-0.53,0.27-0.78,0.39      c0,0,0,0.011-0.01,0.011c-0.12,0.06-0.24,0.119-0.36,0.18c-0.229,0.12-0.439,0.24-0.649,0.34c-0.101,0.05-0.2,0.1-0.3,0.15      c0,0,0,0.01-0.011,0.01c-0.29,0.149-0.54,0.29-0.77,0.41c-0.33,0.18-0.601,0.33-0.79,0.43c-0.061,0.04-0.11,0.07-0.16,0.09      c-0.09,0.061-0.15,0.09-0.17,0.101c-0.01,0.01-0.01,0.01-0.01,0.01l-4.771,12.02v38.57h-71.13h-36.91L72.07,254.5v42.63H41.54      H41.53"></path>
				<polyline fill="none" stroke="#231815" stroke-miterlimit="10" points="257.46,162.69 280.54,212.04 405.1,210.38       417.96,197.11 420.55,199.15 433.72,209.551 457.35,186.33     "></polyline>
				<polyline fill="none" stroke="#231815" stroke-miterlimit="10" points="420.55,199.15 444.59,174.92 444.6,174.91     "></polyline>
				<polyline fill="none" stroke="#231815" stroke-miterlimit="10" points="297.89,146.91 308.89,195.45 321.329,191.301       309.61,144.11 309.61,144.1     "></polyline>
				<polyline fill="none" stroke="#231815" stroke-miterlimit="10" points="181.56,213.28 181.56,230.79 181.56,334.54       181.56,334.55     "></polyline>
				<polyline fill="none" stroke="#231815" stroke-miterlimit="10" points="913.93,401.16 915.09,401.65 918.8,403.189     "></polyline>
				<path fill="none" stroke="#231815" stroke-miterlimit="10" d="M450.99,241.03c7.939,3.771,17.061,8.24,27.521,13.521      c2.771,1.399,5.62,2.852,8.569,4.352c0,0,36.99,22.47,91.25,27.38c34.011,3.079,74.79-0.729,117.511-21.3v24.89l8.569,3.819      l10.3,4.601l13.771,6.142l27.278,12.181l6.989,3.12l5.25,9.13l32.91,14.93l9.391-1.38h0.01l-5.25,12.99l49.21,20.459      l10.78-9.119l1.66,14.648l47.22,19.762"></path>
				<polyline fill="none" stroke="#231815" stroke-miterlimit="10" points="432.57,334.85 432.57,298.29 432.57,294.85       432.57,285.72 432.57,232.53 404,213.61 280.54,213.34 252.69,213.28     "></polyline>
				<line fill="none" stroke="#231815" stroke-miterlimit="10" x1="578.329" y1="286.28" x2="578.329" y2="335.029"></line>
				<polyline fill="none" stroke="#231815" stroke-miterlimit="10" points="714.71,298.3 714.71,298.29 719.34,288.49       704.409,281.3 704.409,262.22 716.021,255.33 771.05,279.92 755.89,316.311     "></polyline>
				<polyline fill="none" stroke="#231815" stroke-miterlimit="10" points="728.481,304.439 721.329,321.561 714.191,338.689           "></polyline>
				<polyline fill="none" stroke="#231815" stroke-miterlimit="10" points="704.409,293.7 697.771,309.78 721.329,321.561       746.159,334.66 740.159,349.58     "></polyline>
				<path fill="none" stroke="#231815" stroke-miterlimit="10" d="M684.321,247.96l1.568,0.99c45.2-21.149,62.21-36.49,62.21-36.49      l-5.398-13.31l3.46-12.12l-22.119-10.24l-220.229-1.88l-33.32,37.021l34.149,23.75c0,0,71.341,29.859,165.479,3.319      L684.321,247.96z"></path>
				<polyline fill="none" stroke="#231815" stroke-miterlimit="10" points="670.119,239 692.941,195.45 707.449,203.75       684.321,247.96     "></polyline>
				<polyline fill="none" stroke="#231815" stroke-miterlimit="10" points="810.789,158.38 792.89,149.41 804.56,124.5     "></polyline>
				<path fill="none" stroke="#231815" stroke-miterlimit="10" d="M717.97,161.64c10.109,2.81,20.34,5.88,30.33,9.21      c1.729,0.569,3.46,1.16,5.17,1.76c2.09,0.71,4.16,1.44,6.21,2.18c3.75,1.36,7.439,2.761,11.062,4.19      c2.17,0.85,4.311,1.729,6.42,2.609c0,0,0.011,0,0.011,0.011c1.89,0.79,3.76,1.6,5.6,2.41c0.422,0.189,0.842,0.38,1.262,0.56      c0.931,0.42,1.851,0.84,2.761,1.27c3.55,1.641,6.97,3.33,10.239,5.051l15.21-31.801"></path>
				<path fill="none" stroke="#231815" stroke-miterlimit="10" d="M470.49,69.88v33.36v36.95h108.12h41.19      c0,0,1.659,0.26,4.689,0.77c0.58,0.101,1.21,0.2,1.88,0.32c0.17,0.03,0.341,0.06,0.521,0.09c0.7,0.12,1.439,0.25,2.229,0.391      c0.351,0.061,0.7,0.119,1.061,0.189c1.82,0.311,3.852,0.68,6.07,1.09c0.88,0.16,1.8,0.33,2.75,0.511      c2.699,0.51,5.649,1.069,8.8,1.689c1.892,0.37,3.859,0.76,5.892,1.17c1.35,0.271,2.738,0.561,4.148,0.851      c11,2.26,23.71,5.06,37.17,8.38c1.5,0.359,3,0.739,4.51,1.12c0.762,0.189,1.521,0.38,2.28,0.579      c1.51,0.381,3.04,0.78,4.569,1.181h0.011c1.529,0.399,3.069,0.8,4.609,1.22c0,0,0,0,0.011,0c2.31,0.62,4.63,1.25,6.96,1.9"></path>
				<polyline fill="none" stroke="#231815" stroke-miterlimit="10" points="657.861,147.16 667.981,83.31 667.981,83.301     "></polyline>
				<line fill="none" stroke="#231815" stroke-miterlimit="10" x1="578.611" y1="140.19" x2="578.611" y2="74.44"></line>
				<polyline fill="none" stroke="#231815" stroke-miterlimit="10" points="643.031,78.83 639.71,107.31 655.47,108.77       660.231,81.81 660.231,81.801     "></polyline>
				<polyline fill="none" stroke="#231815" stroke-miterlimit="10" points="470.49,103.24 505.61,103.24 505.61,70.96     "></polyline>
				<polyline fill="none" stroke="#231815" stroke-miterlimit="10" points="771.05,279.92 774.85,271.35 807.8,197.12       822.481,164.07 838.17,173.38 838.781,173.74 858.691,167.94 865.46,156.4     "></polyline>
				<path fill="none" stroke="#231815" stroke-miterlimit="10" d="M812.24,159.09c1.72,0.83,4.83,2.341,10.229,4.98h0.011      l12.619-25.82l0.052-0.1"></path>
				<path fill="none" stroke="#231815" stroke-miterlimit="10" d="M812.24,159.09l-0.359-0.18l-0.45-0.22l-0.108-0.05l-0.09-0.04      l-0.172-0.09l-0.271-0.131c0,0-0.021-0.01-0.021,0c-0.229-0.109-0.318-0.159-0.318-0.159c-0.029-0.011-0.04-0.021-0.05-0.021      l-0.012-0.01"></path>
				<polyline fill="none" stroke="#231815" stroke-miterlimit="10" points="837.949,173.74 822.771,205.26 807.8,197.12     "></polyline>
				<polyline fill="none" stroke="#231815" stroke-miterlimit="10" points="774.85,271.35 830.789,296.109 885.06,320.13       939.151,344.07 918.8,390.15 913.93,401.15 913.93,401.16     "></polyline>
				<line fill="none" stroke="#231815" stroke-miterlimit="10" x1="810.31" y1="342.41" x2="830.789" y2="296.109"></line>
				<line fill="none" stroke="#231815" stroke-miterlimit="10" x1="865.46" y1="365.63" x2="885.06" y2="320.13"></line>
				<polyline fill="none" stroke="#231815" stroke-miterlimit="10" points="867.51,282.77 812.24,260.29 844.59,183.15       898.5,205.26 895.31,213.61 868.64,283.23 867.63,282.82     "></polyline>
				<polyline fill="none" stroke="#231815" stroke-miterlimit="10" points="895.31,213.61 950.76,238.44 941.901,260.45       923.039,307.29 867.63,282.82 867.571,282.79 867.51,282.77     "></polyline>
				<polyline fill="none" stroke="#231815" stroke-miterlimit="10" points="923.039,307.29 964.481,324.29 985.05,332.73       1001.901,307.29 1012.699,290.98 983.69,278.47 941.901,260.45     "></polyline>
				<polyline fill="none" stroke="#231815" stroke-miterlimit="10" points="983.69,278.47 976.3,296.109 964.481,324.29     "></polyline>
				<line fill="none" stroke="#231815" stroke-miterlimit="10" x1="976.3" y1="296.109" x2="1001.901" y2="307.29"></line>
				<polyline fill="none" stroke="#231815" stroke-miterlimit="10" points="970.71,223.73 954.079,247.02 966.81,255.33       983.69,232.02 983.69,232.01     "></polyline>
				<polyline fill="none" stroke="#231815" stroke-miterlimit="10" points="997.031,240.52 980.909,263.88 993.901,272.73       1010.401,249.04     "></polyline>
				<line fill="none" stroke="#231815" stroke-miterlimit="10" x1="939.151" y1="344.07" x2="945.93" y2="329.21"></line>
				<polyline fill="none" stroke="#231815" stroke-miterlimit="10" points="450.99,241.03 450.99,298.29 450.99,334.54     "></polyline>
				<line fill="none" stroke="#231815" stroke-miterlimit="10" x1="432.57" y1="298.29" x2="450.99" y2="298.29"></line>
				<line fill="none" stroke="#231815" stroke-miterlimit="10" x1="289.19" y1="90.11" x2="250.63" y2="90.11"></line>
			</g>
		</g>
	</g>
</g>
<text transform="matrix(1 0 0 1 814.6799 298.7695)" font-family="'AdobeSongStd-Light-GBpc-EUC-H'" font-size="48"></text>
<path fill='#0000FF' fill-opacity='0' stroke='#000000' stroke-width='0' tid='19485' ttype='餐饮美食' tcategory='其他' tisShop='1' d='M280.54,111.24v23.521c-28.37,7.189-48.681,24.63-58.25,34.369c-0.21,0.21-0.431,0.421-0.63,0.631 c-0.2,0.21-0.4,0.42-0.591,0.619c-0.38,0.4-0.739,0.78-1.079,1.141c-0.511,0.55-0.971,1.06-1.381,1.52 c-0.409,0.45-0.77,0.87-1.08,1.23c-0.119,0.13-0.229,0.26-0.319,0.38c-0.28,0.32-0.5,0.58-0.67,0.79 c-0.021,0.03-0.051,0.06-0.061,0.08c-0.149,0.17-0.24,0.3-0.3,0.37c-0.02,0.029-0.04,0.05-0.05,0.069h-0.01l-87.591,23.19 c0,0-27.369-65.94,43.551-65.53c0,0,24.64-23.14,49.899-38.93c1.09-0.68,2.19-1.351,3.29-2.01c2.2-1.311,4.391-2.561,6.57-3.721 c0.82-0.439,1.62-0.859,2.43-1.27c0.01,0,0.01-0.01,0.01-0.01c0.811-0.4,1.61-0.801,2.41-1.181c0.53-0.25,1.061-0.5,1.59-0.739 c0.011,0,0.011,0,0.011,0c0.27-0.12,0.529-0.24,0.79-0.36c0.26-0.12,0.52-0.24,0.79-0.35c1.569-0.69,3.13-1.311,4.649-1.86h0.01 c0.511-0.19,1.011-0.36,1.511-0.53c0.38-0.13,0.75-0.25,1.13-0.37c1.109-0.35,2.21-0.66,3.29-0.92l0.01,0.431v0.01l0.16,8.3 l0.399,21.13H280.54z'></path>
<text transform='matrix(1 0 0 1 196.0 141.0)' font-size='12' tid='19485'>颂</text>
<path fill='#0000FF' fill-opacity='0' stroke='#000000' stroke-width='0' tid='19486' ttype='餐饮美食' tcategory='其他' tisShop='1' d='M181.56,230.79v103.75l-154.64-0.181l14.62-37.229H72.07V254.5l72.58-41.22h36.91V230.79z M144.79,278.26v-25.99h-38.16v25.99H144.79z'></path>
<text transform='matrix(1 0 0 1 92.0 299.0)' font-size='12' tid='19486'>宴遇</text>
<rect fill='#0000FF' fill-opacity='0' stroke='#000000' stroke-width='0' tid='19487' ttype='公共设施' tcategory='楼梯' tisShop='0' x ='106.63' y='252.27' width='38.16' height='25.99'></rect>
<text transform='matrix(1 0 0 1 131.0 272.0)' font-size='12' tid='19487'>楼梯</text>
<polygon fill='#0000FF' fill-opacity='0' stroke='#000000' stroke-width='0' tid='19488' ttype='公共设施' tcategory='楼梯' tisShop='0' points='289.19,90.11 289.19,111.24 289.18,111.24 280.54,111.24 251.03,111.24 250.63,90.11 '></polygon>
<text transform='matrix(1 0 0 1 273.0 106.0)' font-size='12' tid='19488'>楼梯</text>
<polygon fill='#0000FF' fill-opacity='0' stroke='#000000' stroke-width='0' tid='19489' ttype='公共设施' tcategory='卫生间' tisShop='0' points='306.6,60.48 306.6,90.11 289.19,90.11 250.63,90.11 250.47,81.81 250.47,81.801 250.47,81.37 250.47,81.36 250.47,55.65 289.86,55.65 289.86,59.38 289.87,59.38 289.87,59.39 '></polygon>
<text transform='matrix(1 0 0 1 279.0 80.0)' font-size='12' tid='19489'>卫生间</text>
<polygon fill='#0000FF' fill-opacity='0' stroke='#000000' stroke-width='0' tid='19490' ttype='公共设施' tcategory='直升电梯' tisShop='0' points='505.61,70.96 505.61,103.24 470.49,103.24 470.49,69.88 '></polygon>
<text transform='matrix(1 0 0 1 491.0 93.0)' font-size='12' tid='19490'>电梯</text>
<path fill='#0000FF' fill-opacity='0' stroke='#000000' stroke-width='0' tid='19491' ttype='餐饮美食' tcategory='其他' tisShop='1' d='M578.611,74.44v65.75H470.49v-36.95h35.12V70.96l1.17,0.04c0,0,35.17,1.44,71.831,3.431V74.44z'></path>
<text transform='matrix(1 0 0 1 519.0 117.0)' font-size='12' tid='19491'>越城记</text>
<path fill='#0000FF' fill-opacity='0' stroke='#000000' stroke-width='0' tid='19492' ttype='公共设施' tcategory='楼梯' tisShop='0' d='M660.231,81.801v0.01l-4.762,26.96l-15.76-1.46l3.319-28.48c1.97,0.19,3.79,0.38,5.47,0.57 c0.561,0.07,1.101,0.13,1.631,0.189c0.521,0.07,1.029,0.131,1.521,0.19c1.948,0.25,3.608,0.5,4.938,0.75 c0.489,0.1,0.939,0.19,1.34,0.28c0.142,0.029,0.262,0.06,0.392,0.09c0.358,0.09,0.681,0.189,0.938,0.28 c0.091,0.029,0.17,0.06,0.25,0.09c0.312,0.12,0.521,0.24,0.63,0.359C660.191,81.69,660.22,81.74,660.231,81.801z'></path>
<text transform='matrix(1 0 0 1 653.0 102.0)' font-size='12' tid='19492'>楼梯</text>
<polygon fill='#0000FF' fill-opacity='0' stroke='#000000' stroke-width='0' tid='19493' ttype='公共设施' tcategory='扶梯' tisShop='0' points='707.449,203.75 684.321,247.96 670.119,239 692.941,195.45 '></polygon>
<text transform='matrix(1 0 0 1 686.0 230.0)' font-size='12' tid='19493'>扶梯</text>
<path fill='#0000FF' fill-opacity='0' stroke='#000000' stroke-width='0' tid='19494' ttype='公共设施' tcategory='扶梯' tisShop='0' d='M457.35,186.33l-23.63,23.221l-13.17-10.4l24.04-24.23c3.75,3.04,7.489,6.33,11.189,9.87 C456.3,185.301,456.829,185.81,457.35,186.33z'></path>
<text transform='matrix(1 0 0 1 443.0 200.0)' font-size='12' tid='19494'>扶梯</text>
<path fill='#0000FF' fill-opacity='0' stroke='#000000' stroke-width='0' tid='19495' ttype='公共设施' tcategory='扶梯' tisShop='0' d='M309.61,144.11l11.72,47.19l-12.439,4.149l-10.99-48.54v-0.01c2.791-0.75,5.68-1.47,8.68-2.14 C307.579,144.54,308.59,144.32,309.61,144.11z'></path>
<text transform='matrix(1 0 0 1 313.0 180.0)' font-size='12' tid='19495'>扶梯</text>
<polygon fill='#0000FF' fill-opacity='0' stroke='#000000' stroke-width='0' tid='19496' ttype='公共设施' tcategory='楼梯' tisShop='0' points='450.99,334.54 450.99,334.88 432.57,334.859 432.57,334.85 432.57,298.29 450.99,298.29 '></polygon>
<text transform='matrix(1 0 0 1 445.0 323.0)' font-size='12' tid='19496'>楼梯</text>
<polygon fill='#0000FF' fill-opacity='0' stroke='#000000' stroke-width='0' tid='19497' ttype='公共设施' tcategory='楼梯' tisShop='0' points='714.71,298.29 728.481,304.439 721.329,321.561 697.771,309.78 704.409,293.7 704.409,293.689 '></polygon>
<text transform='matrix(1 0 0 1 720.0 312.0)' font-size='12' tid='19497'>楼梯</text>
<polygon fill='#0000FF' fill-opacity='0' stroke='#000000' stroke-width='0' tid='19498' ttype='公共设施' tcategory='楼梯' tisShop='0' points='746.159,334.66 740.159,349.58 714.191,338.689 721.329,321.561 '></polygon>
<text transform='matrix(1 0 0 1 736.0 341.0)' font-size='12' tid='19498'>楼梯</text>
<path fill='#0000FF' fill-opacity='0' stroke='#000000' stroke-width='0' tid='19499' ttype='餐饮美食' tcategory='其他' tisShop='1' d='M810.789,158.38l0.271,0.131l0.172,0.09l0.09,0.04l0.108,0.05l0.45,0.22l0.359,0.18l-15.21,31.801 c-3.271-1.721-6.689-3.41-10.24-5.051c-0.909-0.43-1.83-0.85-2.76-1.27c-0.42-0.18-0.84-0.37-1.262-0.56 c-1.84-0.811-3.71-1.62-5.6-2.41c0-0.011-0.011-0.011-0.011-0.011c-2.109-0.88-4.25-1.76-6.42-2.609 c-3.62-1.43-7.312-2.83-11.062-4.19c-2.051-0.739-4.12-1.47-6.21-2.18c-1.71-0.6-3.438-1.19-5.17-1.76 c-9.99-3.33-20.221-6.4-30.33-9.21h-0.011c-2.33-0.65-4.649-1.28-6.96-1.9c-0.01,0-0.01,0-0.01,0 c-1.54-0.42-3.08-0.82-4.61-1.22h-0.01c-1.53-0.4-3.062-0.8-4.57-1.181c-0.76-0.199-1.52-0.39-2.279-0.579 c-1.51-0.381-3.01-0.761-4.51-1.12c-13.461-3.32-26.171-6.12-37.171-8.38l0.021-0.101l10.12-63.85 c0.607,0.12,1.26,0.25,1.93,0.38c0.45,0.1,0.91,0.189,1.391,0.28c1.67,0.34,3.5,0.71,5.47,1.119 c0.852,0.181,1.722,0.36,2.609,0.54c0.301,0.07,0.602,0.131,0.91,0.19c0.61,0.13,1.22,0.26,1.851,0.39 c6.289,1.33,13.609,2.931,21.5,4.74c0.789,0.18,1.58,0.37,2.38,0.55c35.222,8.181,80.779,20.521,98.54,33l-11.67,24.91 L810.789,158.38z'></path>
<text transform='matrix(1 0 0 1 685.0 123.0)' font-size='12' tid='19499'>那一家</text>
<path fill='#0000FF' fill-opacity='0' stroke='#000000' stroke-width='0' tid='19500' ttype='shop' tcategory='走道' tisShop='0' d='M444.59,174.92c-46.99-38.1-98.061-38.46-134.971-30.81h-0.01v-0.01c-1.021,0.21-2.03,0.43-3.03,0.66 c-3,0.67-5.89,1.39-8.68,2.14h-0.01c-17.27,4.66-30.24,10.57-36.42,13.67c-0.27,0.14-0.53,0.27-0.78,0.39 c0,0,0,0.011-0.01,0.011c-0.12,0.06-0.24,0.119-0.36,0.18c-0.229,0.12-0.449,0.229-0.649,0.34c-0.101,0.05-0.2,0.1-0.3,0.15 c0,0,0,0.01-0.011,0.01c-0.29,0.149-0.54,0.29-0.77,0.41c-0.33,0.18-0.601,0.319-0.79,0.43c-0.061,0.04-0.11,0.07-0.16,0.09 c-0.09,0.05-0.15,0.08-0.17,0.101c-0.01,0-0.01,0-0.01,0v0.01l-4.771,12.02v38.57h-71.13h-36.91L72.07,254.5v42.63H41.54 l24.779-63.14l62.21-34.84l87.591-23.19h0.01c0.01-0.02,0.03-0.04,0.05-0.069c0.06-0.07,0.16-0.2,0.3-0.37 c0.01-0.021,0.04-0.05,0.061-0.08c0.18-0.21,0.399-0.47,0.67-0.79c0.09-0.12,0.2-0.25,0.319-0.38 c0.311-0.36,0.671-0.78,1.08-1.23c0.41-0.46,0.87-0.97,1.381-1.52c0.34-0.36,0.699-0.74,1.079-1.141 c0.19-0.199,0.391-0.409,0.591-0.619c0.199-0.21,0.42-0.421,0.63-0.631c9.569-9.739,29.88-27.18,58.25-34.369V111.24h8.64h0.01 h88.541h8.159c0,0,52.54,10.24,69.399,21.86c0,0,2.49-3.87,3.87-7.74V69.54v-0.01l11.33,0.35v33.36v36.95h108.12h41.19 c0,0,1.659,0.26,4.689,0.77c0.58,0.101,1.21,0.21,1.88,0.32c0.17,0.03,0.341,0.06,0.521,0.09c0.7,0.12,1.439,0.25,2.229,0.391 c0.351,0.061,0.7,0.119,1.061,0.189c1.82,0.32,3.852,0.69,6.07,1.09c0.88,0.16,1.8,0.33,2.75,0.511 c2.699,0.51,5.649,1.069,8.8,1.689c1.892,0.37,3.859,0.76,5.892,1.17c1.35,0.271,2.738,0.561,4.148,0.851 c11,2.26,23.71,5.06,37.17,8.38c1.5,0.37,3,0.739,4.51,1.12c0.762,0.189,1.521,0.38,2.28,0.579 c1.51,0.391,3.04,0.78,4.569,1.181h0.011c1.529,0.399,3.069,0.81,4.609,1.22c0,0,0,0,0.011,0c2.31,0.62,4.63,1.25,6.96,1.9h0.01 c10.11,2.81,20.34,5.88,30.33,9.21c1.729,0.569,3.46,1.16,5.17,1.76c2.08,0.72,4.149,1.45,6.21,2.18 c3.75,1.36,7.439,2.761,11.062,4.19c2.171,0.859,4.311,1.729,6.421,2.609c0,0,0.01,0,0.01,0.011c1.891,0.79,3.76,1.6,5.6,2.41 c0.422,0.189,0.842,0.38,1.262,0.56c0.931,0.42,1.851,0.84,2.761,1.27c3.55,1.641,6.97,3.33,10.239,5.051h0.011l15.2-31.801 c1.72,0.83,4.829,2.341,10.229,4.98h0.012L807.8,197.12l-32.95,74.229l-3.8,8.568l-55.029-24.59l-11.609,6.891v19.079 l14.931,7.19l-4.63,9.8l-10.301-4.601l-8.569-3.819v-24.89c-42.721,20.567-83.5,24.379-117.511,21.299 c-54.26-4.909-91.25-27.379-91.25-27.379c-2.949-1.5-5.8-2.951-8.569-4.353c-10.46-5.279-19.58-9.75-27.521-13.52v57.26h-18.42 v-3.439v-9.13v-53.19L404,213.61l-123.46-0.271v-1.3l124.56-1.66h0.011l12.851-13.27l2.59,2.04l13.17,10.399l23.63-23.22h0.011 v-0.01c-0.53-0.521-1.051-1.03-1.58-1.53C452.079,181.25,448.34,177.96,444.59,174.92z M748.1,212.46l-5.398-13.31l3.46-12.12 l-22.12-10.24l-220.229-1.88l-33.32,37.021l34.149,23.75c0,0,71.341,29.859,165.479,3.319l14.2,8.96l1.568,0.99 C731.09,227.801,748.1,212.46,748.1,212.46z'></path>
<text transform='matrix(1 0 0 1 542.0 260.0)' font-size='12' tid='19500'>走道</text>
<path fill='#0000FF' fill-opacity='0' stroke='#000000' stroke-width='0' tid='19501' ttype='shop' tcategory='走道' tisShop='0' d='M1092.76,287.141c1.29,11.479-2.87,20.17-4.989,23.448c-1.659,2.57-36.109,47.4-70.149,91.591 c-1.062,1.381-2.13,2.762-3.189,4.141c-1.59,2.07-3.18,4.131-4.76,6.181c-1.061,1.37-2.109,2.74-3.16,4.101 c-1.05,1.359-2.09,2.722-3.13,4.069c-1.561,2.021-3.11,4.03-4.641,6.021c-1.029,1.318-2.04,2.64-3.05,3.948 c-1.012,1.312-2.012,2.602-3,3.892c-0.99,1.29-1.979,2.568-2.95,3.83c-1.102,1.42-2.182,2.83-3.25,4.22 c-1.069,1.391-2.13,2.761-3.17,4.11c-2.09,2.698-4.109,5.318-6.062,7.851c-0.489,0.63-0.971,1.26-1.45,1.88 c-3.358,4.359-6.488,8.409-9.318,12.09c-0.45,0.58-0.899,1.16-1.33,1.722c-0.88,1.13-1.72,2.22-2.521,3.271 c-0.408,0.521-0.8,1.039-1.188,1.539c-2.229,2.891-4.189,5.431-5.83,7.551c-3.609,4.67-5.659,7.33-5.659,7.33s0,0-0.011,0.01 c-0.01,0.012-0.021,0.021-0.04,0.04c-1.409,1.062-32.869,24.602-56.102,14.46c-23.778-10.358-192.148-78.938-198.789-76.79 c-6.648,2.142-190.79-16.108-302.359-8.229L43.45,419c0,0-6.761-0.739-14.79-4.63c-0.62-0.3-1.24-0.62-1.87-0.96 c-3.78-2.021-7.74-4.75-11.34-8.43c-0.601-0.61-1.19-1.25-1.771-1.922c-0.58-0.67-1.14-1.358-1.689-2.078 c-2.761-3.61-5.131-7.933-6.811-13.103c-0.17-0.521-0.33-1.04-0.49-1.569c-0.319-1.068-0.6-2.181-0.85-3.328 c-0.22-1-0.42-2.021-0.58-3.07c-0.81-5.09-1.02-10.84-0.45-17.32L60.45,213.48l9.68,3.95c0,0,13.55-34.42,17.7-75.061 l8.29-111.99c0,0,7.47-19.76,30.689-28.34c0,0,193,39.54,197.69,32.08c0,0,312.859,14.93,317.84,15.34 c2.909,0.25,56.521,6.801,124.529,29.65c1.811,0.61,3.631,1.229,5.46,1.87c2.75,0.939,5.521,1.92,8.32,2.92 c2.79,1,5.59,2.03,8.42,3.09c0.938,0.35,1.891,0.71,2.84,1.07c1.891,0.72,3.79,1.45,5.688,2.189c0.961,0.37,1.91,0.75,2.87,1.12 c1.91,0.76,3.83,1.53,5.75,2.311c8.649,3.51,17.42,7.279,26.229,11.34c2.931,1.35,5.88,2.729,8.819,4.149 c1.961,0.94,3.931,1.891,5.891,2.87c4.92,2.431,9.83,4.95,14.74,7.55c2.46,1.301,4.908,2.631,7.358,3.98 c17.149,9.46,34.149,20.06,50.539,31.93c4.83,3.5,9.511,6.86,14.051,10.08c3.632,2.58,7.171,5.08,10.62,7.5 c2.59,1.811,5.13,3.58,7.619,5.3c1.65,1.15,3.29,2.28,4.91,3.391c1.62,1.12,3.21,2.21,4.79,3.28 c1.57,1.069,3.13,2.13,4.66,3.159c1.529,1.04,3.04,2.061,4.54,3.061c2.229,1.5,4.43,2.96,6.568,4.38 c0.722,0.47,1.432,0.939,2.142,1.41c2.119,1.399,4.188,2.76,6.22,4.08c0.681,0.439,1.351,0.87,2.021,1.31 c12.67,8.23,23.631,15.01,33.141,20.73c3.5,2.109,6.811,4.069,9.938,5.909c0.439,0.261,0.892,0.521,1.33,0.78 c1.312,0.771,2.601,1.521,3.851,2.25c1.25,0.73,2.471,1.431,3.66,2.12c0.801,0.46,1.58,0.91,2.34,1.35 c0.381,0.221,0.761,0.44,1.141,0.66c0.729,0.42,1.439,0.83,2.15,1.24c1.409,0.811,2.77,1.6,4.09,2.35 c2.63,1.511,5.069,2.931,7.35,4.271c1.142,0.67,2.24,1.32,3.302,1.95c8.46,5.069,14.408,9.13,19.061,13.819 c0.29,0.29,0.58,0.591,0.859,0.892c0.351,0.369,0.688,0.75,1.029,1.131c1,1.148,1.949,2.34,2.852,3.608 c0.59,0.819,1.14,1.642,1.648,2.449c0.521,0.82,1.011,1.631,1.471,2.44c0.898,1.6,1.688,3.18,2.358,4.729v0.012 c0.36,0.84,0.689,1.681,1,2.51c0.301,0.83,0.57,1.649,0.812,2.471c0.239,0.811,0.449,1.609,0.641,2.398c0,0,0,0,0,0.012 c0.12,0.521,0.229,1.039,0.33,1.56c0.1,0.521,0.189,1.03,0.271,1.552C1092.63,286.141,1092.699,286.641,1092.76,287.141z M975.021,370.02L1040.13,268l-29.729-18.96l-13.37-8.52l-13.341-8.51l-12.979-8.28l-78.229-49.88 c-10.109-6.681-19.079-12.46-27.021-17.45c-12.461-7.85-22.391-13.771-30.311-18.25c-27.17-15.36-30.592-13.65-30.592-13.65 c-17.76-12.479-63.318-24.819-98.539-33c-0.801-0.18-1.591-0.37-2.381-0.55c-7.891-1.81-15.21-3.41-21.5-4.74 c-0.63-0.13-1.238-0.26-1.85-0.39c-0.311-0.06-0.61-0.12-0.91-0.19c-0.891-0.189-1.761-0.369-2.609-0.54 c-1.971-0.409-3.801-0.779-5.471-1.119c-0.479-0.091-0.938-0.181-1.391-0.28c-0.67-0.14-1.319-0.271-1.93-0.39 c-0.312-0.061-0.61-0.12-0.9-0.171c-0.289-0.06-0.569-0.109-0.84-0.17c-0.55-0.109-1.069-0.21-1.54-0.3 c-0.72-0.14-1.359-0.26-1.909-0.37c-0.83-0.16-1.471-0.279-1.9-0.359c-0.148-0.03-0.271-0.051-0.369-0.07 c-0.189-0.04-0.289-0.06-0.289-0.06c-0.012-0.061-0.04-0.11-0.092-0.171c-0.108-0.119-0.318-0.239-0.63-0.359 c-0.08-0.04-0.159-0.07-0.25-0.09c-0.261-0.091-0.58-0.19-0.938-0.28c-0.13-0.03-0.25-0.061-0.392-0.09 c-0.398-0.09-0.851-0.181-1.34-0.28c-1.33-0.25-2.99-0.5-4.938-0.75c-0.49-0.07-1-0.13-1.521-0.19 c-0.53-0.06-1.07-0.119-1.63-0.189c-1.681-0.19-3.5-0.38-5.471-0.57c-15.83-1.54-40.439-3.09-64.42-4.399 C541.949,72.44,506.78,71,506.78,71l-1.17-0.04l-35.12-1.08l-11.33-0.35l-26.21-0.811l-55.221-3.61l-71.13-4.63l-16.729-1.1 v-3.73h-0.011h-39.39h-0.01l0.01,25.71c-1.08,0.26-2.18,0.58-3.3,0.93c-0.38,0.12-0.75,0.24-1.13,0.37 c-0.5,0.16-1,0.34-1.511,0.521v0.01h-0.01c-1.52,0.55-3.08,1.17-4.649,1.86c-0.271,0.109-0.53,0.229-0.79,0.35 c-0.261,0.11-0.521,0.229-0.79,0.35v0.011c0,0,0,0-0.011,0c-0.529,0.239-1.06,0.489-1.59,0.739c-0.8,0.38-1.609,0.78-2.41,1.181 c0,0,0,0.01-0.01,0.01c-0.81,0.41-1.62,0.83-2.43,1.27c-2.18,1.16-4.37,2.41-6.57,3.721c-1.1,0.649-2.189,1.319-3.29,2.01 c-25.26,15.79-49.899,38.93-49.899,38.93c-70.92-0.41-43.551,65.53-43.551,65.53l-62.21,34.84l-24.79,63.14l-14.609,37.23 l154.64,0.188l251.01,0.313l18.42,0.02l19.5,0.021l107.84,0.13l127.521,0.159l8.342,3.5l25.97,10.898l112.92,47.393 c5.4,4.147,29.03,8.709,29.03,8.709c11.271,0.619,21.351,0.051,30.34-1.34c0.551-0.09,1.091-0.17,1.62-0.262 c1.62-0.27,3.188-0.568,4.729-0.89C959.111,394.8,975.021,370.02,975.021,370.02z'></path>
<text transform='matrix(1 0 0 1 487.0 373.0)' font-size='12' tid='19501'>走道</text>
<path fill='#0000FF' fill-opacity='0' stroke='#000000' stroke-width='0' tid='19502' ttype='shop' tcategory='走道' tisShop='1' d='M915.09,401.65l3.689,1.539c-1.54,0.319-3.102,0.619-4.71,0.898c-0.53,0.092-1.069,0.171-1.62,0.262 c-8.989,1.391-19.069,1.959-30.34,1.34c0,0-23.631-4.562-29.03-8.709l-112.92-47.4l6-14.92l-24.83-13.102l7.149-17.119 l27.279,12.17l6.989,3.121l5.25,9.129l32.91,14.931l9.391-1.38l-5.25,12.99h0.01l49.21,20.459l10.78-9.119l1.659,14.648v0.012 l47.221,19.75v0.01L915.09,401.65z'></path>
<text transform='matrix(1 0 0 1 757.0 355.0)' font-size='12' tid='19502'>绿化退台</text>
<path fill='#0000FF' fill-opacity='0' stroke='#000000' stroke-width='0' tid='19503' ttype='餐饮美食' tcategory='其他' tisShop='1' d='M721.329,321.561l-7.14,17.131l-8.342-3.512l-127.521-0.148v-48.75 c34.011,3.08,74.79-0.729,117.511-21.301v24.891l8.569,3.82v0.01l-6.642,16.08L721.329,321.561z'></path>
<text transform='matrix(1 0 0 1 601.0 319.0)' font-size='12' tid='19503'>老知青</text>
<path fill='#0000FF' fill-opacity='0' stroke='#000000' stroke-width='0' tid='19504' ttype='餐饮美食' tcategory='其他' tisShop='1' d='M578.329,286.28v48.749L470.49,334.9l-19.5-0.021v-0.34v-36.25v-57.26 c7.939,3.771,17.061,8.24,27.521,13.521c2.771,1.399,5.62,2.851,8.569,4.351C487.079,258.9,524.07,281.37,578.329,286.28z'></path>
<text transform='matrix(1 0 0 1 491.0 308.0)' font-size='12' tid='19504'>食汇堂</text>
<path fill='#0000FF' fill-opacity='0' stroke='#000000' stroke-width='0' tid='21794' ttype='其他' tcategory='其他' tisShop='0' d='M385.89,111.24h-8.16V65.12l55.221,3.61l26.21,0.8v0.01v55.82c-1.38,3.87-3.869,7.74-3.869,7.74 C438.43,121.48,385.89,111.24,385.89,111.24z'></path>
<text transform='matrix(1 0 0 1 413.0 98.0)' font-size='12' tid='21794'>未知</text>
<polygon fill='#0000FF' fill-opacity='0' stroke='#000000' stroke-width='0' tid='21795' ttype='其他' tcategory='其他' tisShop='0' points='377.729,65.12 377.729,111.24 289.19,111.24 289.19,90.11 306.6,90.11 306.6,60.48 '></polygon>
<text transform='matrix(1 0 0 1 328.0 93.0)' font-size='12' tid='21795'>未知</text>
<path fill='#0000FF' fill-opacity='0' stroke='#000000' stroke-width='0' tid='21796' ttype='其他' tcategory='其他' tisShop='0' d='M667.981,83.31l-10.12,63.85l-0.021,0.101c-1.41-0.29-2.801-0.58-4.148-0.851 c-2.03-0.41-4-0.8-5.892-1.17c-3.148-0.62-6.101-1.18-8.8-1.689c-0.95-0.181-1.87-0.351-2.75-0.511 c-2.221-0.41-4.25-0.779-6.07-1.09c-0.358-0.07-0.71-0.13-1.061-0.189c-0.79-0.141-1.529-0.271-2.229-0.391 c-0.18-0.03-0.351-0.06-0.521-0.09c-0.67-0.12-1.3-0.22-1.88-0.32c-3.03-0.51-4.689-0.77-4.689-0.77h-41.188V74.44v-0.01 c23.979,1.31,48.59,2.859,64.42,4.399l-3.319,28.48l15.76,1.46l4.762-26.96c0,0,0.101,0.02,0.288,0.05 c0.102,0.02,0.222,0.04,0.37,0.07c0.432,0.09,1.07,0.21,1.9,0.359c0.55,0.11,1.189,0.23,1.909,0.37 c0.471,0.101,0.99,0.2,1.54,0.3c0.271,0.061,0.55,0.11,0.841,0.17C667.37,83.19,667.67,83.25,667.981,83.31z'></path>
<text transform='matrix(1 0 0 1 596.0 123.0)' font-size='12' tid='21796'>未知</text>
<polygon fill='#0000FF' fill-opacity='0' stroke='#000000' stroke-width='0' tid='21797' ttype='其他' tcategory='其他' tisShop='0' points='771.05,279.92 755.89,316.311 755.76,316.609 728.481,304.43 714.71,298.29 719.34,288.49 704.409,281.3 704.409,262.22 716.021,255.33 '></polygon>
<text transform='matrix(1 0 0 1 725.0 285.0)' font-size='12' tid='21797'>未知</text>
<polygon fill='#0000FF' fill-opacity='0' stroke='#000000' stroke-width='0' tid='21798' ttype='公共设施' tcategory='直升电梯' tisShop='0' points='838.17,173.38 838.159,173.39 838.119,173.46 837.949,173.74 822.771,205.26 807.8,197.12 822.481,164.07 '></polygon>
<text transform='matrix(1 0 0 1 824.0 197.0)' font-size='12' tid='21798'>电梯</text>
<path fill='#0000FF' fill-opacity='0' stroke='#000000' stroke-width='0' tid='21799' ttype='公共设施' tcategory='楼梯' tisShop='0' d='M835.151,138.15l-0.052,0.1l-12.63,25.82c-5.398-2.64-8.51-4.15-10.229-4.98l-0.359-0.18l-0.45-0.22 l-0.108-0.05l-0.091-0.04l-0.171-0.09l-0.271-0.131l-17.899-8.97l11.67-24.91C804.56,124.5,807.981,122.79,835.151,138.15z'></path>
<text transform='matrix(1 0 0 1 819.0 152.0)' font-size='12' tid='21799'>楼梯</text>
<polygon fill='#0000FF' fill-opacity='0' stroke='#000000' stroke-width='0' tid='21800' ttype='其他' tcategory='其他' tisShop='0' points='432.57,334.85 432.57,334.859 181.56,334.55 181.56,334.54 181.56,230.79 181.56,213.28 252.69,213.28 280.54,213.34 404,213.61 432.57,232.53 432.57,285.72 432.57,294.85 432.57,298.29 '></polygon>
<text transform='matrix(1 0 0 1 286.0 274.0)' font-size='12' tid='21800'>未知</text>
<polygon fill='#0000FF' fill-opacity='0' stroke='#000000' stroke-width='0' tid='21801' ttype='其他' tcategory='其他' tisShop='0' points='280.54,212.04 280.54,213.34 252.69,213.28 252.69,174.71 257.46,162.69 '></polygon>
<text transform='matrix(1 0 0 1 264.0 205.0)' font-size='12' tid='21801'>走道</text>
<polygon fill='#0000FF' fill-opacity='0' stroke='#000000' stroke-width='0' tid='21824' ttype='其他' tcategory='其他' tisShop='0' points='830.789,296.109 810.31,342.41 810.3,342.41 800.909,343.79 768,328.859 762.75,319.73 755.76,316.609 755.89,316.311 771.05,279.92 774.85,271.35 '></polygon>
<text transform='matrix(1 0 0 1 787.0 315.0)' font-size='12' tid='21824'>未知</text>
<path fill='#0000FF' fill-opacity='0' stroke='#000000' stroke-width='0' tid='21825' ttype='其他' tcategory='其他' tisShop='0' d='M1040.13,268l-65.109,102.02c0,0-15.909,24.779-56.221,33.182l-0.021-0.01c0.01,0,0.01,0,0.021,0 l-3.71-1.541l-1.16-0.489v-0.011l4.87-11c22.221-2.319,45.682-27.352,45.682-27.352l9.608-21.979l-28.159-11.62v0.01 l-6.779,14.86l-54.092-23.94l-54.271-24.021l-55.938-24.76L807.8,197.12l14.971,8.15v-0.01l15.188-31.511l0.16-0.29l0.04-0.069 l0.011-0.011l0.609,0.36l19.91-5.8l6.77-11.54c7.94,4.99,16.91,10.77,27.021,17.45l78.229,49.88l-16.63,23.29l12.729,8.31 l16.881-23.31l13.34,8.5l-16.12,23.359l12.99,8.853l16.5-23.69L1040.13,268z M1001.901,307.29l10.8-16.31l-29.011-12.512 l-41.789-18.021l8.858-22.01l-55.45-24.83l3.189-8.35l-53.909-22.11l-32.351,77.14l55.271,22.479l0.062,0.021l0.061,0.03 l55.41,24.47l41.439,17l20.568,8.44L1001.901,307.29z'></path>
<text transform='matrix(1 0 0 1 800.0 242.0)' font-size='12' tid='21825'>走道</text>
<polygon fill='#0000FF' fill-opacity='0' stroke='#000000' stroke-width='0' tid='21826' ttype='其他' tcategory='其他' tisShop='0' points='898.5,205.26 895.31,213.61 868.64,283.23 867.63,282.82 867.571,282.79 867.51,282.77 812.24,260.29 844.59,183.15 '></polygon>
<text transform='matrix(1 0 0 1 845.0 242.0)' font-size='12' tid='21826'>未知</text>
</svg>
