<?xml version="1.0" encoding="utf-8"?>
<!DOCTYPE svg PUBLIC "-//W3C//DTD SVG 1.1//EN" "http://www.w3.org/Graphics/SVG/1.1/DTD/svg11.dtd">
<svg version="1.1" id="svg" x="0px" y="0px" width="1511" height="693" viewBox="0 0 1510.5 693" enable-background="new 0 0 1510.5 693" xml:space="preserve" regionID="9" building_id="4649" city_id="150" floor_id="5398" building_name="中华城" building_spelling="zhonghuacheng" floor_num="8" floor_nameEN="f4" floor_name="四楼" floor_type="服装" floor_width="288" floor_height="72" xmlns="http://www.w3.org/2000/svg" xmlns:xlink="http://www.w3.org/1999/xlink">
<g id="XMLID_1_">
	<g>
		<g id="XMLID_2_">
			<g>
				<path fill="#FFFFFF" d="M129.67,52.67c15.47-65.479,77.38-47.619,77.38-47.619l121.43,26.189l58.33,7.14l98.811,8.33      L854.67,65.76L974.899,83.62l140.479,44.05l120.24,65.471l245.239,164.29c51.189,32.141,15.471,77.38,15.471,77.38      l-184.52,234.52l-38.1,21.431h-57.14l-198.812-84.521L926.1,586L68.95,576.48c-85.71-10.721-61.9-88.101-61.9-88.101      l76.19-197.621l14.28,8.33l22.62-104.76L129.67,52.67z M886.5,107.52L797,102.71l-99-5.319l-50.979-2.74L632,93.84l-34-1.829      l-47.34-2.54L499,86.69l-76-4.08l-25.479-1.37V72.9H386h-40.86V111l-77.38,41.67l-4.07,4.771L248,175.86v0.01l-7.62,8.94      l-30.95-3.57c0,0-63.1,17.85-34.53,89.28L89.19,321.71l-24.42,64.11l-9.93,22.51l-20.41,51.48H248h350h37.5H698h49h24.479H797      h50.5H873h24h74.33l12.42,5.28l39.39,16.76l53.012,22.551l99.6,42.369l11.061,4.711l51.189,5.949l57.14-10.72l46.432-33.33      l46.33-72.141l37.31-58.08l10.41-16.21l-25.25-15.83l-88.689-55.62l-55.58-34.859l-71.71-44.971l-39.721-24.909l-3.899-1.73      l-38.96-17.32l-3.311-1.14l-141.93-48.86l-55.46-12.199l-4.061-0.891L886.5,107.52z"></path>
				<polygon fill="#CFDAAF" points="1435.62,366.95 1425.21,383.16 1400.76,366.48 1410.37,351.12     "></polygon>
				<polygon fill="#CFDAAF" points="1410.37,351.12 1400.76,366.48 1381.5,397.29 1301.79,344.81 1296,341 1293,338.18 1299,329.5       1321.68,295.5     "></polygon>
				<polygon fill="#B4D5EC" points="1387.901,441.24 1341.571,513.381 1295.14,546.711 1238,557.43 1186.81,551.48 1175.75,546.77       1207.5,472 1242.5,474.5 1273.5,459.81 1293,434.5 1297.5,400 1305.5,389.74     "></polygon>
				<polygon fill="#B4D5EC" points="1381.5,397.29 1369,414 1291,363 1301.79,344.81     "></polygon>
				<polygon fill="#B4D5EC" points="1321.68,295.5 1299,329.5 1245.651,296.08 1244.3,295.23 1266.1,260.64     "></polygon>
				<polygon fill="#B4D5EC" points="1266.1,260.64 1244.3,295.23 1227.271,322.24 1157.47,278.17 1166.281,263.26 1194.39,215.68       1194.39,215.67     "></polygon>
				<path fill="#CFDAAF" d="M1254,359c0,0,70.46,87.591-43.5,91.5l-10.5-13l-21-8.85l12.41-30.32h24.09l14-30.33l3.5-9H1254z"></path>
				<polygon fill="#B4D5EC" points="1244.3,295.23 1245.651,296.08 1299,329.5 1293,338.18 1296,341 1285.5,359 1227.271,322.24           "></polygon>
				<polygon fill="#CFDAAF" points="1229.5,368 1215.5,398.33 1191.41,398.33 1207.5,359 1210.5,359     "></polygon>
				<polygon fill="#B4D5EC" points="1210.46,326 1206.5,340.5 1166.281,343.5 1139.5,338.18 1160,293.08     "></polygon>
				<polygon fill="#B4D5EC" points="1207.5,472 1175.75,546.77 1076.151,504.4 1096.54,454.41 1104,457.5 1126,400 1142,409.79       1156.5,445.5 1172,457.5     "></polygon>
				<polygon fill="#CFDAAF" points="1194.39,215.67 1194.39,215.68 1166.281,263.26 1125.981,239.74 1134,224.09 1150.771,189.03       1154.67,190.76     "></polygon>
				<polygon fill="#B4D5EC" points="1166.281,263.26 1157.47,278.17 1149,292.5 1129,334 1090,310 1094.31,301.59 1108.5,308       1121,286 1106.3,278.17 1125.981,239.74     "></polygon>
				<polygon fill="#CFDAAF" points="1150.771,189.03 1134,224.09 1094,202.13 1108.5,170.57 1111.81,171.71     "></polygon>
				<polygon fill="#CFDAAF" points="1121,286 1108.5,308 1094.31,301.59 1106.3,278.17     "></polygon>
				<polygon fill="#B4D5EC" points="1115,227.19 1095,265 1076.151,255.17 1070,224.5 1050,207 1031.6,202.13 997.1,193 997,187.22       945,187.22 945,182.48 898.38,182.48 902,157.44 911.111,157.44 916,121 965,132.54 1097,174.5 1082,210.1     "></polygon>
				<polygon fill="#B4D5EC" points="1108.5,392.62 1092,428.65 1035.941,405 1051,368     "></polygon>
				<polygon fill="#B4D5EC" points="1096.54,454.41 1076.151,504.4 1023.14,481.85 1042.71,432.12     "></polygon>
				<polygon fill="#B4D5EC" points="1070,224.5 1076.151,255.17 1060,246.75 1040.281,245.92 1040.281,222.06 1031.6,222.06       1031.6,202.13 1050,207     "></polygon>
				<polygon fill="#B4D5EC" points="994.781,441.211 1006,416.92 1042.71,432.12 1023.14,481.85 983.75,465.091     "></polygon>
				<polygon fill="#B4D5EC" points="1040.281,222.06 1040.281,245.92 998,244.13 997.1,193 1031.6,202.13 1031.6,222.06     "></polygon>
				<polygon fill="#CFDAAF" points="1022,265 1031.6,287.5 966.04,329.35 946.821,295.5 962.04,294.5 980.5,265     "></polygon>
				<polygon fill="#B4D5EC" points="1031.6,361.5 1011.68,404.62 976,389.95 966.04,367 990.5,354.5     "></polygon>
				<polygon fill="#B4D5EC" points="1011.68,404.62 1006,416.92 994.781,441.211 962.25,426.211 970.5,405 976,389.95     "></polygon>
				<polygon fill="#B4D5EC" points="997.1,193 998,244.13 945,244.13 945,187.22 997,187.22     "></polygon>
				<polygon fill="#B4D5EC" points="994.781,441.211 983.75,465.091 971.33,459.81 897,459.81 897,382.13 944,374.9 945,405       970.5,405 962.25,426.211     "></polygon>
				<polygon fill="#CFDAAF" points="980.5,265 962.04,294.5 946.821,295.5 944,290.5 961,265     "></polygon>
				<polygon fill="#CFDAAF" points="946.821,295.5 966.04,329.35 952.5,338 948.55,338.18 911.111,275 929.5,265     "></polygon>
				<polygon fill="#CFDAAF" points="911.111,275 948.55,338.18 829.05,343.5 719.5,326 769,280.5 756.231,265 929.5,265     "></polygon>
				<polygon fill="#CFDAAF" points="946.821,295.5 929.5,265 961,265 944,290.5     "></polygon>
				<polygon fill="#B4D5EC" points="945,187.22 945,244.13 897,244.13 897,192 898.38,182.48 945,182.48     "></polygon>
				<polygon fill="#CFDAAF" points="911.111,109.51 905,148.42 892,148.42 881,147.51 886.5,107.52 907.05,108.62     "></polygon>
				<polygon fill="#B4D5EC" points="897,382.13 897,459.81 873,459.81 873,385.82     "></polygon>
				<polygon fill="#B4D5EC" points="892,148.42 885,200 836,192 836,244.13 797,244.13 797,102.71 886.5,107.52 881,147.51     "></polygon>
				<polygon fill="#B4D5EC" points="885,200 885,244.13 836,244.13 836,192     "></polygon>
				<polygon fill="#B4D5EC" points="873,385.82 873,459.81 847.5,459.81 847.5,389.74     "></polygon>
				<polygon fill="#B4D5EC" points="847.5,389.74 847.5,459.81 797,459.81 797,397.5     "></polygon>
				<polygon fill="#B4D5EC" points="797,102.71 797,244.13 747,244.13 747,192 698,192 666,192 666,143.32 698,143.32 698,97.39           "></polygon>
				<polygon fill="#B4D5EC" points="773.5,393 797,397.5 797,459.81 771.481,459.81 771.481,392.62     "></polygon>
				<polygon fill="#B4D5EC" points="771.481,392.62 771.481,459.81 747,459.81 747,388     "></polygon>
				<polygon fill="#CFDAAF" points="756.231,265 769,280.5 719.5,326 703.81,311.77     "></polygon>
				<polygon fill="#CFDAAF" points="756.231,265 703.81,311.77 698,306.5 710,265     "></polygon>
				<polygon fill="#B4D5EC" points="747,388 747,459.81 698,459.81 698,374.9     "></polygon>
				<rect x="698" y="192" fill="#B4D5EC" width="49" height="52.13"></rect>
				<polygon fill="#B4D5EC" points="698,374.9 698,459.81 635.5,459.81 635.5,389.75 647.021,389.75 657,389.75 657,380     "></polygon>
				<polygon fill="#B4D5EC" points="698,192 698,244.13 672.51,217 666,192     "></polygon>
				<polygon fill="#CFDAAF" points="698,97.39 698,143.32 666,143.32 666,192 647.021,192 647.021,94.65     "></polygon>
				<polygon fill="#CFDAAF" points="647.021,377.5 647.021,389.75 635.5,389.75 635.5,459.81 598,459.81 598,402 623.5,402       623.5,377.5     "></polygon>
				<polygon fill="#CFDAAF" points="640,244.13 624,265 598,255 624,228.5     "></polygon>
				<polygon fill="#B4D5EC" points="632,93.84 632,170 626,182 598,203 598,92.01     "></polygon>
				<polygon fill="#B4D5EC" points="598,402 598,459.81 248,459.81 248,290 550,290 598,315.17     "></polygon>
				<polygon fill="#CFDAAF" points="598,255 598,265 445,265 445,228.5 423,244.13 423,265 375,265 429,210.1 445,192 526,197       598,231.01     "></polygon>
				<polygon fill="#B4D5EC" points="598,92.01 598,203 550.66,187.22 550.66,89.47     "></polygon>
				<polygon fill="#B4D5EC" points="550.66,89.47 550.66,187.22 499,170 499,86.69     "></polygon>
				<polygon fill="#B4D5EC" points="499,86.69 499,170 399.18,182.48 399.18,122 423,122 423,82.61     "></polygon>
				<polygon fill="#CFDAAF" points="445,228.5 445,265 423,265 423,244.13     "></polygon>
				<polygon fill="#CFDAAF" points="416,197 429,210.1 375,265 365.51,244.13 408.9,200.1     "></polygon>
				<polygon fill="#CFDAAF" points="423,82.61 423,122 399.18,122 397.521,81.24     "></polygon>
				<polygon fill="#CFDAAF" points="408.9,200.1 365.51,244.13 356,223.19     "></polygon>
				<path fill="#FFFFFF" d="M408.9,200.1L356,223.19l9.51,20.939L375,265h48h22h153v-10l26,10l16-20.87l-16-15.63L598,255V231.01      L526,197l-81-5L429,210.1L416,197L408.9,200.1z M387,142l-0.35-24.33L386,72.9h11.521v8.34L399.18,122v60.48L499,170      l51.66,17.221L598,203l28-21l6-12V93.84l15.021,0.811V192H666l6.51,25L698,244.13h49h50h39h49V200l7-51.58h13l6.11-38.909      l55.46,12.199l141.93,48.86l-14.5,31.56l40,21.96l-8.021,15.65l-19.681,38.43l-11.99,23.42L1090,310l39,24l20-41.5l8.47-14.33      l69.801,44.07L1285.5,359l10.5-18l5.79,3.811L1291,363l78,51l12.5-16.71l19.26-30.81l24.45,16.68l-37.311,58.08l-82.399-51.5      l-8,10.26l-4.5,34.5l-19.5,25.311l-31,14.689l-35-2.5l-35.5-14.5l-15.5-12l-14.5-35.71l-16-9.79l-22,57.5l-7.46-3.09      l-53.83-22.29l-36.71-15.2l5.68-12.3l19.92-43.12l-41.1-7L966.04,367l9.96,22.95L970.5,405H945l-1-30.1l-47,7.229l-24,3.69      l-25.5,3.92L797,397.5l-23.5-4.5l-2.021-0.38L747,388l-49-13.1l-41,5.1v9.75h-9.979V377.5H623.5V402H598v-86.83L550,290H248h-45      l-53,29v27.79V383h-13v-60l-39,23.79l-19,61.54H54.84l9.93-22.51l24.42-64.11l85.71-51.189l46.1-20.51L248,238h48l30.42-21      L387,184V142z M1210.5,450.5c113.96-3.909,43.5-91.5,43.5-91.5h-21l-3.5,9l-19-9h-3l-16.09,39.33L1179,428.65l21,8.85      L1210.5,450.5z M1206.5,340.5l3.96-14.5L1160,293.08l-20.5,45.101l26.78,5.319L1206.5,340.5z M1095,265l20-37.81l-33-17.09      l15-35.601l-132-41.96L916,121l-4.89,36.44H902l-3.62,25.04L897,192v52.13h48h53l42.28,1.79l19.72,0.83l16.15,8.42L1095,265z       M1092,428.65l16.5-36.03L1051,368l-15.06,37L1092,428.65z M1031.6,287.5L1022,265h-41.5H961h-31.5H756.229H710l-12,41.5      l5.81,5.271L719.5,326l109.55,17.5l119.5-5.319L952.5,338l13.54-8.649L1031.6,287.5z"></path>
				<polygon fill="#B4D5EC" points="387,142 387,184 326.42,217 263.69,157.44 267.76,152.67 345.14,111 345.33,117.67 346,142           "></polygon>
				<polygon fill="#CFDAAF" points="386.65,117.67 387,142 346,142 345.33,117.67     "></polygon>
				<polygon fill="#CFDAAF" points="386,72.9 386.65,117.67 345.33,117.67 345.14,111 345.14,72.9     "></polygon>
				<polygon fill="#B4D5EC" points="326.42,217 296,238 248,238 248,212 248,175.87 248,175.86 263.69,157.44     "></polygon>
				<polygon fill="#B4D5EC" points="248,290 248,459.81 34.43,459.81 54.84,408.33 79,408.33 98,346.79 137,323 137,383 150,383       201,383 201,346.79 150,346.79 150,319 203,290     "></polygon>
				<polygon fill="#B4D5EC" points="248,212 248,238 221,250.01 221,212     "></polygon>
				<rect x="150" y="346.79" fill="#CFDAAF" width="51" height="36.21"></rect>
				<path fill="#B4D5EC" d="M174.9,270.52c-28.57-71.431,34.53-89.28,34.53-89.28l30.95,3.57l7.62-8.94V212h-27v38.011L174.9,270.52      z"></path>
			</g>
			<g>
				<path fill="none" stroke="#000000" stroke-width="2" stroke-miterlimit="10" d="M1480.861,357.43l-245.24-164.29l-120.24-65.471      L974.901,83.62L854.67,65.76L485.62,46.71l-98.811-8.33l-58.33-7.14L207.05,5.051c0,0-61.91-17.86-77.38,47.619l-9.53,141.66      L97.52,299.09l-14.28-8.329L7.05,488.381c0,0-23.81,77.38,61.9,88.101L926.1,586l91.66,20.24l198.812,84.521h57.14      l38.101-21.431l184.519-234.52C1496.33,434.81,1532.05,389.57,1480.861,357.43z"></path>
				<polyline fill="none" stroke="#000000" stroke-miterlimit="10" points="598,459.81 598,402 598,315.17 550,290 248,290 203,290       150,319 150,346.79 150,383 137,383 137,323 98,346.79 79,408.33 54.84,408.33     "></polyline>
				<line fill="none" stroke="#000000" stroke-miterlimit="10" x1="248" y1="290" x2="248" y2="459.81"></line>
				<polyline fill="none" stroke="#000000" stroke-miterlimit="10" points="150,346.79 201,346.79 201,383 150,383     "></polyline>
				<polyline fill="none" stroke="#000000" stroke-miterlimit="10" points="174.9,270.52 221,250.01 248,238 248,212 248,175.87           "></polyline>
				<polyline fill="none" stroke="#000000" stroke-miterlimit="10" points="248,212 221,212 221,250.01     "></polyline>
				<polyline fill="none" stroke="#000000" stroke-miterlimit="10" points="248,238 296,238 326.42,217 387,184 387,142 346,142       345.33,117.67 345.14,111     "></polyline>
				<line fill="none" stroke="#000000" stroke-miterlimit="10" x1="326.42" y1="217" x2="263.69" y2="157.44"></line>
				<polyline fill="none" stroke="#000000" stroke-miterlimit="10" points="399.18,182.48 499,170 550.66,187.22 598,203 626,182       632,170 632,93.84     "></polyline>
				<polyline fill="none" stroke="#000000" stroke-miterlimit="10" points="399.18,182.48 399.18,122 423,122 423,82.61     "></polyline>
				<line fill="none" stroke="#000000" stroke-miterlimit="10" x1="499" y1="170" x2="499" y2="86.69"></line>
				<polyline fill="none" stroke="#000000" stroke-miterlimit="10" points="550.66,187.22 550.66,89.47 550.66,88.69     "></polyline>
				<line fill="none" stroke="#000000" stroke-miterlimit="10" x1="598" y1="203" x2="598" y2="92.01"></line>
				<polygon fill="none" stroke="#000000" stroke-miterlimit="10" points="365.51,244.13 356,223.19 408.9,200.1 416,197 429,210.1       445,192 526,197 598,231.01 598,255 598,265 445,265 423,265 375,265     "></polygon>
				<polyline fill="none" stroke="#000000" stroke-miterlimit="10" points="365.51,244.13 408.9,200.1 409,200     "></polyline>
				<line fill="none" stroke="#000000" stroke-miterlimit="10" x1="375" y1="265" x2="429" y2="210.1"></line>
				<polyline fill="none" stroke="#000000" stroke-miterlimit="10" points="423,265 423,244.13 445,228.5 445,265     "></polyline>
				<polygon fill="none" stroke="#000000" stroke-miterlimit="10" points="598,255 624,265 640,244.13 624,228.5     "></polygon>
				<polyline fill="none" stroke="#000000" stroke-miterlimit="10" points="647.021,94.65 647.021,192 666,192 666,143.32       698,143.32 698,97.39 698,97.38     "></polyline>
				<polygon fill="none" stroke="#000000" stroke-miterlimit="10" points="666,192 698,192 747,192 747,244.13 698,244.13       672.51,217     "></polygon>
				<line fill="none" stroke="#000000" stroke-miterlimit="10" x1="698" y1="192" x2="698" y2="244.13"></line>
				<polyline fill="none" stroke="#000000" stroke-miterlimit="10" points="747,244.13 797,244.13 836,244.13 885,244.13 885,200       892,148.42 905,148.42 911.111,109.51     "></polyline>
				<polyline fill="none" stroke="#000000" stroke-miterlimit="10" points="892,148.42 881,147.51 886.5,107.52 886.5,107.51           "></polyline>
				<polyline fill="none" stroke="#000000" stroke-miterlimit="10" points="885,200 836,192 836,244.13     "></polyline>
				<line fill="none" stroke="#000000" stroke-miterlimit="10" x1="797" y1="244.13" x2="797" y2="102.71"></line>
				<polygon fill="none" stroke="#000000" stroke-miterlimit="10" points="945,244.13 897,244.13 897,192 898.38,182.48 902,157.44       911.111,157.44 916,121 965,132.54 1097,174.5 1082,210.1 1115,227.19 1095,265 1076.151,255.17 1060,246.75 1040.281,245.92       998,244.13     "></polygon>
				<polyline fill="none" stroke="#000000" stroke-miterlimit="10" points="898.38,182.48 945,182.48 945,187.22 945,244.13     "></polyline>
				<polyline fill="none" stroke="#000000" stroke-miterlimit="10" points="945,187.22 997,187.22 997.1,193 998,244.13     "></polyline>
				<polyline fill="none" stroke="#000000" stroke-miterlimit="10" points="997.1,193 1031.6,202.13 1050,207 1070,224.5       1076.151,255.17     "></polyline>
				<polyline fill="none" stroke="#000000" stroke-miterlimit="10" points="1031.6,202.13 1031.6,222.06 1040.281,222.06       1040.281,245.92     "></polyline>
				<polygon fill="none" stroke="#000000" stroke-miterlimit="10" points="703.81,311.77 698,306.5 710,265 756.231,265 929.5,265       961,265 980.5,265 1022,265 1031.6,287.5 966.04,329.35 952.5,338 948.55,338.18 829.05,343.5 719.5,326     "></polygon>
				<polyline fill="none" stroke="#000000" stroke-miterlimit="10" points="719.5,326 769,280.5 756.231,265 703.81,311.77     "></polyline>
				<polyline fill="none" stroke="#000000" stroke-miterlimit="10" points="966.04,329.35 946.821,295.5 929.5,265 911.111,275       948.55,338.18     "></polyline>
				<polyline fill="none" stroke="#000000" stroke-miterlimit="10" points="961,265 944,290.5 946.821,295.5 962.04,294.5       980.5,265     "></polyline>
				<polyline fill="none" stroke="#000000" stroke-miterlimit="10" points="598,402 623.5,402 623.5,377.5 647.021,377.5       647.021,389.75 635.5,389.75 635.5,459.81     "></polyline>
				<polyline fill="none" stroke="#000000" stroke-miterlimit="10" points="647.021,389.75 657,389.75 657,380 698,374.9 747,388       771.481,392.62 773.5,393 797,397.5 847.5,389.74 873,385.82 897,382.13 944,374.9 945,405 970.5,405 976,389.95 966.04,367       990.5,354.5 1031.6,361.5 1011.68,404.62 1006,416.92 994.781,441.211 983.75,465.091     "></polyline>
				<line fill="none" stroke="#000000" stroke-miterlimit="10" x1="698" y1="374.9" x2="698" y2="459.81"></line>
				<line fill="none" stroke="#000000" stroke-miterlimit="10" x1="747" y1="388" x2="747" y2="459.81"></line>
				<line fill="none" stroke="#000000" stroke-miterlimit="10" x1="771.481" y1="392.62" x2="771.481" y2="459.81"></line>
				<line fill="none" stroke="#000000" stroke-miterlimit="10" x1="797" y1="397.5" x2="797" y2="459.81"></line>
				<line fill="none" stroke="#000000" stroke-miterlimit="10" x1="847.5" y1="459.81" x2="847.5" y2="389.74"></line>
				<line fill="none" stroke="#000000" stroke-miterlimit="10" x1="873" y1="459.81" x2="873" y2="385.82"></line>
				<line fill="none" stroke="#000000" stroke-miterlimit="10" x1="897" y1="459.81" x2="897" y2="382.13"></line>
				<line fill="none" stroke="#000000" stroke-miterlimit="10" x1="976" y1="389.95" x2="1011.68" y2="404.62"></line>
				<polyline fill="none" stroke="#000000" stroke-miterlimit="10" points="970.5,405 962.25,426.211 994.781,441.211       994.84,441.24     "></polyline>
				<polyline fill="none" stroke="#000000" stroke-miterlimit="10" points="1006,416.92 1042.71,432.12 1096.54,454.41 1104,457.5       1126,400 1142,409.79 1156.5,445.5 1172,457.5 1207.5,472 1242.5,474.5 1273.5,459.81 1293,434.5 1297.5,400 1305.5,389.74       1387.901,441.24     "></polyline>
				<line fill="none" stroke="#000000" stroke-miterlimit="10" x1="1207.5" y1="472" x2="1175.75" y2="546.77"></line>
				<line fill="none" stroke="#000000" stroke-miterlimit="10" x1="1096.54" y1="454.41" x2="1076.151" y2="504.4"></line>
				<line fill="none" stroke="#000000" stroke-miterlimit="10" x1="1042.71" y1="432.12" x2="1023.14" y2="481.85"></line>
				<polygon fill="none" stroke="#000000" stroke-miterlimit="10" points="1108.5,392.62 1092,428.65 1035.941,405 1051,368     "></polygon>
				<path fill="none" stroke="#000000" stroke-miterlimit="10" d="M1191.41,398.33L1207.5,359h3l19,9l3.5-9h21      c0,0,70.46,87.591-43.5,91.5l-10.5-13l-21-8.85L1191.41,398.33z"></path>
				<polyline fill="none" stroke="#000000" stroke-miterlimit="10" points="1229.5,368 1215.5,398.33 1191.41,398.33     "></polyline>
				<polyline fill="none" stroke="#000000" stroke-miterlimit="10" points="1108.5,170.57 1094,202.13 1134,224.09 1125.981,239.74       1106.3,278.17 1094.31,301.59 1090,310 1129,334 1149,292.5 1157.47,278.17 1166.281,263.26 1194.39,215.68     "></polyline>
				<line fill="none" stroke="#000000" stroke-miterlimit="10" x1="1134" y1="224.09" x2="1150.771" y2="189.03"></line>
				<line fill="none" stroke="#000000" stroke-miterlimit="10" x1="1125.981" y1="239.74" x2="1166.281" y2="263.26"></line>
				<polyline fill="none" stroke="#000000" stroke-miterlimit="10" points="1106.3,278.17 1121,286 1108.5,308 1094.31,301.59           "></polyline>
				<polygon fill="none" stroke="#000000" stroke-miterlimit="10" points="1206.5,340.5 1166.281,343.5 1139.5,338.18 1160,293.08       1210.46,326     "></polygon>
				<polyline fill="none" stroke="#000000" stroke-miterlimit="10" points="1266.1,260.64 1244.3,295.23 1227.271,322.24     "></polyline>
				<polyline fill="none" stroke="#000000" stroke-miterlimit="10" points="1245.651,296.08 1299,329.5 1293,338.18 1296,341       1285.5,359 1227.271,322.24 1157.47,278.17     "></polyline>
				<polyline fill="none" stroke="#000000" stroke-miterlimit="10" points="1301.79,344.81 1291,363 1369,414 1381.5,397.29       1301.79,344.81 1296,341     "></polyline>
				<polyline fill="none" stroke="#000000" stroke-miterlimit="10" points="1381.5,397.29 1400.76,366.48 1410.37,351.12     "></polyline>
				<line fill="none" stroke="#000000" stroke-miterlimit="10" x1="1400.76" y1="366.48" x2="1425.21" y2="383.16"></line>
				<line fill="none" stroke="#000000" stroke-miterlimit="10" x1="1299" y1="329.5" x2="1321.68" y2="295.5"></line>
				<path fill="none" stroke="#000000" stroke-miterlimit="10" d="M54.84,408.33l9.93-22.51l24.42-64.11l85.71-51.189      c-28.57-71.431,34.53-89.28,34.53-89.28l30.95,3.57l7.62-8.94v-0.01l15.69-18.42l4.07-4.771L345.14,111V72.9H386h11.521v8.34      L423,82.61l76,4.08l51.66,2.78L598,92.01l34,1.829l15.021,0.811L698,97.39l99,5.319l89.5,4.811l20.55,1.1l4.062,0.891      l55.46,12.199l141.93,48.86l3.311,1.14l38.959,17.32l3.9,1.73l39.72,24.909l71.71,44.971l55.58,34.859l88.69,55.62l25.25,15.83      l-10.41,16.21l-37.311,58.08l-46.329,72.141l-46.432,33.33L1238,557.43l-51.19-5.949l-11.06-4.711l-99.6-42.369l-53.012-22.551      l-39.39-16.76l-12.42-5.28H897h-24h-25.5H797h-25.521H747h-49h-62.5H598H248H34.43L54.84,408.33z"></path>
				<line fill="none" stroke="#000000" stroke-miterlimit="10" x1="397.521" y1="81.24" x2="399.18" y2="122"></line>
				<polyline fill="none" stroke="#000000" stroke-miterlimit="10" points="387,142 386.65,117.67 386,72.9     "></polyline>
				<polyline fill="none" stroke="#000000" stroke-miterlimit="10" points="345.33,117.67 386.65,117.67 387.25,117.67     "></polyline>
			</g>
		</g>
	</g>
</g>
<rect x="1067.5" y="364" fill="none" width="223" height="62"></rect>
<text transform="matrix(1 0 0 1 1067.5 406.24)" font-family="'AdobeSongStd-Light-GBpc-EUC-H'" font-size="48"></text>
<polygon fill='#0000FF' fill-opacity='0' stroke='#000000' stroke-width='0' tid='18273' ttype='餐饮美食' tcategory='日韩料理' tisShop='1' points='326.42,217 296,238 248,238 248,212 248,175.87 248,175.86 263.69,157.44 '></polygon>
<text transform='matrix(1 0 0 1 279.0 220.0)' font-size='12' tid='18273'>NYF</text>
<polygon fill='#0000FF' fill-opacity='0' stroke='#000000' stroke-width='0' tid='18293' ttype='餐饮美食' tcategory='日韩料理' tisShop='1' points='387,142 387,184 326.42,217 263.69,157.44 267.76,152.67 345.14,111 345.33,117.67 346,142 '></polygon>
<text transform='matrix(1 0 0 1 320.0 169.0)' font-size='12' tid='18293'>禾绿</text>
<polygon fill='#0000FF' fill-opacity='0' stroke='#000000' stroke-width='0' tid='18294' ttype='公共设施' tcategory='卫生间' tisShop='0' points='386,72.9 386.65,117.67 345.33,117.67 345.14,111 345.14,72.9 '></polygon>
<text transform='matrix(1 0 0 1 370.0 102.0)' font-size='12' tid='18294'>卫生间</text>
<polygon fill='#0000FF' fill-opacity='0' stroke='#000000' stroke-width='0' tid='18296' ttype='公共设施' tcategory='楼梯' tisShop='0' points='386.65,117.67 387,142 346,142 345.33,117.67 '></polygon>
<text transform='matrix(1 0 0 1 370.0 137.0)' font-size='12' tid='18296'>楼梯</text>
<polygon fill='#0000FF' fill-opacity='0' stroke='#000000' stroke-width='0' tid='18299' ttype='数码电器' tcategory='其他' tisShop='1' points='499,86.69 499,170 399.18,182.48 399.18,122 423,122 423,82.61 '></polygon>
<text transform='matrix(1 0 0 1 433.0 144.0)' font-size='12' tid='18299'>ONE ZERO</text>
<polygon fill='#0000FF' fill-opacity='0' stroke='#000000' stroke-width='0' tid='18300' ttype='数码电器' tcategory='其他' tisShop='1' points='550.66,89.47 550.66,187.22 499,170 499,86.69 '></polygon>
<text transform='matrix(1 0 0 1 516.0 145.0)' font-size='12' tid='18300'>EMO</text>
<polygon fill='#0000FF' fill-opacity='0' stroke='#000000' stroke-width='0' tid='18302' ttype='数码电器' tcategory='其他' tisShop='1' points='598,92.01 598,203 550.66,187.22 550.66,89.47 '></polygon>
<text transform='matrix(1 0 0 1 573.0 143.0)' font-size='12' tid='18302'>SSMN</text>
<polygon fill='#0000FF' fill-opacity='0' stroke='#000000' stroke-width='0' tid='18304' ttype='数码电器' tcategory='电器' tisShop='1' points='632,93.84 632,170 626,182 598,203 598,92.01 '></polygon>
<text transform='matrix(1 0 0 1 614.0 143.0)' font-size='12' tid='18304'>CAV</text>
<polygon fill='#0000FF' fill-opacity='0' stroke='#000000' stroke-width='0' tid='18306' ttype='休闲娱乐' tcategory='其他' tisShop='0' points='248,290 248,459.81 34.43,459.81 54.84,408.33 79,408.33 98,346.79 137,323 137,383 150,383 201,383 201,346.79 150,346.79 150,319 203,290 '></polygon>
<text transform='matrix(1 0 0 1 113.0 424.0)' font-size='12' tid='18306'>冰场</text>
<rect fill='#0000FF' fill-opacity='0' stroke='#000000' stroke-width='0' tid='18308' ttype='公共设施' tcategory='楼梯' tisShop='0' x ='150' y='346.79' width='51' height='36.21'></rect>
<text transform='matrix(1 0 0 1 181.0 372.0)' font-size='12' tid='18308'>楼梯</text>
<polygon fill='#0000FF' fill-opacity='0' stroke='#000000' stroke-width='0' tid='18310' ttype='公共设施' tcategory='扶梯' tisShop='0' points='416,197 429,210.1 375,265 365.51,244.13 408.9,200.1 '></polygon>
<text transform='matrix(1 0 0 1 393.0 243.0)' font-size='12' tid='18310'>扶梯</text>
<polygon fill='#0000FF' fill-opacity='0' stroke='#000000' stroke-width='0' tid='18311' ttype='公共设施' tcategory='扶梯' tisShop='0' points='445,228.5 445,265 423,265 423,244.13 '></polygon>
<text transform='matrix(1 0 0 1 438.0 258.0)' font-size='12' tid='18311'>扶梯</text>
<polygon fill='#0000FF' fill-opacity='0' stroke='#000000' stroke-width='0' tid='18312' ttype='公共设施' tcategory='扶梯' tisShop='0' points='640,244.13 624,265 598,255 624,228.5 '></polygon>
<text transform='matrix(1 0 0 1 628.0 257.0)' font-size='12' tid='18312'>扶梯</text>
<polygon fill='#0000FF' fill-opacity='0' stroke='#000000' stroke-width='0' tid='18313' ttype='公共设施' tcategory='扶梯' tisShop='0' points='756.23,265 769,280.5 719.5,326 703.81,311.77 '></polygon>
<text transform='matrix(1 0 0 1 720.0 310.0)' font-size='12' tid='18313'>扶梯</text>
<polygon fill='#0000FF' fill-opacity='0' stroke='#000000' stroke-width='0' tid='18315' ttype='公共设施' tcategory='扶梯' tisShop='0' points='980.5,265 962.04,294.5 946.821,295.5 944,290.5 961,265 '></polygon>
<text transform='matrix(1 0 0 1 965.0 287.0)' font-size='12' tid='18315'>扶梯</text>
<polygon fill='#0000FF' fill-opacity='0' stroke='#000000' stroke-width='0' tid='18316' ttype='公共设施' tcategory='直升电梯' tisShop='0' points='698,97.39 698,143.32 666,143.32 666,192 647.021,192 647.021,94.65 '></polygon>
<text transform='matrix(1 0 0 1 673.0 129.0)' font-size='12' tid='18316'>电梯</text>
<polygon fill='#0000FF' fill-opacity='0' stroke='#000000' stroke-width='0' tid='18317' ttype='餐饮美食' tcategory='甜点' tisShop='1' points='698,192 698,244.13 672.51,217 666,192 '></polygon>
<text transform='matrix(1 0 0 1 690.0 222.0)' font-size='12' tid='18317'>BREN</text>
<rect fill='#0000FF' fill-opacity='0' stroke='#000000' stroke-width='0' tid='18318' ttype='shop' tcategory='商铺' tisShop='1' x ='698' y='192' width='49' height='52.13'></rect>
<text transform='matrix(1 0 0 1 707.0 223.0)' font-size='12' tid='18318'>OSIM</text>
<polygon fill='#0000FF' fill-opacity='0' stroke='#000000' stroke-width='0' tid='18319' ttype='餐饮美食' tcategory='火锅' tisShop='1' points='797,102.71 797,244.13 747,244.13 747,192 698,192 666,192 666,143.32 698,143.32 698,97.39 '></polygon>
<text transform='matrix(1 0 0 1 723.0 144.0)' font-size='12' tid='18319'>陶乡</text>
<polygon fill='#0000FF' fill-opacity='0' stroke='#000000' stroke-width='0' tid='18320' ttype='餐饮美食' tcategory='火锅' tisShop='1' points='892,148.42 885,200 836,192 836,244.13 797,244.13 797,102.71 886.5,107.52 881,147.51 '></polygon>
<text transform='matrix(1 0 0 1 818.0 157.0)' font-size='12' tid='18320'>汉拿山</text>
<polygon fill='#0000FF' fill-opacity='0' stroke='#000000' stroke-width='0' tid='18321' ttype='公共设施' tcategory='楼梯' tisShop='0' points='911.111,109.51 905,148.42 892,148.42 881,147.51 886.5,107.52 907.05,108.62 '></polygon>
<text transform='matrix(1 0 0 1 901.0 137.0)' font-size='12' tid='18321'>楼梯</text>
<polygon fill='#0000FF' fill-opacity='0' stroke='#000000' stroke-width='0' tid='18322' ttype='生活服务' tcategory='其他' tisShop='1' points='885,200 885,244.13 836,244.13 836,192 '></polygon>
<text transform='matrix(1 0 0 1 844.0 224.0)' font-size='12' tid='18322'>康宁餐具</text>
<polygon fill='#0000FF' fill-opacity='0' stroke='#000000' stroke-width='0' tid='18323' ttype='生活服务' tcategory='其他' tisShop='1' points='945,187.22 945,244.13 897,244.13 897,192 898.38,182.48 945,182.48 '></polygon>
<text transform='matrix(1 0 0 1 916.0 218.0)' font-size='12' tid='18323'>屋必家</text>
<polygon fill='#0000FF' fill-opacity='0' stroke='#000000' stroke-width='0' tid='18324' ttype='生活服务' tcategory='其他' tisShop='1' points='997.1,193 998,244.13 945,244.13 945,187.22 997,187.22 '></polygon>
<text transform='matrix(1 0 0 1 965.0 220.0)' font-size='12' tid='18324'>WMF</text>
<polygon fill='#0000FF' fill-opacity='0' stroke='#000000' stroke-width='0' tid='18325' ttype='生活服务' tcategory='其他' tisShop='1' points='1040.281,222.06 1040.281,245.92 998,244.13 997.1,193 1031.6,202.13 1031.6,222.06 '></polygon>
<text transform='matrix(1 0 0 1 1005.0 225.0)' font-size='12' tid='18325'>SHERIOAN</text>
<polygon fill='#0000FF' fill-opacity='0' stroke='#000000' stroke-width='0' tid='18327' ttype='生活服务' tcategory='其他' tisShop='1' points='1115,227.19 1095,265 1076.151,255.17 1070,224.5 1050,207 1031.6,202.13 997.1,193 997,187.22 945,187.22 945,182.48 898.38,182.48 902,157.44 911.111,157.44 916,121 965,132.54 1097,174.5 1082,210.1 '></polygon>
<text transform='matrix(1 0 0 1 938.0 168.0)' font-size='12' tid='18327'>东方美/美丽田园</text>
<polygon fill='#0000FF' fill-opacity='0' stroke='#000000' stroke-width='0' tid='18342' ttype='鞋包' tcategory='其他' tisShop='1' points='1031.6,361.5 1011.68,404.62 976,389.95 966.04,367 990.5,354.5 '></polygon>
<text transform='matrix(1 0 0 1 977.0 379.0)' font-size='12' tid='18342'>KAMINEY</text>
<polygon fill='#0000FF' fill-opacity='0' stroke='#000000' stroke-width='0' tid='18345' ttype='公共设施' tcategory='楼梯' tisShop='0' points='1011.68,404.62 1006,416.92 994.78,441.21 962.25,426.21 970.5,405 976,389.95 '></polygon>
<text transform='matrix(1 0 0 1 976.0 419.0)' font-size='12' tid='18345'>楼梯</text>
<polygon fill='#0000FF' fill-opacity='0' stroke='#000000' stroke-width='0' tid='18346' ttype='鞋包' tcategory='其他' tisShop='1' points='994.781,441.211 983.75,465.091 971.33,459.81 897,459.81 897,382.13 944,374.9 945,405 970.5,405 962.25,426.211 '></polygon>
<text transform='matrix(1 0 0 1 918.0 441.0)' font-size='12' tid='18346'>ROOKIE</text>
<polygon fill='#0000FF' fill-opacity='0' stroke='#000000' stroke-width='0' tid='18347' ttype='鞋包' tcategory='其他' tisShop='1' points='897,382.13 897,459.81 873,459.81 873,385.82 '></polygon>
<text transform='matrix(1 0 0 1 880.0 413.0)' font-size='12' tid='18347'>KINGKOW</text>
<polygon fill='#0000FF' fill-opacity='0' stroke='#000000' stroke-width='0' tid='18348' ttype='鞋包' tcategory='其他' tisShop='1' points='873,385.82 873,459.81 847.5,459.81 847.5,389.74 '></polygon>
<text transform='matrix(1 0 0 1 856.0 431.0)' font-size='12' tid='18348'>江博士</text>
<polygon fill='#0000FF' fill-opacity='0' stroke='#000000' stroke-width='0' tid='18349' ttype='鞋包' tcategory='其他' tisShop='1' points='847.5,389.74 847.5,459.81 797,459.81 797,397.5 '></polygon>
<text transform='matrix(1 0 0 1 805.0 454.0)' font-size='12' tid='18349'>KIDSLAND</text>
<polygon fill='#0000FF' fill-opacity='0' stroke='#000000' stroke-width='0' tid='18351' ttype='鞋包' tcategory='其他' tisShop='1' points='771.481,392.62 771.481,459.81 747,459.81 747,388 '></polygon>
<text transform='matrix(1 0 0 1 755.0 409.0)' font-size='12' tid='18351'>IVYHOUSE</text>
<polygon fill='#0000FF' fill-opacity='0' stroke='#000000' stroke-width='0' tid='18352' ttype='鞋包' tcategory='其他' tisShop='1' points='747,388 747,459.81 698,459.81 698,374.9 '></polygon>
<text transform='matrix(1 0 0 1 708.0 422.0)' font-size='12' tid='18352'>PETITS</text>
<polygon fill='#0000FF' fill-opacity='0' stroke='#000000' stroke-width='0' tid='18353' ttype='鞋包' tcategory='其他' tisShop='1' points='698,374.9 698,459.81 635.5,459.81 635.5,389.75 647.021,389.75 657,389.75 657,380 '></polygon>
<text transform='matrix(1 0 0 1 656.0 447.0)' font-size='12' tid='18353'>TEENIE WEENIE</text>
<polygon fill='#0000FF' fill-opacity='0' stroke='#000000' stroke-width='0' tid='18354' ttype='公共设施' tcategory='楼梯' tisShop='0' points='647.021,377.5 647.021,389.75 635.5,389.75 635.5,459.81 598,459.81 598,402 623.5,402 623.5,377.5 '></polygon>
<text transform='matrix(1 0 0 1 620.0 433.0)' font-size='12' tid='18354'>楼梯</text>
<polygon fill='#0000FF' fill-opacity='0' stroke='#000000' stroke-width='0' tid='18355' ttype='休闲娱乐' tcategory='其他' tisShop='1' points='598,402 598,459.81 248,459.81 248,290 550,290 598,315.17 '></polygon>
<text transform='matrix(1 0 0 1 391.0 379.0)' font-size='12' tid='18355'>滑冰场</text>
<path fill='#0000FF' fill-opacity='0' stroke='#000000' stroke-width='0' tid='19505' ttype='shop' tcategory='走道' tisShop='0' d='M408.9,200.1L356,223.19l9.51,20.939L375,265h48h22h153v-10l26,10l16-20.87l-16-15.63L598,255V231.01 L526,197l-81-5L429,210.1L416,197L408.9,200.1z M387,142l-0.35-24.33L386,72.9h11.521v8.34L399.18,122v60.48L499,170 l51.66,17.221L598,203l28-21l6-12V93.84l15.021,0.811V192H666l6.51,25L698,244.13h49h50h39h49V200l7-51.58h13l6.11-38.909 l55.46,12.199l141.93,48.86l-14.5,31.56l40,21.96l-8.021,15.65l-19.681,38.43l-11.99,23.42L1090,310l39,24l20-41.5l8.47-14.33 l69.801,44.07L1285.5,359l10.5-18l5.79,3.811L1291,363l78,51l12.5-16.71l19.26-30.81l24.45,16.68l-37.311,58.08l-82.399-51.5 l-8,10.26l-4.5,34.5l-19.5,25.311l-31,14.689l-35-2.5l-35.5-14.5l-15.5-12l-14.5-35.71l-16-9.79l-22,57.5l-7.46-3.09 l-53.83-22.29l-36.71-15.2l5.68-12.3l19.92-43.12l-41.1-7L966.04,367l9.96,22.95L970.5,405H945l-1-30.1l-47,7.229l-24,3.69 l-25.5,3.92L797,397.5l-23.5-4.5l-2.021-0.38L747,388l-49-13.1l-41,5.1v9.75h-9.979V377.5H623.5V402H598v-86.83L550,290H248h-45 l-53,29v27.79V383h-13v-60l-39,23.79l-19,61.54H54.84l9.93-22.51l24.42-64.11l85.71-51.189l46.1-20.51L248,238h48l30.42-21 L387,184V142z M1210.5,450.5c113.96-3.909,43.5-91.5,43.5-91.5h-21l-3.5,9l-19-9h-3l-16.09,39.33L1179,428.65l21,8.85 L1210.5,450.5z M1206.5,340.5l3.96-14.5L1160,293.08l-20.5,45.101l26.78,5.319L1206.5,340.5z M1095,265l20-37.81l-33-17.09 l15-35.601l-132-41.96L916,121l-4.89,36.44H902l-3.62,25.04L897,192v52.13h48h53l42.28,1.79l19.72,0.83l16.15,8.42L1095,265z M1092,428.65l16.5-36.03L1051,368l-15.06,37L1092,428.65z M1031.6,287.5L1022,265h-41.5H961h-31.5H756.229H710l-12,41.5 l5.81,5.271L719.5,326l109.55,17.5l119.5-5.319L952.5,338l13.54-8.649L1031.6,287.5z'></path>
<text transform='matrix(1 0 0 1 624.0 315.0)' font-size='12' tid='19505'>走道</text>
<path fill='#0000FF' fill-opacity='0' stroke='#000000' stroke-width='0' tid='19506' ttype='shop' tcategory='走道' tisShop='0' d='M129.67,52.67c15.47-65.479,77.38-47.619,77.38-47.619l121.43,26.189l58.33,7.14l98.811,8.33 L854.67,65.76L974.899,83.62l140.479,44.05l120.24,65.471l245.239,164.29c51.189,32.141,15.471,77.38,15.471,77.38 l-184.52,234.52l-38.1,21.431h-57.14l-198.812-84.521L926.1,586L68.95,576.48c-85.71-10.721-61.9-88.101-61.9-88.101 l76.19-197.621l14.28,8.33l22.62-104.76L129.67,52.67z M886.5,107.52L797,102.71l-99-5.319l-50.979-2.74L632,93.84l-34-1.829 l-47.34-2.54L499,86.69l-76-4.08l-25.479-1.37V72.9H386h-40.86V111l-77.38,41.67l-4.07,4.771L248,175.86v0.01l-7.62,8.94 l-30.95-3.57c0,0-63.1,17.85-34.53,89.28L89.19,321.71l-24.42,64.11l-9.93,22.51l-20.41,51.48H248h350h37.5H698h49h24.479H797 h50.5H873h24h74.33l12.42,5.28l39.39,16.76l53.012,22.551l99.6,42.369l11.061,4.711l51.189,5.949l57.14-10.72l46.432-33.33 l46.33-72.141l37.31-58.08l10.41-16.21l-25.25-15.83l-88.689-55.62l-55.58-34.859l-71.71-44.971l-39.721-24.909l-3.899-1.73 l-38.96-17.32l-3.311-1.14l-141.93-48.86l-55.46-12.199l-4.061-0.891L886.5,107.52z'></path>
<text transform='matrix(1 0 0 1 671.0 511.0)' font-size='12' tid='19506'>走道</text>
<polygon fill='#0000FF' fill-opacity='0' stroke='#000000' stroke-width='0' tid='19587' ttype='shop' tcategory='商铺' tisShop='1' points='773.5,393 797,397.5 797,459.81 771.481,459.81 771.481,392.62 '></polygon>
<text transform='matrix(1 0 0 1 779.0 433.0)' font-size='12' tid='19587'>百事特</text>
<polygon fill='#0000FF' fill-opacity='0' stroke='#000000' stroke-width='0' tid='19588' ttype='公共设施' tcategory='扶梯' tisShop='0' points='946.821,295.5 966.04,329.35 952.5,338 948.55,338.18 911.111,275 929.5,265 '></polygon>
<text transform='matrix(1 0 0 1 941.0 317.0)' font-size='12' tid='19588'>扶梯</text>
<path fill='#0000FF' fill-opacity='0' stroke='#000000' stroke-width='0' tid='19589' ttype='shop' tcategory='商铺' tisShop='1' d='M174.9,270.52c-28.57-71.431,34.53-89.28,34.53-89.28l30.95,3.57l7.62-8.94V212h-27v38.011L174.9,270.52 z'></path>
<text transform='matrix(1 0 0 1 184.0 225.0)' font-size='12' tid='19589'>妙街</text>
<polygon fill='#0000FF' fill-opacity='0' stroke='#000000' stroke-width='0' tid='21789' ttype='其他' tcategory='其他' tisShop='0' points='1070,224.5 1076.151,255.17 1060,246.75 1040.281,245.92 1040.281,222.06 1031.6,222.06 1031.6,202.13 1050,207 '></polygon>
<text transform='matrix(1 0 0 1 1054.0 236.0)' font-size='12' tid='21789'>未知</text>
<polygon fill='#0000FF' fill-opacity='0' stroke='#000000' stroke-width='0' tid='21790' ttype='其他' tcategory='其他' tisShop='0' points='408.9,200.1 365.51,244.13 356,223.19 '></polygon>
<text transform='matrix(1 0 0 1 367.0 230.0)' font-size='12' tid='21790'>未知</text>
<polygon fill='#0000FF' fill-opacity='0' stroke='#000000' stroke-width='0' tid='21791' ttype='其他' tcategory='其他' tisShop='0' points='248,212 248,238 221,250.01 221,212 '></polygon>
<text transform='matrix(1 0 0 1 231.0 231.0)' font-size='12' tid='21791'>未知</text>
<polygon fill='#0000FF' fill-opacity='0' stroke='#000000' stroke-width='0' tid='21792' ttype='公共设施' tcategory='直升电梯' tisShop='0' points='1121,286 1108.5,308 1094.31,301.59 1106.3,278.17 '></polygon>
<text transform='matrix(1 0 0 1 1110.0 302.0)' font-size='12' tid='21792'>电梯</text>
<polygon fill='#0000FF' fill-opacity='0' stroke='#000000' stroke-width='0' tid='21793' ttype='其他' tcategory='其他' tisShop='0' points='423,82.61 423,122 399.18,122 397.521,81.24 '></polygon>
<text transform='matrix(1 0 0 1 410.0 114.0)' font-size='12' tid='21793'>未知</text>
</svg>
