<?xml version="1.0" encoding="utf-8"?>
<!-- Generator: Adobe Illustrator 16.0.0, SVG Export Plug-In . SVG Version: 6.00 Build 0)  -->
<!DOCTYPE svg PUBLIC "-//W3C//DTD SVG 1.1//EN" "http://www.w3.org/Graphics/SVG/1.1/DTD/svg11.dtd">
<svg version="1.1" id="svg" xmlns="http://www.w3.org/2000/svg" xmlns:xlink="http://www.w3.org/1999/xlink" x="0px" y="0px"
	 width="1556px" height="720px" viewBox="0 0 1556 720" enable-background="new 0 0 1556 720" xml:space="preserve">

<g id="图层_2">
	<g id="XMLID_1_">
		<g>
			<path fill="#FFFFFF" d="M1251.33,344.246l-0.33,0.36l-35.95-22.271l18.53-29.069l5.75-9.021
				C1239.33,284.246,1226,321.586,1251.33,344.246z"/>
			<polygon fill="#FFFFFF" points="1216.33,260.246 1207.33,274.916 1189.33,304.246 1188.95,305.136 1176.89,333.076 
				1164.38,327.526 1177.95,297.136 1178.5,295.916 1197.47,264.696 1204.62,252.916 			"/>
			<path fill="#FFFFFF" d="M1145.9,527.297l-13.4,31.79l30.5,12.829l13-32.329L1145.9,527.297z M1154.33,479.246l13-31.83
				l-29.5-13.479l-13.78,32.212l-13.38,31.268l30.66,13.671L1154.33,479.246z M1394.64,439.656l-50.39,122.01l-22.689,53.961
				l-13.238,31.5h-0.012l-7.5,17.85l-12.521,29.78v0.01c24.7-1.188,37.96-14.35,37.96-14.35l3.01-3.79l12.353-15.521l21.96-27.58
				l38.34-48.182l14.84-18.648l57.74-75.229L1501,456.916c2.42-2.539,4.45-5.039,6.12-7.5c19.88-29.2-10.12-51.75-10.12-51.75
				l-28.439-18.84l-40.209-26.649l-19.189-12.721l-36.66-24.29l-73-48l-22.252,34.25l72.5,48.75l36.78,23.45l20.528,13.09
				l14.642,9.33l-26.45,42.13L1394.64,439.656z M1126.15,274.916l22.64-52.51l15.59,7.84l-6.06,11.57l-17.32,33.1l-0.87,2.101
				l-13.979,33.569l38.229,16.94l12.51,5.55l0.49,0.22l64.5,26.44l-11.26,29.43l-19.95,50.2l24.66,10.05l20.59-49.648l11.7,4.898
				l0.38,2.25l-3.62,8.88l-19.51,47.801l-19.38,47.49l-18.95,46.439l-19.21,47.061l-38.563-16.21l-78.867-33.15l-89.57-37.641
				l-32.58,0.051l-38.97,0.05l-39.11,0.062l0.102,33.17l0.028,13.5l0.03,8.83L971,572.926l3-0.011l75.12,30.811l79.46,32.602
				l104.25,42.761c24.34-9.341,4-26.841,4-26.841l-27.5-11.159l9.67-22.672l8.5,4l19.43-46.56l19.94-47.771l19.71-47.211
				l19.859-47.579l17.061-40.879l-71.63-47.81l-0.54-0.36c-25.33-22.66-12-60-12-60l3.91-6.49l19.76-32.84
				c-13.72-9.18-27.1-17.609-39.76-25.229c-10.16-6.13-19.86-11.74-28.9-16.8c-12.68-7.101-24.05-13.131-33.58-18.011
				c-8.66-4.439-15.81-7.93-21.02-10.43c-6.262-2.979-9.74-4.53-9.74-4.53c-83.689-32.52-148.19-48.13-191.57-55.63
				c-33.34-5.75-54.21-6.71-61.75-6.85c-2.107-0.04-3.18-0.021-3.18-0.021L722,100.666l-37.12-1.1L666,99.006v27.91v18.75v51.07
				c0,0,26.67,13.18,49,51.18l115.67,5H868h154.75c0,0,14.2,0.311,46.13,7.21C1083.92,263.376,1102.89,268.086,1126.15,274.916z
				 M511.05,179.916c22.92,1.561,48.9,6.351,76.472,16.82c7.39,2.8,14.89,6.01,22.479,9.68l3.5,1.5l31.5-13.5v-63.5v-35v-0.49
				h-16.99c-13.76-0.421-27.29-0.9-40.488-1.41c-27.291-1.08-53.132-2.34-76.472-3.6c-19.04-1.04-36.41-2.08-51.55-3.05
				c-38.82-2.47-63-4.45-63-4.45l-40.5-4.82l-1.5-0.181L305,67.416v8.17l-20.33-0.34l-0.34,11.34L259,86.246v-10.33h-11.33
				l-0.34-5.67h-10.66v57.34l22.66-0.34v-7.66h24.34v7.33h15v2.67H305v92.33h36.5c0,0,4.43-1.029,14.5-4.59
				c10.75-3.79,27.92-10.46,53-21.82v-0.01c3.2-1.439,6.54-2.97,10-4.58c0,0,15.229-6.01,40.5-9.37
				C473.78,179.636,491.28,178.576,511.05,179.916z M100.25,569.926l73.75,0.011v0.021h15.75h39.58h79.34v-97.789h-79.34h-39.58H174
				h-22.75v-52.581h11.37h40.71h49.34l30.84,0.33l-0.07-25.5h0.07H297l20-52.5c31-66.5,3-63,3-63h-15h-21.82v21.33l-30.85-0.33
				l0.34-21v-19.33h-84.34l-62.66,44.66l10.71,16.94l-2.38,1.729l-16,36l-21.17,58.391l-18.92,52.169l-23.24,64.11
				c0,0-0.67,36.659,33.33,36.329L100.25,569.926z M1497.33,348.916c78,42.67,42,90.671,42,90.671l-172.66,225.329
				c-49.34,76-112,46-112,46l-146-61.329c-114-52.671-158.67-48-158.67-48c-49.33-4.671-286-7.341-286-7.341H70
				c-79.33-13.33-67.33-80-67.33-80l82-213.33l13.99,4.67c26.67-48,34.67-232,34.67-232c3.34-87.34,76-69.34,76-69.34
				c137.34,56,606,60.67,606,60.67c257.33,4,419.34,115.33,419.34,115.33L1497.33,348.916z M1386.53,430.297l15.38-22.711
				l-25.91-15.67l-15.67,23.88L1386.53,430.297z M1374.82,459.886l10.85-25.891l-27.59-13.08l-11.08,27L1374.82,459.886z
				 M1356.25,505.666l15.75-38.8l-27.75-11.95l-16.25,38.75L1356.25,505.666z M1336.25,551.416l15.75-37.75l-27-12.5l-16,39.5
				L1336.25,551.416z M1317,598.666l15.75-37l-27.75-12.32l-15,37.569L1317,598.666z M1296.42,646.866l16.771-38.239l-27.44-11.461
				l-16,37.5L1296.42,646.866z M1279.75,686.666l11.13-25.56l-27.38-11.44l-10.62,25.131L1279.75,686.666z M1207.5,542.666
				l13-33.079l-17.75-8.421l-14,33L1207.5,542.666z M1191,390.666l13-31.75l-30.25-11.75l-12.75,31.5L1191,390.666z M1180.5,528.087
				l14.5-32.171l-30.67-12.67l-13.16,31.5L1180.5,528.087z M1172.5,435.416l13.75-32.5l-30.5-12.25l-13.25,31.25L1172.5,435.416z
				 M1151.25,374.416l13-31.75l-30-13l-13.5,31.5L1151.25,374.416z M1133,417.666l13.5-30.75l-31-12.5l-13.25,30L1133,417.666z
				 M1122.5,555.087l13.5-32l-30-13.5l-13.67,33L1122.5,555.087z M1113.96,462.566l13.54-32.32l-29.83-12.58l-13.38,31.61
				l-13.12,30.97l30,12.841L1113.96,462.566z M1111,357.416l14.25-31.25l-30.75-12.75l-13,31.75L1111,357.416z M1093,400.666
				l13.75-31.75l-31.25-11.5l-13,31.5L1093,400.666z M1083,538.587l13.5-32.841l-31-12.659l-13.5,32.329L1083,538.587z
				 M1074.34,445.916l13.49-32l-30.08-13.25l-13.58,32.141l-13,30.78l30.16,13.159L1074.34,445.916z M1043,522.087l13.67-32.341
				l-30.84-12.33l-13.5,30.671L1043,522.087z M1021,455.916l11.5-27l-36.021-16.95l-10.729-5.05H965v49h48.33H1021z M822.67,573.587
				V472.166H746h-15.33h-67.34H562h-35.33H510h-49.33h-53.34H352v101.421h55.33h53.34H510h52h101.33H746H822.67z M278.67,461.587
				v-22H206v22H278.67z M218,154.916l9-106l-76-6.33l-9,106.33L218,154.916z"/>
			<polygon fill="#CFDAAF" points="252.67,259.586 252.67,278.916 203.33,278.916 174.67,278.916 151.25,295.896 151.25,295.906 
				116.38,321.186 105.67,304.246 168.33,259.586 			"/>
			<polygon fill="#F6D6AF" points="396.5,99.006 396.5,124.416 356,119.916 356,78.096 396.5,82.916 			"/>
			<polygon fill="#F6D6AF" points="356,78.096 356,119.916 305,109.916 305,75.586 305,67.416 354.5,77.916 			"/>
			<polygon fill="#F6D6AF" points="1409.16,339.456 1386.53,373.616 1349.75,350.166 1372.5,315.166 			"/>
			<rect x="730.67" y="472.166" fill="#CFDAAF" width="15.33" height="42.08"/>
			<path fill="#CFDAAF" d="M1263,244.916l-19.76,32.84l-26.91-17.51l-11.71-7.33l18.62-33.229
				C1235.9,227.306,1249.28,235.736,1263,244.916z"/>
			<path fill="#B4D5EC" d="M1223.24,219.686l-18.62,33.229l-7.15,11.78l-39.147-22.88l6.06-11.57l11.37,5.71l18.59-33.069
				C1203.38,207.946,1213.08,213.556,1223.24,219.686z"/>
			<polygon fill="#B4D5EC" points="174,472.166 174,535.166 151.25,535.166 151.25,521.056 151.25,472.166 			"/>
			<rect x="908.78" y="550.916" fill="#B4D5EC" width="38.97" height="13.5"/>
			<polygon fill="#B4D5EC" points="908.78,550.916 908.78,564.416 869.81,564.416 869.8,564.416 869.771,550.916 			"/>
			<path fill="#F6D6AF" d="M1329.26,676.627l-3.01,3.789c0,0-13.26,13.16-37.96,14.351v-0.01l12.521-29.78L1329.26,676.627z"/>
			<polygon fill="#F6D6AF" points="1341.61,661.106 1329.26,676.627 1300.811,664.976 1308.311,647.127 1308.32,647.127 			"/>
			<polygon fill="#F6D6AF" points="1363.57,633.526 1341.61,661.106 1308.32,647.127 1321.561,615.627 			"/>
			<polygon fill="#F6D6AF" points="1401.91,585.346 1363.57,633.526 1321.561,615.627 1344.25,561.666 			"/>
			<polygon fill="#F6D6AF" points="1474.49,491.467 1416.75,566.696 1401.91,585.346 1344.25,561.666 1394.64,439.656 			"/>
			<path fill="#F6D6AF" d="M1448,411.166l59.12,38.25c-1.67,2.461-3.7,4.961-6.12,7.5l-26.51,34.551l-79.853-51.811l0.61-1.49
				l26.45-42.13l2.55,1.63L1448,411.166z"/>
			<path fill="#F6D6AF" d="M1497,397.666c0,0,30,22.55,10.12,51.75l-59.12-38.25l12.24-19.25l8.317-13.09L1497,397.666z"/>
			<polygon fill="#F6D6AF" points="1460.24,391.916 1448,411.166 1424.25,397.666 1421.7,396.036 1407.061,386.706 1419.89,365.887 
							"/>
			<polygon fill="#F6D6AF" points="1372.5,315.166 1349.75,350.166 1277.25,301.416 1299.5,267.166 			"/>
			<polygon fill="#F6D6AF" points="1251,344.606 1251.33,344.246 1251.87,344.606 1241.88,359.736 1177.38,333.296 1176.89,333.076 
				1188.95,305.136 1213.83,321.586 1215.05,322.336 			"/>
			<polygon fill="#F6D6AF" points="1233.58,293.266 1215.05,322.336 1213.83,321.586 1188.95,305.136 1189.33,304.246 
				1207.33,274.916 1233.3,293.086 			"/>
			<polygon fill="#F6D6AF" points="1243.24,277.756 1239.33,284.246 1233.58,293.266 1233.3,293.086 1207.33,274.916 
				1216.33,260.246 			"/>
			<polygon fill="#F6D6AF" points="971,564.916 971,572.926 869.83,573.246 869.8,564.416 869.81,564.416 908.78,564.416 
				947.75,564.416 947.75,564.916 			"/>
			<polygon fill="#F6D6AF" points="1290.88,661.106 1279.75,686.666 1252.88,674.797 1263.5,649.666 			"/>
			<polygon fill="#F6D6AF" points="1313.189,608.627 1296.42,646.866 1269.75,634.666 1285.75,597.166 			"/>
			<polygon fill="#F6D6AF" points="1332.75,561.666 1317,598.666 1290,586.916 1305,549.346 			"/>
			<polygon fill="#F6D6AF" points="1352,513.666 1336.25,551.416 1309,540.666 1325,501.166 			"/>
			<polygon fill="#F6D6AF" points="1372,466.866 1356.25,505.666 1328,493.666 1344.25,454.916 			"/>
			<polygon fill="#F6D6AF" points="1385.67,433.996 1374.82,459.886 1347,447.916 1358.08,420.916 			"/>
			<polygon fill="#F6D6AF" points="1401.91,407.586 1386.53,430.297 1360.33,415.796 1376,391.916 			"/>
			<polygon fill="#CFDAAF" points="1032.5,428.916 1021,455.916 1013.33,455.916 983.91,443.036 996.479,411.966 			"/>
			<polygon fill="#CFDAAF" points="1428.35,352.176 1419.89,365.887 1407.061,386.706 1386.53,373.616 1409.16,339.456 			"/>
			<polygon fill="#CFDAAF" points="1428.35,352.176 1468.561,378.826 1460.24,391.916 1419.89,365.887 			"/>
			<polygon fill="#CFDAAF" points="1197.47,264.696 1178.5,295.916 1177.95,297.136 1140.13,277.016 1141,274.916 1158.32,241.816 
							"/>
			<polygon fill="#CFDAAF" points="1177.95,297.136 1164.38,327.526 1126.15,310.586 1140.13,277.016 			"/>
			<polygon fill="#CFDAAF" points="1220.5,509.587 1207.5,542.666 1188.75,534.166 1202.75,501.166 			"/>
			<polygon fill="#CFDAAF" points="1255.92,399.766 1235.33,449.416 1210.67,439.366 1230.62,389.166 			"/>
			<path fill="#CFDAAF" d="M1194.34,202.886l-18.59,33.069l-11.37-5.71l-15.59-7.84l0.21-0.49l-5.439-2.609l17.199-34.431
				C1170.29,189.756,1181.66,195.786,1194.34,202.886z"/>
			<path fill="#CFDAAF" d="M1160.76,184.876l-17.199,34.431l-21.261-10.21l17.44-34.65
				C1144.95,176.946,1152.1,180.436,1160.76,184.876z"/>
			<path fill="#CFDAAF" d="M938.43,114.286l-7.1,38.63l-26.66-4l4.66-28l-34.67-1.229c1.18-7.79,2.02-12.25,2.02-12.25
				C884.22,107.576,905.09,108.536,938.43,114.286z"/>
			<path fill="#CFDAAF" d="M645,95.916v35h-16.99v-35.49C633.64,95.606,639.3,95.766,645,95.916z"/>
			<polygon fill="#CFDAAF" points="722,100.666 722,126.416 713.67,126.246 714,145.356 666,145.666 666,126.916 684.88,126.916 
				684.88,99.566 			"/>
			<polygon fill="#CFDAAF" points="684.88,99.566 684.88,126.916 666,126.916 666,99.006 			"/>
			<polygon fill="#CFDAAF" points="409,124.416 409,145.376 356,144.666 356,119.916 396.5,124.416 			"/>
			<path fill="#CFDAAF" d="M449.86,214.296l1.47,3.04l-1.83,0.74v0.01l-30.59,12.471l-33.58,13.689l-8.49-17.109
				c33.84-22.141,64.49-30.4,64.49-30.4l7.86,16.18L449.86,214.296z"/>
			<rect x="510" y="472.166" fill="#CFDAAF" width="16.67" height="42.08"/>
			<polygon fill="#CFDAAF" points="616.08,337.916 616.08,358.716 612,358.716 564.67,358.716 564.67,337.916 			"/>
			<polygon fill="#CFDAAF" points="283.44,394.416 283.51,419.916 252.67,419.586 252.33,299.916 283.18,300.246 			"/>
			<rect x="206" y="439.587" fill="#CFDAAF" width="72.67" height="22"/>
			<path fill="#CFDAAF" d="M405,337.916v21.82l-51.6,0.18c1-10.729,2.1-19.47,2.479-22.3L405,337.916z"/>
			<polygon fill="#CFDAAF" points="203.33,358.916 203.33,392.246 162.62,392.246 162.62,419.586 151.25,419.586 151.25,417.307 
				151.25,358.916 			"/>
			<polygon fill="#CFDAAF" points="189.75,472.166 189.75,569.937 174,569.937 174,535.166 174,472.166 			"/>
			<polygon fill="#B4D5EC" points="1013.33,455.916 965,455.916 965,406.916 985.75,406.916 996.479,411.966 983.91,443.036 			"/>
			<polygon fill="#B4D5EC" points="1127.5,430.246 1113.96,462.566 1084.62,449.416 1084.29,449.276 1097.67,417.666 			"/>
			<polygon fill="#B4D5EC" points="1113.96,462.566 1101.17,493.087 1071.17,480.246 1084.29,449.276 1084.62,449.416 			"/>
			<polygon fill="#B4D5EC" points="1136,523.087 1122.5,555.087 1092.33,542.587 1106,509.587 			"/>
			<polygon fill="#B4D5EC" points="1096.5,505.746 1083,538.587 1052,525.416 1065.5,493.087 			"/>
			<polygon fill="#B4D5EC" points="1056.67,489.746 1043,522.087 1012.33,508.087 1025.83,477.416 			"/>
			<polygon fill="#B4D5EC" points="1074.34,445.916 1061.33,476.746 1031.17,463.587 1044.17,432.806 			"/>
			<polygon fill="#B4D5EC" points="1087.83,413.916 1074.34,445.916 1044.17,432.806 1057.75,400.666 			"/>
			<polygon fill="#B4D5EC" points="1146.5,386.916 1133,417.666 1102.25,404.416 1115.5,374.416 			"/>
			<polygon fill="#B4D5EC" points="1106.75,368.916 1093,400.666 1062.5,388.916 1075.5,357.416 			"/>
			<polygon fill="#B4D5EC" points="1125.25,326.166 1111,357.416 1081.5,345.166 1094.5,313.416 			"/>
			<polygon fill="#B4D5EC" points="1164.25,342.666 1151.25,374.416 1120.75,361.166 1134.25,329.666 			"/>
			<polygon fill="#B4D5EC" points="1204,358.916 1191,390.666 1161,378.666 1173.75,347.166 			"/>
			<polygon fill="#B4D5EC" points="1186.25,402.916 1172.5,435.416 1142.5,421.916 1155.75,390.666 			"/>
			<polygon fill="#B4D5EC" points="1167.33,447.416 1154.33,479.246 1125.72,466.866 1124.05,466.146 1137.83,433.936 			"/>
			<polygon fill="#B4D5EC" points="1154.33,479.246 1141.33,511.087 1110.67,497.416 1124.05,466.146 1125.72,466.866 			"/>
			<polygon fill="#B4D5EC" points="1195,495.916 1180.5,528.087 1151.17,514.746 1164.33,483.246 			"/>
			<polygon fill="#B4D5EC" points="1176,539.587 1163,571.916 1132.5,559.087 1145.9,527.297 			"/>
			<path fill="#B4D5EC" d="M1148.79,222.406l-22.64,52.51c-23.263-6.83-42.23-11.54-57.271-14.79l0.12-0.54l25-64.08l28.3,13.591
				l21.07,10.59L1148.79,222.406z"/>
			<polygon fill="#B4D5EC" points="1323.5,392.416 1306.439,433.297 1264.38,415.796 1268,406.916 1267.62,404.666 1255.92,399.766 
				1230.62,389.166 1241.88,359.736 1251.87,344.606 			"/>
			<polygon fill="#B4D5EC" points="1306.439,433.297 1286.58,480.877 1244.87,463.596 1264.38,415.796 			"/>
			<polygon fill="#B4D5EC" points="1286.58,480.877 1266.87,528.087 1225.49,511.087 1244.87,463.596 			"/>
			<polygon fill="#B4D5EC" points="1266.87,528.087 1246.93,575.856 1206.54,557.526 1225.49,511.087 			"/>
			<polygon fill="#B4D5EC" points="1246.93,575.856 1227.5,622.416 1219,618.416 1187.33,604.587 1206.54,557.526 			"/>
			<path fill="#B4D5EC" d="M1236.83,652.246c0,0,20.34,17.5-4,26.841l-104.25-42.761l20.188-47.949l38.563,16.21l31.67,13.829
				l-9.67,22.671L1236.83,652.246z"/>
			<polygon fill="#B4D5EC" points="1148.771,588.377 1128.58,636.326 1049.12,603.726 1069.9,555.226 			"/>
			<polygon fill="#B4D5EC" points="908.78,517.687 908.78,550.916 869.771,550.916 869.67,517.746 			"/>
			<polygon fill="#B4D5EC" points="947.75,517.636 947.75,550.916 908.78,550.916 908.78,517.687 			"/>
			<polygon fill="#B4D5EC" points="1069.9,555.226 1049.12,603.726 974,572.916 971,572.926 971,564.916 947.75,564.916 
				947.75,564.416 947.75,550.916 947.75,517.636 980.33,517.587 			"/>
			<path fill="#B4D5EC" d="M1139.74,174.446l-17.44,34.65l-28.3-13.59l-25,64.08l-0.12,0.54c-31.93-6.899-46.13-7.21-46.13-7.21H868
				c-4.03-53.399,2.99-109.17,6.66-133.229l34.67,1.229l-4.66,28l26.66,4l7.1-38.63c43.38,7.5,107.88,23.11,191.57,55.63
				C1130,169.916,1133.479,171.467,1139.74,174.446z"/>
			<path fill="#B4D5EC" d="M876.68,107.436c0,0-0.84,4.46-2.02,12.25c-3.67,24.06-10.69,79.83-6.66,133.229h-37.33l-115.67-5
				c-22.33-38-49-51.18-49-51.18v-51.07l48-0.31l-0.33-19.11l8.33,0.171v-25.75l151.5,6.75
				C873.5,107.416,874.57,107.396,876.68,107.436z"/>
			<path fill="#B4D5EC" d="M645,130.916v63.5l-31.5,13.5l-3.5-1.5c-7.59-3.67-15.09-6.88-22.479-9.68V94.016
				c13.198,0.51,26.729,0.989,40.488,1.41v35.49H645z"/>
			<path fill="#B4D5EC" d="M587.521,94.016v102.72c-27.57-10.47-53.552-15.26-76.472-16.82v-55.67v-33.83
				C534.39,91.676,560.229,92.936,587.521,94.016z"/>
			<path fill="#B4D5EC" d="M459.5,122.586v58.96c-25.271,3.36-40.5,9.37-40.5,9.37c-3.46,1.61-6.8,3.141-10,4.58v-50.12v-20.96
				v-3.17h9L459.5,122.586z"/>
			<path fill="#B4D5EC" d="M511.05,124.246v55.67c-19.77-1.34-37.27-0.279-51.55,1.63v-58.96L511.05,124.246z"/>
			<path fill="#B4D5EC" d="M511.05,90.416v33.83l-51.55-1.66v-35.22C474.64,88.336,492.01,89.376,511.05,90.416z"/>
			<path fill="#B4D5EC" d="M459.5,87.366v35.22l-41.5-1.34v-5.66h-8.17v-16.58H396.5v-16.09
				C396.5,82.916,420.68,84.896,459.5,87.366z"/>
			<polygon fill="#B4D5EC" points="418,115.586 418,121.246 409,121.246 409,124.416 396.5,124.416 396.5,99.006 409.83,99.006 
				409.83,115.586 			"/>
			<path fill="#B4D5EC" d="M409,145.376v50.12v0.01c-25.08,11.36-42.25,18.03-53,21.82v-72.66L409,145.376z"/>
			<path fill="#B4D5EC" d="M356,144.666v72.66c-10.07,3.561-14.5,4.59-14.5,4.59H305v-92.33v-19.67l51,10V144.666z"/>
			<polygon fill="#B4D5EC" points="305,109.916 305,129.586 298.67,129.586 298.67,126.916 283.67,126.916 283.67,119.586 
				259.33,119.586 259.33,127.246 236.67,127.586 236.67,70.246 247.33,70.246 247.67,75.916 259,75.916 259,86.246 284.33,86.586 
				284.67,75.246 305,75.586 			"/>
			<polygon fill="#B4D5EC" points="227,48.916 218,154.916 142,148.916 151,42.586 			"/>
			<rect x="162.62" y="392.246" fill="#B4D5EC" width="40.71" height="27.34"/>
			<polygon fill="#B4D5EC" points="151.25,358.916 151.25,417.307 76.83,417.307 98,358.916 114,322.916 116.38,321.186 
				151.25,295.906 			"/>
			<polygon fill="#B4D5EC" points="203.33,278.916 203.33,358.916 151.25,358.916 151.25,295.906 151.25,295.896 174.67,278.916 			
				"/>
			<polygon fill="#B4D5EC" points="252.67,278.916 252.33,299.916 252.67,419.586 203.33,419.586 203.33,392.246 203.33,358.916 
				203.33,278.916 			"/>
			<path fill="#B4D5EC" d="M320,278.916c0,0,28-3.5-3,63l-20,52.5h-13.49h-0.07l-0.26-94.17v-21.33H305H320z"/>
			<path fill="#B4D5EC" d="M449.5,380.586v61.94l-46.75-0.28c-38.58,3.341-46.75-24.939-46.75-24.939
				c-6.29-4.359-4.67-35.149-2.6-57.392l51.6-0.18l44.5,0.18V380.586z"/>
			<path fill="#B4D5EC" d="M510,359.916v20.67h-60.5v-20.67l-44.5-0.18v-21.82l-49.12-0.3c0.07-0.63,0.12-0.97,0.12-0.97
				c16.67-53.601,58.09-61.73,58.09-61.73H498v84h12V359.916z"/>
			<polygon fill="#B4D5EC" points="616.33,296.586 616.08,358.716 616.08,337.916 564.67,337.916 564.67,358.716 562,358.716 
				562,358.816 549.67,358.786 549.67,274.916 603.33,274.916 			"/>
			<polygon fill="#B4D5EC" points="549.67,274.916 549.67,358.786 510,358.716 510,358.916 498,358.916 498,274.916 			"/>
			<polygon fill="#B4D5EC" points="562,358.816 562,442.526 449.5,442.526 449.5,380.586 510,380.586 510,359.916 510,358.916 
				549.67,358.916 549.67,358.786 			"/>
			<polygon fill="#B4D5EC" points="612,358.916 612,442.526 562,442.526 562,358.816 564.67,358.816 564.67,358.916 			"/>
			<path fill="#B4D5EC" d="M726.49,331.426v0.01l-9.82,27.28h-52H629l0.33-62.131H666v7
				C685.229,315.866,706.26,324.856,726.49,331.426z"/>
			<polygon fill="#B4D5EC" points="664.67,358.716 664.67,442.526 612,442.526 612,358.916 616.08,358.916 629,358.916 629,358.716 
							"/>
			<rect x="664.67" y="358.716" fill="#B4D5EC" width="52" height="83.813"/>
			<path fill="#B4D5EC" d="M822.67,349.246v93.28h-106v-83.811l9.82-27.279v-0.01C777.08,347.886,822.67,349.246,822.67,349.246z"/>
			<polygon fill="#B4D5EC" points="822.67,472.166 822.67,573.587 746,573.587 746,514.246 746,472.166 			"/>
			<polygon fill="#B4D5EC" points="746,514.246 746,573.587 663.33,573.587 663.33,472.166 730.67,472.166 730.67,514.246 			"/>
			<rect x="562" y="472.166" fill="#B4D5EC" width="101.33" height="101.421"/>
			<polygon fill="#B4D5EC" points="562,472.166 562,573.587 510,573.587 510,514.246 526.67,514.246 526.67,472.166 			"/>
			<polygon fill="#B4D5EC" points="510,514.246 510,573.587 460.67,573.587 460.67,472.166 510,472.166 			"/>
			<rect x="407.33" y="472.166" fill="#B4D5EC" width="53.34" height="101.421"/>
			<rect x="352" y="472.166" fill="#B4D5EC" width="55.33" height="101.421"/>
			<polygon fill="#B4D5EC" points="229.33,472.166 229.33,569.946 189.75,569.937 189.75,472.166 			"/>
			<polygon fill="#B4D5EC" points="308.67,472.166 308.67,569.956 229.33,569.946 229.33,472.166 			"/>
			<polygon fill="#B4D5EC" points="174,535.166 174,569.937 100.25,569.926 100.25,521.056 151.25,521.056 151.25,535.166 			"/>
			<polygon fill="#B4D5EC" points="151.25,472.166 151.25,521.056 100.25,521.056 100.25,469.476 57.91,469.476 76.83,417.307 
				151.25,417.307 151.25,419.586 			"/>
			<path fill="#B4D5EC" d="M100.25,521.056v48.87L68,569.916c-34,0.33-33.33-36.329-33.33-36.329l23.24-64.109h42.34V521.056z"/>
		</g>
		<g>
			<path fill="none" stroke="#000000" stroke-width="3" stroke-miterlimit="10" d="M98.66,305.586c26.67-48,34.67-232,34.67-232
				c3.34-87.34,76-69.34,76-69.34c137.34,56,606,60.67,606,60.67c257.33,4,419.34,115.33,419.34,115.33l262.66,168.67
				c78,42.67,42,90.671,42,90.671l-172.66,225.329c-49.34,76-112,46-112,46l-146-61.329c-114-52.671-158.67-48-158.67-48
				c-49.33-4.671-286-7.341-286-7.341H70c-79.33-13.33-67.33-80-67.33-80l82-213.33L98.66,305.586z"/>
			<path fill="none" stroke="#000000" stroke-miterlimit="10" d="M151.25,295.906l-34.87,25.28l-2.38,1.73l-16,36l-21.17,58.391
				l-18.92,52.169l-23.24,64.11c0,0-0.67,36.659,33.33,36.329l32.25,0.011l73.75,0.01h15.75l39.58,0.012l79.34,0.01"/>
			<polyline fill="none" stroke="#000000" stroke-miterlimit="10" points="252.67,278.916 203.33,278.916 174.67,278.916 
				151.25,295.896 			"/>
			<polyline fill="none" stroke="#000000" stroke-miterlimit="10" points="189.75,472.166 229.33,472.166 308.67,472.166 
				308.67,569.956 229.33,569.956 189.75,569.956 			"/>
			<polyline fill="none" stroke="#000000" stroke-miterlimit="10" points="174,472.166 189.75,472.166 189.75,569.937 
				189.75,569.956 174,569.956 174,569.937 174,535.166 			"/>
			<polygon fill="none" stroke="#000000" stroke-miterlimit="10" points="174,535.166 151.25,535.166 151.25,521.056 
				151.25,472.166 174,472.166 			"/>
			<polyline fill="none" stroke="#000000" stroke-miterlimit="10" points="57.91,469.476 100.25,469.476 100.25,521.056 
				100.25,569.926 100.25,569.956 			"/>
			<line fill="none" stroke="#000000" stroke-miterlimit="10" x1="151.25" y1="521.056" x2="100.25" y2="521.056"/>
			<polyline fill="none" stroke="#000000" stroke-miterlimit="10" points="151.25,295.896 151.25,295.906 151.25,358.916 
				151.25,417.307 151.25,419.586 151.25,472.166 			"/>
			<line fill="none" stroke="#000000" stroke-miterlimit="10" x1="76.83" y1="417.307" x2="151.25" y2="417.307"/>
			<line fill="none" stroke="#000000" stroke-miterlimit="10" x1="162.62" y1="419.586" x2="151.25" y2="419.586"/>
			<polyline fill="none" stroke="#000000" stroke-miterlimit="10" points="203.33,278.916 203.33,358.916 203.33,392.246 			"/>
			<rect x="162.62" y="392.246" fill="none" stroke="#000000" stroke-miterlimit="10" width="40.71" height="27.34"/>
			<polygon fill="none" stroke="#000000" stroke-miterlimit="10" points="283.44,394.416 283.51,419.916 252.67,419.586 
				252.33,299.916 283.18,300.246 			"/>
			<line fill="none" stroke="#000000" stroke-miterlimit="10" x1="151.25" y1="358.916" x2="203.33" y2="358.916"/>
			<line fill="none" stroke="#000000" stroke-miterlimit="10" x1="203.33" y1="419.586" x2="252.67" y2="419.586"/>
			<polyline fill="none" stroke="#000000" stroke-miterlimit="10" points="116.38,321.186 105.67,304.246 168.33,259.586 
				252.67,259.586 252.67,278.916 252.33,299.916 			"/>
			<path fill="none" stroke="#000000" stroke-miterlimit="10" d="M283.51,394.416H297l20-52.5c31-66.5,3-63,3-63h-15h-21.82v21.33"
				/>
			<polyline fill="none" stroke="#000000" stroke-miterlimit="10" points="305,278.916 305,221.916 305,129.586 298.67,129.586 
				298.67,126.916 283.67,126.916 283.67,119.586 259.33,119.586 259.33,127.246 236.67,127.586 236.67,70.246 247.33,70.246 
				247.67,75.916 259,75.916 259,86.246 284.33,86.586 284.67,75.246 305,75.586 305,109.916 305,129.586 			"/>
			<polygon fill="none" stroke="#000000" stroke-miterlimit="10" points="151,42.586 142,148.916 218,154.916 227,48.916 			"/>
			<path fill="none" stroke="#000000" stroke-miterlimit="10" d="M409,195.506c-25.08,11.36-42.25,18.03-53,21.82
				c-10.07,3.561-14.5,4.59-14.5,4.59H305"/>
			<path fill="none" stroke="#000000" stroke-miterlimit="10" d="M645,130.916v63.5l-31.5,13.5l-3.5-1.5
				c-7.59-3.67-15.09-6.88-22.479-9.68c-27.57-10.47-53.552-15.26-76.472-16.82c-19.77-1.34-37.27-0.279-51.55,1.63
				c-25.27,3.36-40.5,9.37-40.5,9.37c-3.46,1.61-6.8,3.141-10,4.58"/>
			<path fill="none" stroke="#000000" stroke-miterlimit="10" d="M305,75.586v-8.17l49.5,10.5l1.5,0.181l40.5,4.819
				c0,0,24.18,1.98,63,4.45c15.14,0.97,32.51,2.01,51.55,3.05c23.34,1.261,49.181,2.521,76.472,3.601
				c13.198,0.51,26.729,0.989,40.488,1.41c5.63,0.18,11.29,0.34,16.99,0.489"/>
			<polyline fill="none" stroke="#000000" stroke-miterlimit="10" points="305,109.916 356,119.916 356,144.666 356,217.326 
				356,217.336 			"/>
			<polyline fill="none" stroke="#000000" stroke-miterlimit="10" points="396.5,82.916 396.5,99.006 396.5,124.416 409,124.416 
				409,145.376 409,195.496 409,195.506 			"/>
			<polyline fill="none" stroke="#000000" stroke-miterlimit="10" points="587.521,94.006 587.521,94.016 587.521,196.736 			"/>
			<polyline fill="none" stroke="#000000" stroke-miterlimit="10" points="511.05,90.416 511.05,124.246 511.05,179.916 
				511.05,179.926 			"/>
			<polyline fill="none" stroke="#000000" stroke-miterlimit="10" points="459.5,87.366 459.5,122.586 459.5,181.546 			"/>
			<polyline fill="none" stroke="#000000" stroke-miterlimit="10" points="396.5,99.006 409.83,99.006 409.83,115.586 418,115.586 
				418,121.246 459.5,122.586 511.05,124.246 			"/>
			<polyline fill="none" stroke="#000000" stroke-miterlimit="10" points="409,124.416 409,121.246 418,121.246 			"/>
			<line fill="none" stroke="#000000" stroke-miterlimit="10" x1="356" y1="144.666" x2="409" y2="145.376"/>
			<polygon fill="none" stroke="#000000" stroke-miterlimit="10" points="645,130.916 628.01,130.916 628.01,95.426 645,95.426 
				645,95.916 			"/>
			<path fill="none" stroke="#000000" stroke-miterlimit="10" d="M666,145.666l48-0.31l-0.33-19.11l8.33,0.17v-25.75l-37.12-1.1
				L666,99.006v27.91V145.666v51.07c0,0,26.67,13.18,49,51.18l115.67,5H868h154.75c0,0,14.2,0.311,46.13,7.21
				c15.04,3.25,34.01,7.96,57.271,14.79"/>
			<polyline fill="none" stroke="#000000" stroke-miterlimit="10" points="684.88,99.006 684.88,99.566 684.88,126.916 666,126.916 
							"/>
			<path fill="none" stroke="#000000" stroke-miterlimit="10" d="M722,100.666l151.5,6.75c0,0,1.07-0.02,3.18,0.021
				c7.54,0.14,28.41,1.1,61.75,6.85c43.38,7.5,107.88,23.11,191.57,55.63c0,0,3.479,1.551,9.74,4.53
				c5.21,2.5,12.357,5.99,21.02,10.43c9.53,4.88,20.9,10.91,33.58,18.011c9.04,5.06,18.74,10.67,28.9,16.8
				c12.66,7.62,26.04,16.05,39.76,25.229l-19.76,32.84l-3.91,6.49c0,0-13.33,37.34,12,60l0.54,0.36l71.63,47.809l-17.061,40.881
				l-19.859,47.58l-19.71,47.21l-19.94,47.771l-19.43,46.558l-8.5-4l-9.67,22.671l27.5,11.159c0,0,20.34,17.5-4,26.841
				l-104.25-42.761l-79.46-32.602L974,572.916l-3,0.011l-101.17,0.319l-0.03-8.83l-0.03-13.5l-0.1-33.17l39.11-0.062l38.97-0.05
				l32.58-0.05l89.57,37.641l78.867,33.149l38.563,16.21l19.21-47.061l18.95-46.439l19.38-47.49l19.51-47.8l3.62-8.881l-0.38-2.25
				l-11.7-4.898l-25.3-10.602l11.26-29.43l-64.5-26.439l-0.49-0.221l-12.51-5.55l-38.229-16.939l13.979-33.57l0.87-2.101l17.32-33.1
				l6.06-11.57"/>
			<polyline fill="none" stroke="#000000" stroke-miterlimit="10" points="510,514.246 510,573.587 460.67,573.587 			"/>
			<line fill="none" stroke="#000000" stroke-miterlimit="10" x1="460.67" y1="472.166" x2="510" y2="472.166"/>
			<polyline fill="none" stroke="#000000" stroke-miterlimit="10" points="407.33,573.587 352,573.587 352,472.166 407.33,472.166 
							"/>
			<rect x="407.33" y="472.166" fill="none" stroke="#000000" stroke-miterlimit="10" width="53.34" height="101.421"/>
			<polyline fill="none" stroke="#000000" stroke-miterlimit="10" points="663.33,573.587 562,573.587 562,472.166 663.33,472.166 
							"/>
			<polyline fill="none" stroke="#000000" stroke-miterlimit="10" points="746,472.166 822.67,472.166 822.67,573.587 746,573.587 
							"/>
			<polyline fill="none" stroke="#000000" stroke-miterlimit="10" points="746,514.246 746,573.587 663.33,573.587 663.33,472.166 
				730.67,472.166 			"/>
			<rect x="730.67" y="472.166" fill="none" stroke="#000000" stroke-miterlimit="10" width="15.33" height="42.08"/>
			<rect x="510" y="472.166" fill="none" stroke="#000000" stroke-miterlimit="10" width="16.67" height="42.08"/>
			<line fill="none" stroke="#000000" stroke-miterlimit="10" x1="562" y1="472.166" x2="526.67" y2="472.166"/>
			<line fill="none" stroke="#000000" stroke-miterlimit="10" x1="562" y1="573.587" x2="510" y2="573.587"/>
			<rect x="206" y="439.587" fill="none" stroke="#000000" stroke-miterlimit="10" width="72.67" height="22"/>
			<g id="XMLID_3_">
				<g>
					<path fill="#CFDAAF" d="M449.86,214.3l1.47,3.04l-1.83,0.74v0.01l-30.59,12.47l-33.58,13.69l-8.49-17.11
						c0,0,43.65-25.83,64.49-30.4l7.86,16.18L449.86,214.3z"/>
				</g>
				<g>
					<path fill="none" stroke="#000000" stroke-miterlimit="10" d="M449.5,218.09l-30.59,12.47l-33.58,13.69l-8.49-17.11
						c0,0,43.65-25.83,64.49-30.4l7.86,16.18l0.67,1.38l1.47,3.04l-1.83,0.74"/>
				</g>
			</g>
			<path fill="none" stroke="#000000" stroke-miterlimit="10" d="M616.08,358.716l0.25-62.13l-13-21.67H414.09
				c0,0-41.42,8.13-58.09,61.73c0,0-0.05,0.34-0.12,0.97c-0.38,2.83-1.479,11.57-2.479,22.3c-2.07,22.24-3.69,53.029,2.6,57.391
				c0,0,8.17,28.28,46.75,24.939l46.75,0.28v-61.94v-20.67l-44.5-0.18v-21.82l-49.12-0.3h-0.01"/>
			<line fill="none" stroke="#000000" stroke-miterlimit="10" x1="405" y1="359.736" x2="353.4" y2="359.916"/>
			<path fill="none" stroke="#000000" stroke-miterlimit="10" d="M716.67,442.526h106v-93.28c0,0-45.59-1.359-96.18-17.819
				c-20.23-6.57-41.262-15.561-60.49-27.841v-7h-36.67l-0.33,62.13v0.2h-12.92"/>
			<line fill="none" stroke="#000000" stroke-miterlimit="10" x1="449.5" y1="442.526" x2="562" y2="442.526"/>
			<polyline fill="none" stroke="#000000" stroke-miterlimit="10" points="449.5,380.586 510,380.586 510,359.916 510,358.916 
				510,358.716 549.67,358.786 562,358.816 564.67,358.816 612,358.906 616.08,358.916 			"/>
			<polygon fill="none" stroke="#000000" stroke-miterlimit="10" points="549.67,358.786 549.67,358.916 510,358.916 498,358.916 
				498,274.916 549.67,274.916 			"/>
			<polygon fill="none" stroke="#000000" stroke-miterlimit="10" points="616.08,358.916 612,358.916 564.67,358.916 
				564.67,358.816 564.67,358.716 564.67,337.916 616.08,337.916 616.08,358.716 			"/>
			<polyline fill="none" stroke="#000000" stroke-miterlimit="10" points="664.67,358.716 716.67,358.716 716.67,442.526 
				664.67,442.526 			"/>
			<polyline fill="none" stroke="#000000" stroke-miterlimit="10" points="612,442.526 562,442.526 562,358.816 562,358.716 
				564.67,358.716 612,358.716 			"/>
			<polygon fill="none" stroke="#000000" stroke-miterlimit="10" points="664.67,442.526 612,442.526 612,358.916 612,358.906 
				612,358.716 616.08,358.716 629,358.716 664.67,358.716 			"/>
			<line fill="none" stroke="#000000" stroke-miterlimit="10" x1="726.49" y1="331.436" x2="716.67" y2="358.716"/>
			<path fill="none" stroke="#000000" stroke-miterlimit="10" d="M876.68,107.436c0,0-0.84,4.46-2.02,12.25
				c-3.67,24.06-10.69,79.83-6.66,133.229"/>
			<polyline fill="none" stroke="#000000" stroke-miterlimit="10" points="938.67,112.956 938.43,114.286 931.33,152.916 
				904.67,148.916 909.33,120.916 874.66,119.686 			"/>
			<path fill="none" stroke="#000000" stroke-miterlimit="10" d="M1009.87,282.636"/>
			<polyline fill="none" stroke="#000000" stroke-miterlimit="10" points="1010.08,280.056 1010.08,280.056 976,274.916 
				972,296.916 998.67,300.916 			"/>
			<path fill="none" stroke="#000000" stroke-miterlimit="10" d="M1010.5,274.916"/>
			<g id="XMLID_2_">
				<g>
					<polygon fill="#CFDAAF" points="800.33,300.92 791.67,319.59 758.8,306.42 725.66,292.82 732.67,274.92 766.67,287.92 					"/>
				</g>
				<g>
					<polygon fill="none" stroke="#000000" stroke-miterlimit="10" points="766.67,287.92 800.33,300.92 791.67,319.59 
						758.8,306.42 725.66,292.82 732.67,274.92 					"/>
				</g>
			</g>
			<line fill="none" stroke="#000000" stroke-miterlimit="10" x1="449.5" y1="218.086" x2="449.5" y2="218.076"/>
			<path fill="none" stroke="#000000" stroke-miterlimit="10" d="M1002.5,499.416"/>
			<polygon fill="none" stroke="#000000" stroke-miterlimit="10" points="996.479,411.966 985.75,406.916 965,406.916 965,455.916 
				1013.33,455.916 1021,455.916 1032.5,428.916 			"/>
			<polyline fill="none" stroke="#000000" stroke-miterlimit="10" points="1013.33,455.916 983.91,443.036 996.479,411.966 			"/>
			<polyline fill="none" stroke="#000000" stroke-miterlimit="10" points="1069,259.586 1094,195.506 1122.3,209.096 
				1143.561,219.306 1149,221.916 1148.79,222.406 1126.15,274.916 1125.5,276.416 			"/>
			<polyline fill="none" stroke="#000000" stroke-miterlimit="10" points="1139.74,174.446 1122.3,209.096 1143.37,219.686 
				1148.79,222.406 1164.38,230.246 1175.75,235.956 1194.34,202.886 			"/>
			<polyline fill="none" stroke="#000000" stroke-miterlimit="10" points="1160.76,184.876 1143.561,219.306 1143.37,219.686 			"/>
			<polygon fill="none" stroke="#000000" stroke-miterlimit="10" points="1094.5,313.416 1081.5,345.166 1111,357.416 
				1125.25,326.166 			"/>
			<polygon fill="none" stroke="#000000" stroke-miterlimit="10" points="1134.25,329.666 1120.75,361.166 1151.25,374.416 
				1164.25,342.666 			"/>
			<polygon fill="none" stroke="#000000" stroke-miterlimit="10" points="1173.75,347.166 1161,378.666 1191,390.666 1204,358.916 
							"/>
			<polygon fill="none" stroke="#000000" stroke-miterlimit="10" points="1075.5,357.416 1062.5,388.916 1093,400.666 
				1106.75,368.916 			"/>
			<polygon fill="none" stroke="#000000" stroke-miterlimit="10" points="1115.5,374.416 1102.25,404.416 1133,417.666 
				1146.5,386.916 			"/>
			<polygon fill="none" stroke="#000000" stroke-miterlimit="10" points="1155.75,390.666 1142.5,421.916 1172.5,435.416 
				1186.25,402.916 			"/>
			<polygon fill="none" stroke="#000000" stroke-miterlimit="10" points="1074.34,445.916 1087.83,413.916 1057.75,400.666 
				1044.17,432.806 1031.17,463.587 1061.33,476.746 			"/>
			<line fill="none" stroke="#000000" stroke-miterlimit="10" x1="1044.17" y1="432.806" x2="1074.34" y2="445.916"/>
			<polygon fill="none" stroke="#000000" stroke-miterlimit="10" points="1113.96,462.566 1127.5,430.246 1097.67,417.666 
				1084.29,449.276 1071.17,480.246 1101.17,493.087 			"/>
			<polygon fill="none" stroke="#000000" stroke-miterlimit="10" points="1154.33,479.246 1167.33,447.416 1137.83,433.936 
				1124.05,466.146 1110.67,497.416 1141.33,511.087 			"/>
			<line fill="none" stroke="#000000" stroke-miterlimit="10" x1="1084.62" y1="449.416" x2="1113.96" y2="462.566"/>
			<polyline fill="none" stroke="#000000" stroke-miterlimit="10" points="1125.72,466.866 1154.33,479.246 1155.16,479.606 			"/>
			<polygon fill="none" stroke="#000000" stroke-miterlimit="10" points="1025.83,477.416 1012.33,508.087 1043,522.087 
				1056.67,489.746 			"/>
			<polygon fill="none" stroke="#000000" stroke-miterlimit="10" points="1065.5,493.087 1052,525.416 1083,538.587 1096.5,505.746 
							"/>
			<polygon fill="none" stroke="#000000" stroke-miterlimit="10" points="1106,509.587 1092.33,542.587 1122.5,555.087 
				1136,523.087 			"/>
			<polygon fill="none" stroke="#000000" stroke-miterlimit="10" points="1164.33,483.246 1151.17,514.746 1180.5,528.087 
				1195,495.916 			"/>
			<line fill="none" stroke="#000000" stroke-miterlimit="10" x1="1145.9" y1="527.297" x2="1145.439" y2="527.106"/>
			<polygon fill="none" stroke="#000000" stroke-miterlimit="10" points="1145.9,527.297 1132.5,559.087 1163,571.916 1176,539.587 
							"/>
			<line fill="none" stroke="#000000" stroke-miterlimit="10" x1="1146.12" y1="526.776" x2="1145.9" y2="527.297"/>
			<polygon fill="none" stroke="#000000" stroke-miterlimit="10" points="1202.75,501.166 1188.75,534.166 1207.5,542.666 
				1220.5,509.587 			"/>
			<polyline fill="none" stroke="#000000" stroke-miterlimit="10" points="1230.62,389.166 1210.67,439.366 1235.33,449.416 
				1255.92,399.766 			"/>
			<line fill="none" stroke="#000000" stroke-miterlimit="10" x1="1187.33" y1="604.587" x2="1219" y2="618.416"/>
			<polyline fill="none" stroke="#000000" stroke-miterlimit="10" points="1223.24,219.686 1204.62,252.916 1197.47,264.696 
				1178.5,295.916 1177.95,297.136 1164.38,327.526 			"/>
			<line fill="none" stroke="#000000" stroke-miterlimit="10" x1="1158.32" y1="241.816" x2="1197.47" y2="264.696"/>
			<polyline fill="none" stroke="#000000" stroke-miterlimit="10" points="1139,276.416 1140.13,277.016 1177.95,297.136 			"/>
			<polyline fill="none" stroke="#000000" stroke-miterlimit="10" points="1243.24,277.756 1216.33,260.246 1207.33,274.916 
				1189.33,304.246 1188.95,305.136 1176.89,333.076 			"/>
			<line fill="none" stroke="#000000" stroke-miterlimit="10" x1="1251.87" y1="344.606" x2="1241.88" y2="359.736"/>
			<polyline fill="none" stroke="#000000" stroke-miterlimit="10" points="1188.95,305.136 1213.83,321.586 1215.05,322.336 
				1251,344.606 			"/>
			<line fill="none" stroke="#000000" stroke-miterlimit="10" x1="1216.33" y1="260.246" x2="1204.62" y2="252.916"/>
			<line fill="none" stroke="#000000" stroke-miterlimit="10" x1="1264.38" y1="415.796" x2="1306.439" y2="433.297"/>
			<line fill="none" stroke="#000000" stroke-miterlimit="10" x1="1244.87" y1="463.596" x2="1286.58" y2="480.877"/>
			<line fill="none" stroke="#000000" stroke-miterlimit="10" x1="1225.49" y1="511.087" x2="1266.87" y2="528.087"/>
			<line fill="none" stroke="#000000" stroke-miterlimit="10" x1="1206.54" y1="557.526" x2="1246.93" y2="575.856"/>
			<line fill="none" stroke="#000000" stroke-miterlimit="10" x1="1148.771" y1="588.377" x2="1128.58" y2="636.326"/>
			<line fill="none" stroke="#000000" stroke-miterlimit="10" x1="1069.9" y1="555.226" x2="1049.12" y2="603.726"/>
			<polyline fill="none" stroke="#000000" stroke-miterlimit="10" points="947.75,517.636 947.75,550.916 947.75,564.416 
				947.75,564.916 971,564.916 971,572.926 			"/>
			<polyline fill="none" stroke="#000000" stroke-miterlimit="10" points="869.81,564.416 908.78,564.416 947.75,564.416 			"/>
			<polyline fill="none" stroke="#000000" stroke-miterlimit="10" points="908.78,517.636 908.78,517.687 908.78,550.916 
				908.78,564.416 			"/>
			<polyline fill="none" stroke="#000000" stroke-miterlimit="10" points="869.771,550.916 908.78,550.916 947.75,550.916 			"/>
			<polygon fill="none" stroke="#000000" stroke-miterlimit="10" points="1372.5,315.166 1349.75,350.166 1277.25,301.416 
				1299.5,267.166 			"/>
			<path fill="none" stroke="#000000" stroke-miterlimit="10" d="M1372.5,315.166l36.66,24.29l19.188,12.721l40.21,26.649
				l28.44,18.84c0,0,30,22.55,10.12,51.75c-1.67,2.461-3.7,4.961-6.12,7.5l-26.51,34.551l-57.74,75.229l-14.84,18.648l-38.34,48.182
				l-21.96,27.58l-12.353,15.521l-3.01,3.789c0,0-13.26,13.16-37.96,14.351c-14.61,0.689-33.22-2.8-55.46-15.68"/>
			<polyline fill="none" stroke="#000000" stroke-miterlimit="10" points="1349.75,350.166 1386.53,373.616 1407.061,386.706 
				1421.7,396.036 1424.25,397.666 1448,411.166 1460.24,391.916 1468.561,378.826 			"/>
			<line fill="none" stroke="#000000" stroke-miterlimit="10" x1="1409.16" y1="339.456" x2="1386.53" y2="373.616"/>
			<polyline fill="none" stroke="#000000" stroke-miterlimit="10" points="1428.35,352.176 1419.89,365.887 1407.061,386.706 			"/>
			<line fill="none" stroke="#000000" stroke-miterlimit="10" x1="1419.89" y1="365.887" x2="1460.24" y2="391.916"/>
			<line fill="none" stroke="#000000" stroke-miterlimit="10" x1="1507.12" y1="449.416" x2="1448" y2="411.166"/>
			<polyline fill="none" stroke="#000000" stroke-miterlimit="10" points="1308.311,647.127 1300.811,664.976 1288.29,694.757 			
				"/>
			<polyline fill="none" stroke="#000000" stroke-miterlimit="10" points="1421.7,396.036 1395.25,438.166 1394.64,439.656 
				1344.25,561.666 1321.561,615.627 1308.32,647.127 			"/>
			<polyline fill="none" stroke="#000000" stroke-miterlimit="10" points="1474.49,491.467 1394.64,439.656 1393.5,438.916 			"/>
			<line fill="none" stroke="#000000" stroke-miterlimit="10" x1="1401.91" y1="585.346" x2="1344.25" y2="561.666"/>
			<line fill="none" stroke="#000000" stroke-miterlimit="10" x1="1363.57" y1="633.526" x2="1321.561" y2="615.627"/>
			<polyline fill="none" stroke="#000000" stroke-miterlimit="10" points="1308.311,647.127 1308.32,647.127 1341.61,661.106 			"/>
			<line fill="none" stroke="#000000" stroke-miterlimit="10" x1="1300.811" y1="664.976" x2="1329.26" y2="676.627"/>
			<polygon fill="none" stroke="#000000" stroke-miterlimit="10" points="1376,391.916 1360.33,415.796 1386.53,430.297 
				1401.91,407.586 			"/>
			<polygon fill="none" stroke="#000000" stroke-miterlimit="10" points="1358.08,420.916 1347,447.916 1374.82,459.886 
				1385.67,433.996 			"/>
			<polygon fill="none" stroke="#000000" stroke-miterlimit="10" points="1344.25,454.916 1328,493.666 1356.25,505.666 
				1372,466.866 			"/>
			<polygon fill="none" stroke="#000000" stroke-miterlimit="10" points="1325,501.166 1309,540.666 1336.25,551.416 1352,513.666 
							"/>
			<polygon fill="none" stroke="#000000" stroke-miterlimit="10" points="1305,549.346 1290,586.916 1317,598.666 1332.75,561.666 
							"/>
			<polygon fill="none" stroke="#000000" stroke-miterlimit="10" points="1285.75,597.166 1269.75,634.666 1296.42,646.866 
				1313.189,608.627 			"/>
			<polygon fill="none" stroke="#000000" stroke-miterlimit="10" points="1263.5,649.666 1252.88,674.797 1279.75,686.666 
				1290.88,661.106 			"/>
			<polyline fill="none" stroke="#000000" stroke-miterlimit="10" points="1239.33,284.246 1233.58,293.266 1215.05,322.336 			"/>
			<line fill="none" stroke="#000000" stroke-miterlimit="10" x1="1207.33" y1="274.916" x2="1233.3" y2="293.086"/>
			<polyline fill="none" stroke="#000000" stroke-miterlimit="10" points="396.5,124.416 356,119.916 356,78.096 			"/>
			<polyline fill="none" stroke="#000000" stroke-miterlimit="10" points="229.33,472.166 229.33,569.946 229.33,569.956 			"/>
		</g>
	</g>
	<rect x="1092.667" y="404.916" fill="none" width="208" height="54"/>
</g>
<g id="XMLID_4_">
	<g>
		<polygon fill="#CFDAAF" points="1047.33,285.75 1042.02,307.4 998.67,300.92 972,296.92 976,274.92 1009.56,279.98 		"/>
	</g>
	<g>
		<polygon fill="none" stroke="#000000" stroke-miterlimit="10" points="998.67,300.92 1042.02,307.4 1047.33,285.75 
			1009.56,279.98 976,274.92 972,296.92 		"/>
	</g>
</g>
	

</svg>
