<?xml version="1.0" encoding="utf-8"?>
<!-- Generator: Adobe Illustrator 16.0.0, SVG Export Plug-In . SVG Version: 6.00 Build 0)  -->
<!DOCTYPE svg PUBLIC "-//W3C//DTD SVG 1.1//EN" "http://www.w3.org/Graphics/SVG/1.1/DTD/svg11.dtd">
<svg version="1.1" id="图层_1" xmlns="http://www.w3.org/2000/svg" xmlns:xlink="http://www.w3.org/1999/xlink" x="0px" y="0px"
	 width="43px" height="43px" viewBox="0 0 43 43" enable-background="new 0 0 43 43" xml:space="preserve">
<path fill="#999999" d="M12.923,26.812c0,0.851,0.689,1.539,1.539,1.539s1.539-0.688,1.539-1.539s-0.689-1.539-1.539-1.539
	S12.923,25.961,12.923,26.812z"/>
<path fill="#999999" d="M25.765,26.812c0,0.851,0.688,1.539,1.539,1.539s1.539-0.688,1.539-1.539s-0.688-1.539-1.539-1.539
	S25.765,25.961,25.765,26.812z"/>
<path fill="#999999" d="M36.832,22.173c-0.002-0.21-0.007-0.421-0.018-0.635c0.006-0.112,0.014-0.226,0.02-0.34
	c0.02-0.311-0.033-0.647-0.139-1.001c-0.678-5.258-3.916-11.06-11.445-12.561c0.093-0.31,0.144-0.635,0.144-0.971
	c0-2.042-1.835-3.697-4.097-3.697c-2.264,0-4.098,1.655-4.098,3.697c0,0.339,0.051,0.667,0.146,0.979
	C8.946,9.357,5.807,16.533,5.759,22.213c-1.172,0.869-1.905,2.252-1.905,3.78c0,1.95,1.193,3.665,2.971,4.374
	c1.691,10.73,2.405,7.832,2.405,6.559c0-0.582-0.251-2.24-0.321-4.256c0.64,1.176,1.452,2.268,2.425,3.24
	c2.658,2.658,6.192,4.122,9.952,4.122c3.759,0,7.294-1.464,9.951-4.122c0.622-0.621,1.177-1.291,1.664-2
	c-0.065,1.786-0.116,3.324-0.116,3.893c0,1.279,1.232-0.336,2.532-5.783c0.135-0.565,0.256-1.097,0.365-1.6
	c1.854-0.674,3.109-2.427,3.109-4.427C38.792,24.441,38.036,23.039,36.832,22.173z M4.504,25.993c0-1.155,0.486-2.215,1.289-2.964
	c0.011,0.091,0.023,0.176,0.039,0.252h0c0.315,2.477,0.607,4.564,0.875,6.318C5.375,28.912,4.504,27.538,4.504,25.993z
	 M32.951,32.597c-2.314,4.05-6.676,6.786-11.665,6.786c-5.572,0-10.361-3.412-12.389-8.256c0.062-2.857,0.632-6.033,2.732-7.844
	c2.257-1.945,3.355-5.142,3.886-7.603c0.491,2.162,1.611,4.769,4.163,5.366c4.33,1.014,6.25,1.064,8.229,1.096
	c0.937,0.016,4.912-0.149,5.313,3.851C33.219,25.993,33.073,29.404,32.951,32.597z M35.846,29.647
	c0.541-2.635,0.732-4.429,0.85-6.128c0.051-0.139,0.087-0.316,0.109-0.535c0.832,0.752,1.338,1.83,1.338,3.009
	C38.143,27.574,37.23,28.977,35.846,29.647z"/>
</svg>
