<?xml version="1.0" encoding="utf-8"?>
<!-- Generator: Adobe Illustrator 16.0.0, SVG Export Plug-In . SVG Version: 6.00 Build 0)  -->
<!DOCTYPE svg PUBLIC "-//W3C//DTD SVG 1.1//EN" "http://www.w3.org/Graphics/SVG/1.1/DTD/svg11.dtd">
<svg version="1.1" id="图层_1" xmlns="http://www.w3.org/2000/svg" xmlns:xlink="http://www.w3.org/1999/xlink" x="0px" y="0px"
	 width="43px" height="43px" viewBox="0 0 43 43" enable-background="new 0 0 43 43" xml:space="preserve">
<path fill="#999999" d="M36.59,19.991c0-3.26-1.219-6.314-3.664-8.148c0-5.094-3.26-6.929-4.684-7.744v2.239
	c0,0.205-0.035,0.195-0.096,0.38c1.445,1.141,2.83,2.495,2.83,6.054c2.443,1.836,3.869,5.705,3.869,8.965"/>
<path fill="#999999" d="M6.363,23.965c0-4.484-1.629-12.632,7.744-15.481c0.815-1.226,1.631-1.426,3.055-1.426h9.17
	c1.02,0,1.834-0.814,1.834-1.834v-2.24c1.426,0.814,4.686,2.65,4.686,7.744c2.443,1.836,3.67,4.891,3.67,8.15v5.093h-2.24
	c0-1.631-1.225-5.093-4.484-6.929c-1.631,1.02-6.314,3.465-11.004-1.225c-3.26-0.205-8.76,1.225-10.189,8.148H6.363z"/>
<path fill="none" stroke="#999999" stroke-width="0.5" stroke-miterlimit="10" d="M34.604,24.041
	c1.299-0.676,4.299-0.23,4.424,2.834c0.125,3.115-2.549,3.619-4.625,3.369C34.582,28.895,35.268,26.27,34.604,24.041z"/>
<path fill="none" stroke="#999999" stroke-width="0.5" stroke-miterlimit="10" d="M8.372,23.965
	c-2.114-0.85-4.484,0.695-4.584,2.846s2.035,3.865,4.704,3.689C8.102,28.529,7.972,26.205,8.372,23.965z"/>
<path fill="#999999" d="M13.941,25.906c0,0.844,0.684,1.529,1.527,1.529c0.845,0,1.529-0.684,1.529-1.527c0-0.002,0-0.002,0-0.002
	c0-0.844-0.684-1.527-1.527-1.527C14.626,24.377,13.941,25.063,13.941,25.906L13.941,25.906z"/>
<path fill="#999999" d="M25.09,25.906c0,0.844,0.684,1.529,1.527,1.529s1.529-0.684,1.529-1.527c0-0.002,0-0.002,0-0.002
	c0-0.844-0.684-1.527-1.527-1.527C25.775,24.377,25.09,25.063,25.09,25.906L25.09,25.906z"/>
<path fill="none" stroke="#999999" stroke-width="0.5" stroke-miterlimit="10" d="M34.402,29.93
	c-0.252,2.025-2.797,5.801-6.066,7.811c-2.344,1.441-5.061,1.873-5.832,1.873c-11.62,0-14.012-9.113-14.012-9.113"/>
</svg>
