<?xml version="1.0" standalone="no"?><!DOCTYPE svg PUBLIC "-//W3C//DTD SVG 1.1//EN" "http://www.w3.org/Graphics/SVG/1.1/DTD/svg11.dtd"><svg t="1492427826769" class="icon" style="" viewBox="0 0 1024 1024" version="1.1" xmlns="http://www.w3.org/2000/svg" p-id="1586" xmlns:xlink="http://www.w3.org/1999/xlink" width="45" height="45"><defs><style type="text/css"></style></defs><path d="M384 501.333333a53.333333 53.333333 0 1 0 0 106.666667 53.333333 53.333333 0 0 0 0-106.666667z m256 0a53.333333 53.333333 0 1 0 0 106.666667 53.333333 53.333333 0 0 0 0-106.666667zM512 85.333333C276.48 85.333333 85.333333 276.48 85.333333 512s191.146667 426.666667 426.666667 426.666667 426.666667-191.146667 426.666667-426.666667S747.52 85.333333 512 85.333333z m0 768c-188.16 0-341.333333-153.173333-341.333333-341.333333 0-12.373333 0.853333-24.746667 2.133333-36.693333 100.693333-44.8 180.48-127.146667 222.293333-229.12a425.557333 425.557333 0 0 0 444.16 169.386666c8.96 30.293333 14.08 62.72 14.08 96.426667 0 188.16-153.173333 341.333333-341.333333 341.333333z" p-id="1587" fill="#1cc09f"></path></svg>