<?xml version="1.0" encoding="utf-8"?>
<!-- Generator: Adobe Illustrator 16.0.0, SVG Export Plug-In . SVG Version: 6.00 Build 0)  -->
<!DOCTYPE svg PUBLIC "-//W3C//DTD SVG 1.1//EN" "http://www.w3.org/Graphics/SVG/1.1/DTD/svg11.dtd">
<svg version="1.1" id="图层_1" xmlns="http://www.w3.org/2000/svg" xmlns:xlink="http://www.w3.org/1999/xlink" x="0px" y="0px"
	 width="64px" height="64px" viewBox="0 0 64 64" enable-background="new 0 0 64 64" xml:space="preserve">
<path fill="#1CC09F" d="M31.252,34.834c-0.95,0-1.695,0.352-2.241,1.055c-0.545,0.705-0.817,1.617-0.817,2.734
	c0,1.104,0.266,2.008,0.8,2.708c0.532,0.704,1.263,1.054,2.193,1.054c0.948,0,1.685-0.338,2.213-1.01
	c0.527-0.67,0.791-1.574,0.791-2.707c0-1.184-0.256-2.117-0.769-2.805C32.909,35.177,32.185,34.834,31.252,34.834z"/>
<path fill="#1CC09F" d="M30.674,34.803h-1.071v3.666h1.049c1.422,0,2.133-0.617,2.133-1.854
	C32.786,35.407,32.082,34.803,30.674,34.803z"/>
<path fill="#1CC09F" d="M2.435,0v63.973h2.209c-0.086-0.186-0.137-0.387-0.137-0.604c0-0.788,0.64-1.429,1.428-1.429
	c0.789,0,1.429,0.641,1.429,1.429c0,0.218-0.051,0.419-0.137,0.604H9.32c-0.085-0.186-0.137-0.387-0.137-0.604
	c0-0.788,0.64-1.429,1.429-1.429s1.428,0.641,1.428,1.429c0,0.218-0.051,0.419-0.137,0.604h2.093
	c-0.084-0.186-0.137-0.387-0.137-0.604c0-0.788,0.64-1.429,1.429-1.429s1.429,0.641,1.429,1.429c0,0.218-0.052,0.419-0.138,0.604
	h2.094c-0.086-0.186-0.139-0.387-0.139-0.604c0-0.788,0.641-1.429,1.43-1.429c0.79,0,1.431,0.641,1.431,1.429
	c0,0.218-0.053,0.419-0.141,0.604h2.095c-0.087-0.186-0.14-0.387-0.14-0.604c0-0.788,0.642-1.429,1.431-1.429
	c0.79,0,1.429,0.641,1.429,1.429c0,0.218-0.051,0.419-0.137,0.604h2.093c-0.086-0.186-0.137-0.387-0.137-0.604
	c0-0.788,0.64-1.429,1.428-1.429s1.429,0.641,1.429,1.429c0,0.218-0.051,0.419-0.137,0.604h2.094
	c-0.087-0.186-0.138-0.387-0.138-0.604c0-0.788,0.642-1.429,1.429-1.429c0.789,0,1.431,0.641,1.431,1.429
	c0,0.218-0.052,0.419-0.14,0.604h2.096c-0.086-0.186-0.137-0.387-0.137-0.604c0-0.788,0.638-1.429,1.428-1.429
	c0.787,0,1.429,0.641,1.429,1.429c0,0.218-0.054,0.419-0.138,0.604h2.093c-0.084-0.186-0.138-0.387-0.138-0.604
	c0-0.788,0.641-1.429,1.429-1.429c0.791,0,1.431,0.641,1.431,1.429c0,0.218-0.053,0.419-0.137,0.604h2.092
	c-0.085-0.186-0.138-0.387-0.138-0.604c0-0.788,0.641-1.429,1.43-1.429s1.429,0.641,1.429,1.429c0,0.218-0.051,0.419-0.138,0.604
	h2.095c-0.086-0.186-0.139-0.387-0.139-0.604c0-0.788,0.641-1.429,1.43-1.429s1.428,0.641,1.428,1.429
	c0,0.218-0.051,0.419-0.137,0.604h2.094c-0.086-0.186-0.137-0.387-0.137-0.604c0-0.788,0.639-1.429,1.428-1.429
	s1.43,0.641,1.43,1.429c0,0.218-0.053,0.419-0.139,0.604h1.566V0H2.435z M5.472,56.92c-0.188,0.161-0.421,0.24-0.705,0.24
	c-0.265,0-0.489-0.082-0.676-0.248c-0.188-0.166-0.283-0.374-0.283-0.623c0-0.254,0.097-0.461,0.289-0.623
	c0.194-0.162,0.424-0.243,0.69-0.243c0.271,0,0.498,0.083,0.686,0.248c0.187,0.165,0.278,0.372,0.278,0.618
	C5.749,56.549,5.656,56.76,5.472,56.92z M9.475,56.92c-0.188,0.161-0.421,0.24-0.705,0.24c-0.264,0-0.489-0.082-0.676-0.248
	c-0.188-0.166-0.281-0.374-0.281-0.623c0-0.254,0.097-0.461,0.289-0.623s0.422-0.243,0.688-0.243c0.271,0,0.498,0.083,0.686,0.248
	c0.187,0.165,0.278,0.372,0.278,0.618C9.754,56.549,9.661,56.76,9.475,56.92z M21.49,14.156c0.102-0.239,0.235-0.445,0.403-0.619
	c0.168-0.175,0.37-0.316,0.601-0.424c0.231-0.106,0.479-0.159,0.741-0.159c0.264,0,0.513,0.053,0.751,0.159
	c0.239,0.106,0.444,0.249,0.62,0.424c0.176,0.175,0.313,0.381,0.413,0.619c0.101,0.238,0.15,0.494,0.15,0.77
	c0,0.414-0.105,0.782-0.319,1.107c-0.212,0.325-0.487,0.563-0.825,0.714c0.087,0.375,0.228,0.747,0.422,1.117
	c0.194,0.37,0.431,0.704,0.712,1.004c0.282,0.301,0.595,0.545,0.94,0.732c0.343,0.188,0.709,0.282,1.097,0.282
	c0.452,0,0.874-0.117,1.269-0.347c0.396-0.232,0.741-0.533,1.042-0.901c0.299-0.37,0.534-0.786,0.703-1.249
	c0.169-0.461,0.252-0.926,0.252-1.388c0-0.438-0.086-0.863-0.262-1.277c-0.35-0.213-0.636-0.504-0.854-0.873
	c-0.22-0.368-0.328-0.772-0.328-1.21c0-0.325,0.063-0.632,0.187-0.92c0.124-0.287,0.293-0.54,0.507-0.76
	c0.213-0.219,0.461-0.392,0.741-0.516c0.281-0.125,0.586-0.188,0.91-0.188c0.313,0,0.613,0.063,0.901,0.188
	c0.289,0.125,0.535,0.297,0.742,0.516c0.205,0.219,0.371,0.474,0.496,0.76c0.127,0.289,0.188,0.595,0.188,0.92
	c0,0.476-0.121,0.9-0.363,1.277c-0.244,0.375-0.561,0.664-0.95,0.863c-0.137,0.388-0.203,0.788-0.203,1.2
	c0,0.463,0.082,0.922,0.252,1.379c0.168,0.457,0.399,0.87,0.694,1.24c0.293,0.368,0.638,0.669,1.033,0.901
	c0.396,0.231,0.817,0.347,1.268,0.347c0.387,0,0.754-0.095,1.098-0.282c0.346-0.188,0.657-0.429,0.938-0.723
	c0.281-0.294,0.52-0.626,0.715-0.994c0.193-0.37,0.334-0.736,0.421-1.098c-0.339-0.163-0.612-0.407-0.827-0.732
	c-0.212-0.325-0.318-0.688-0.318-1.089c0-0.276,0.051-0.532,0.15-0.77c0.1-0.239,0.238-0.445,0.413-0.62
	c0.175-0.175,0.382-0.316,0.618-0.423c0.238-0.106,0.488-0.159,0.752-0.159c0.262,0,0.512,0.052,0.75,0.159
	c0.238,0.106,0.443,0.248,0.619,0.423c0.176,0.175,0.313,0.381,0.412,0.62c0.1,0.238,0.149,0.494,0.149,0.77
	c0,0.4-0.104,0.76-0.312,1.079c-0.205,0.32-0.471,0.561-0.795,0.722c-0.063,0.627-0.158,1.264-0.283,1.915
	c-0.127,0.651-0.28,1.299-0.469,1.943c-0.187,0.645-0.408,1.268-0.658,1.868c-0.25,0.602-0.525,1.151-0.826,1.652
	c-1.039,0.388-2.114,0.685-3.227,0.892c-1.115,0.206-2.262,0.31-3.438,0.31s-2.318-0.104-3.426-0.31
	c-1.107-0.207-2.187-0.504-3.236-0.892c-0.303-0.5-0.576-1.05-0.827-1.652c-0.25-0.6-0.47-1.223-0.656-1.868
	s-0.347-1.292-0.479-1.943c-0.13-0.65-0.224-1.288-0.272-1.915c-0.325-0.163-0.585-0.403-0.778-0.722
	c-0.194-0.319-0.292-0.678-0.292-1.079C21.343,14.649,21.393,14.394,21.49,14.156z M13.479,56.92
	c-0.188,0.161-0.421,0.24-0.705,0.24c-0.264,0-0.489-0.082-0.675-0.248c-0.188-0.166-0.282-0.374-0.282-0.623
	c0-0.254,0.096-0.461,0.289-0.623c0.192-0.162,0.422-0.243,0.689-0.243c0.271,0,0.498,0.083,0.686,0.248
	c0.187,0.165,0.277,0.372,0.277,0.618C13.757,56.549,13.664,56.76,13.479,56.92z M17.482,56.92c-0.188,0.161-0.421,0.24-0.705,0.24
	c-0.264,0-0.489-0.082-0.675-0.248c-0.188-0.166-0.282-0.374-0.282-0.623c0-0.254,0.096-0.461,0.289-0.623
	c0.192-0.162,0.422-0.243,0.69-0.243c0.27,0,0.498,0.083,0.684,0.248c0.187,0.165,0.278,0.372,0.278,0.618
	C17.76,56.549,17.668,56.76,17.482,56.92z M21.485,56.92c-0.187,0.161-0.421,0.24-0.705,0.24c-0.264,0-0.489-0.082-0.675-0.248
	c-0.188-0.166-0.282-0.374-0.282-0.623c0-0.254,0.097-0.461,0.289-0.623s0.422-0.243,0.69-0.243c0.27,0,0.498,0.083,0.684,0.248
	c0.188,0.165,0.278,0.372,0.278,0.618C21.765,56.549,21.673,56.76,21.485,56.92z M25.49,56.92c-0.187,0.161-0.421,0.24-0.705,0.24
	c-0.263,0-0.487-0.082-0.675-0.248c-0.187-0.166-0.282-0.374-0.282-0.623c0-0.254,0.099-0.461,0.288-0.623
	c0.194-0.162,0.423-0.243,0.691-0.243c0.27,0,0.498,0.083,0.685,0.248c0.188,0.165,0.279,0.372,0.279,0.618
	C25.77,56.549,25.676,56.76,25.49,56.92z M29.493,56.92c-0.187,0.161-0.421,0.24-0.705,0.24c-0.263,0-0.488-0.082-0.675-0.248
	s-0.282-0.374-0.282-0.623c0-0.254,0.099-0.461,0.29-0.623c0.193-0.162,0.422-0.243,0.689-0.243c0.27,0,0.498,0.083,0.685,0.248
	c0.188,0.165,0.279,0.372,0.279,0.618C29.773,56.549,29.681,56.76,29.493,56.92z M33.498,56.92c-0.188,0.161-0.422,0.24-0.705,0.24
	c-0.264,0-0.489-0.082-0.678-0.248c-0.187-0.166-0.281-0.374-0.281-0.623c0-0.254,0.099-0.461,0.291-0.623
	c0.193-0.162,0.42-0.243,0.688-0.243c0.271,0,0.5,0.083,0.687,0.248c0.186,0.165,0.277,0.372,0.277,0.618
	C33.777,56.549,33.685,56.76,33.498,56.92z M37.504,56.92c-0.188,0.161-0.422,0.24-0.706,0.24c-0.265,0-0.489-0.082-0.677-0.248
	c-0.187-0.166-0.281-0.374-0.281-0.623c0-0.254,0.097-0.461,0.289-0.623c0.193-0.162,0.424-0.243,0.689-0.243
	c0.271,0,0.499,0.083,0.686,0.248c0.186,0.165,0.279,0.372,0.279,0.618C37.781,56.549,37.688,56.76,37.504,56.92z M41.506,56.92
	c-0.188,0.161-0.422,0.24-0.705,0.24c-0.264,0-0.49-0.082-0.678-0.248c-0.187-0.166-0.28-0.374-0.28-0.623
	c0-0.254,0.097-0.461,0.29-0.623c0.191-0.162,0.423-0.243,0.689-0.243c0.271,0,0.498,0.083,0.684,0.248s0.277,0.372,0.277,0.618
	C41.783,56.549,41.693,56.76,41.506,56.92z M45.511,56.92c-0.187,0.161-0.421,0.24-0.706,0.24c-0.264,0-0.488-0.082-0.676-0.248
	c-0.188-0.166-0.283-0.374-0.283-0.623c0-0.254,0.098-0.461,0.291-0.623s0.422-0.243,0.689-0.243c0.27,0,0.498,0.083,0.685,0.248
	s0.278,0.372,0.278,0.618C45.789,56.549,45.697,56.76,45.511,56.92z M49.514,56.92c-0.188,0.161-0.42,0.24-0.705,0.24
	c-0.264,0-0.488-0.082-0.675-0.248s-0.283-0.374-0.283-0.623c0-0.254,0.099-0.461,0.29-0.623c0.193-0.162,0.423-0.243,0.689-0.243
	c0.271,0,0.498,0.083,0.684,0.248s0.281,0.372,0.281,0.618C49.795,56.549,49.701,56.76,49.514,56.92z M53.519,56.92
	c-0.187,0.161-0.421,0.24-0.706,0.24c-0.264,0-0.488-0.082-0.676-0.248s-0.281-0.374-0.281-0.623c0-0.254,0.096-0.461,0.288-0.623
	c0.194-0.162,0.423-0.243,0.69-0.243c0.27,0,0.498,0.083,0.685,0.248s0.279,0.372,0.279,0.618
	C53.798,56.549,53.705,56.76,53.519,56.92z M57.521,56.92c-0.186,0.161-0.42,0.24-0.705,0.24c-0.263,0-0.488-0.082-0.675-0.248
	s-0.282-0.374-0.282-0.623c0-0.254,0.098-0.461,0.29-0.623s0.423-0.243,0.689-0.243c0.271,0,0.497,0.083,0.683,0.248
	s0.281,0.372,0.281,0.618C57.803,56.549,57.709,56.76,57.521,56.92z"/>
<text transform="matrix(1 0 0 1 23.9785 47.9482)" fill="#FFFFFF" font-family="'MicrosoftYaHei-Bold'" font-size="23.8513">5</text>
</svg>
